<svg width="636" height="226" viewBox="0 0 636 226" fill="none" xmlns="http://www.w3.org/2000/svg">
<path d="M202.617 135.163H167.026V94.2707H119.26V135.163H60.5666L156.099 3.74585H103.026L0 142.343V176.367H117.699V222.254H167.026V176.367H202.617V135.163Z" fill="white"/>
<path d="M314.526 226C368.536 226 408.185 185.108 408.185 113C408.185 40.8923 368.536 0 314.526 0C260.827 0 220.866 40.8923 220.866 113C220.866 185.108 260.827 226 314.526 226ZM314.526 183.235C289.55 183.235 272.067 162.633 272.067 113C272.067 63.3674 289.55 42.7652 314.526 42.7652C339.814 42.7652 357.297 63.3674 357.297 113C357.297 162.633 339.814 183.235 314.526 183.235Z" fill="white"/>
<path d="M636 135.163H600.409V94.2707H552.643V135.163H493.95L589.482 3.74585H536.409L433.383 142.343V176.367H551.082V222.254H600.409V176.367H636V135.163Z" fill="white"/>
</svg>
