<svg width="174" height="30" viewBox="0 0 174 30" fill="none" xmlns="http://www.w3.org/2000/svg">
<path d="M10.6531 0.417087C10.6531 0.294136 10.6531 0.171185 10.7755 0.0482342C10.898 0.0482342 11.0204 0.0482342 11.1429 0.0482342H12.3673C12.4898 0.0482342 12.6122 0.0482342 12.7347 0.0482342C12.8571 0.171185 12.8571 0.294136 12.8571 0.417087V15.4171C12.8571 15.663 12.8571 16.0318 12.6122 16.2777C12.3673 16.5236 12 16.6466 11.7551 16.5236H11.1429C10.898 16.5236 10.6531 16.5236 10.4082 16.2777C10.1633 16.0318 10.0408 15.7859 9.79592 15.54L4.16326 6.19578L2.32653 2.99905H2.20408V16.0318C2.20408 16.1548 2.20408 16.2777 2.08163 16.4007C1.95918 16.4007 1.83673 16.4007 1.71428 16.4007H0.489793C0.367344 16.4007 0.244896 16.4007 0.122447 16.4007C0.122447 16.4007 0 16.2777 0 16.0318V1.15479C0 0.78594 0.122448 0.540037 0.367346 0.294136C0.612244 0.048234 0.979592 -0.0747166 1.22449 0.0482342H1.83673C2.08163 0.0482342 2.32653 0.048234 2.57143 0.294136C2.81632 0.540037 2.93878 0.785939 3.06122 1.03184L8.44898 10.1302L10.4082 13.5728L10.6531 0.417087Z" transform="translate(50.0819 13.1074)" fill="white"/>
<path d="M13.8521 8.51559C13.9746 10.7287 13.3623 13.0648 12.1378 14.909C10.7909 16.5074 8.8317 17.2451 6.87252 17.1221C4.91333 17.2451 2.95415 16.5074 1.72966 14.909C0.505171 13.0648 -0.107071 10.8517 0.0153778 8.63854C0.0153778 7.40903 0.137824 6.17952 0.505171 4.95002C0.750069 3.96641 1.23987 3.10575 1.97456 2.2451C2.5868 1.50739 3.3215 0.89264 4.17864 0.523787C5.03578 0.154935 6.01537 -0.0909677 6.99497 0.0319831C7.97456 0.0319831 9.0766 0.154934 10.0562 0.646737C10.9133 1.01559 11.648 1.63034 12.2603 2.36805C12.8725 3.10575 13.2399 4.08936 13.6072 5.07297C13.8521 6.17952 13.9746 7.40903 13.8521 8.51559ZM11.648 8.63854C11.648 7.77788 11.648 6.91723 11.5256 6.17952C11.4031 5.44182 11.1582 4.70411 10.7909 4.08936C10.4235 3.47461 9.93374 2.9828 9.3215 2.61395C8.70925 2.2451 7.85211 1.9992 6.99497 1.9992C6.26027 1.9992 5.52558 2.12215 4.79088 2.491C4.17864 2.85985 3.5664 3.35166 3.19905 3.96641C2.8317 4.58116 2.46435 5.31887 2.34191 6.05657C2.09701 6.91723 2.09701 7.77788 2.09701 8.51559C2.09701 9.37624 2.21946 10.3599 2.34191 11.2205C2.46435 11.9582 2.70925 12.6959 3.0766 13.3107C3.44395 13.9254 3.93374 14.2943 4.66844 14.6631C5.40313 15.032 6.13782 15.1549 6.99497 15.1549C7.72966 15.1549 8.58681 15.032 9.19905 14.6631C9.8113 14.2943 10.4235 13.8025 10.7909 13.1877C11.1582 12.573 11.4031 11.8353 11.5256 11.0976C11.648 10.2369 11.7705 9.4992 11.648 8.63854Z" transform="translate(65.9849 12.7549)" fill="white"/>
<path d="M8.69388 15.7377C8.57143 15.9836 8.44898 16.2295 8.32653 16.3525C8.08164 16.4754 7.95919 16.5984 7.71429 16.5984H6.61225C6.36735 16.5984 6.12245 16.5984 5.87755 16.4754C5.63266 16.3525 5.51021 16.1066 5.38776 15.7377L0 0.368852C0 0.245901 0 0.245901 0 0.12295C0 0.12295 0.122455 0 0.244904 0H1.95918C2.08163 0 2.32653 0.122951 2.32653 0.245901C2.32653 0.245901 2.44898 0.491802 2.57143 0.983606L3.18367 2.70492C3.42857 3.44262 3.67348 4.18033 3.91837 5.04098C4.16327 5.90164 4.40817 6.63934 4.65307 7.37705C4.89796 8.2377 5.14286 8.85246 5.26531 9.46721C5.51021 10.082 5.63265 10.4508 5.63265 10.6967L5.87755 11.3115C6 11.6803 6.12245 12.0492 6.2449 12.541L6.61225 13.7705C6.7347 14.1393 6.85714 14.3852 6.85714 14.3852H6.9796L8.08163 10.8197L11.6327 0.368852C11.6327 0.245901 11.7551 0.12295 11.8776 0.12295H12.1225H13.7143C13.8367 0.12295 13.9592 0.245901 13.8367 0.368852L8.69388 15.7377Z" transform="translate(81.5507 13.0327)" fill="white"/>
<path d="M12 16.4754C11.8776 16.4754 11.7551 16.4754 11.6327 16.4754C11.5102 16.4754 11.5102 16.3525 11.3878 16.2295L10.1633 12.7869H3.55102L2.32653 16.2295C2.32653 16.4754 2.08163 16.5984 1.83673 16.5984H0.244904C0.122455 16.5984 0 16.5984 0 16.4754C0 16.3525 0 16.2295 0 16.1066L5.26531 0.983607C5.38776 0.737705 5.5102 0.491803 5.63265 0.245901C5.87755 0.122951 6.12245 0 6.36735 0H7.10204C7.34694 0 7.71428 -2.38174e-07 7.95918 0.245901C8.20408 0.491803 8.32653 0.737705 8.32653 0.983607L13.5918 16.1066C13.5918 16.2295 13.5918 16.3525 13.5918 16.3525C13.5918 16.4754 13.4694 16.4754 13.3469 16.4754H12ZM8.08163 5.77869L6.9796 2.33607H6.85714L5.75511 5.65574L4.16327 10.6967H9.67347L8.08163 5.77869Z" transform="translate(95.6321 13.1558)" fill="white"/>
<path d="M4.89796 1.96721H0.244904C0.122455 1.96721 0 1.96721 0 1.84426C0 1.72131 0 1.59836 0 1.59836V0.368853C0 0.245902 0 0.122951 0 0.122951C0 0.122951 0.122455 0 0.244904 0H11.7551C11.8775 0 12 4.67188e-07 12 0.122951C12 0.245902 12 0.368853 12 0.368853V1.59836C12 1.72131 12 1.84426 12 1.84426C12 1.84426 11.8775 1.96721 11.7551 1.96721H7.10204V16.1066C7.10204 16.2295 7.10205 16.3525 6.9796 16.4754C6.85715 16.4754 6.73469 16.4754 6.61225 16.4754H5.26531C5.14286 16.4754 5.02041 16.4754 4.89796 16.4754C4.77551 16.3525 4.77551 16.2295 4.77551 16.1066V1.96721H4.89796Z" transform="translate(109.714 13.1558)" fill="white"/>
<path d="M0 0.368853C0 0.245902 -1.87025e-06 0.122951 0.122447 0C0.244896 0 0.367349 0 0.489798 0H1.83673C1.95918 0 2.08163 0 2.20408 0C2.20408 0 2.32653 0.122951 2.32653 0.368853V16.1066C2.32653 16.2295 2.32652 16.3525 2.20408 16.4754C2.08163 16.4754 1.95918 16.4754 1.83673 16.4754H0.489798C0.367349 16.4754 0.244896 16.4754 0.122447 16.4754C-1.87025e-06 16.4754 0 16.3525 0 16.1066V0.368853Z" transform="translate(124.164 13.1558)" fill="white"/>
<path d="M13.9746 8.51559C14.097 10.7287 13.4848 13.0648 12.1378 14.909C10.7909 16.5074 8.8317 17.2451 6.87252 17.1221C4.91333 17.2451 2.95415 16.5074 1.72967 14.909C0.505175 13.0648 -0.107071 10.8517 0.0153777 8.63854C0.0153777 7.40903 0.137829 6.17952 0.505175 4.95002C0.750073 3.96641 1.23987 3.10575 1.97456 2.2451C2.5868 1.50739 3.3215 0.89264 4.17864 0.523787C5.03579 0.154935 6.01537 -0.0909677 6.99497 0.0319831C8.09701 0.0319831 9.0766 0.154934 10.0562 0.646737C10.9133 1.01559 11.648 1.63034 12.2603 2.36805C12.8725 3.10575 13.3623 4.08936 13.6072 5.07297C13.8521 6.17952 13.9746 7.40903 13.9746 8.51559ZM11.648 8.63854C11.648 7.77788 11.5256 6.91723 11.4031 6.17952C11.2807 5.44182 11.0358 4.70411 10.6684 4.08936C10.3011 3.47461 9.8113 2.9828 9.19905 2.61395C8.46436 2.2451 7.60721 1.9992 6.87252 2.12215C6.13782 2.12215 5.40314 2.2451 4.66844 2.61395C4.0562 2.9828 3.44395 3.47461 3.0766 4.08936C2.70925 4.70411 2.34191 5.44182 2.21946 6.17952C1.97456 7.04018 1.97456 7.90084 1.97456 8.63854C1.97456 9.4992 2.09701 10.4828 2.21946 11.3435C2.34191 12.0812 2.58681 12.8189 2.95415 13.4336C3.3215 14.0484 3.81129 14.4172 4.54599 14.7861C5.28068 15.1549 6.01538 15.2779 6.87252 15.2779C7.60721 15.2779 8.46436 15.1549 9.0766 14.7861C9.68885 14.4172 10.3011 13.9254 10.6684 13.3107C11.0358 12.6959 11.2807 11.9582 11.4031 11.2205C11.648 10.2369 11.7705 9.4992 11.648 8.63854Z" transform="translate(129.78 12.7549)" fill="white"/>
<path d="M10.5306 0.417087C10.5306 0.294136 10.5306 0.171185 10.6531 0.0482342C10.7755 0.0482342 10.898 0.0482342 11.0204 0.0482342H12.2449C12.3673 0.0482342 12.4898 0.0482342 12.6122 0.0482342C12.7347 0.0482342 12.7347 0.171185 12.7347 0.417087V15.4171C12.7347 15.663 12.7347 16.0318 12.4898 16.2777C12.2449 16.5236 11.8775 16.6466 11.6326 16.5236H11.0204C10.7755 16.5236 10.5306 16.5236 10.2857 16.2777C10.0408 16.0318 9.91837 15.7859 9.79592 15.54L4.16327 6.19578L2.32653 2.99905V16.0318C2.32653 16.1548 2.32652 16.2777 2.20408 16.4007C2.08163 16.4007 1.95918 16.4007 1.83673 16.4007H0.489798C0.367349 16.4007 0.244896 16.4007 0.122447 16.4007C-1.87025e-06 16.2777 0 16.1548 0 16.0318V1.15479C0 0.78594 0.122445 0.540037 0.244894 0.294136C0.489792 0.048234 0.857143 -0.0747166 1.22449 0.0482342H1.83673C2.08163 0.0482342 2.32653 0.048234 2.57143 0.294136C2.81632 0.540037 2.93878 0.785939 3.06122 1.03184L8.57143 10.1302L10.5306 13.5728V0.417087Z" transform="translate(146.817 13.1074)" fill="white"/>
<path d="M12.2956 12.4367C12.2956 13.1744 12.1732 13.9121 11.8058 14.5269C11.5609 15.1416 11.0711 15.6334 10.5813 16.0023C10.0915 16.3712 9.35683 16.74 8.74459 16.863C8.00989 17.1089 7.27521 17.1089 6.41807 17.1089C5.92827 17.1089 5.56093 17.1089 4.94868 17.1089C4.33644 17.1089 3.96909 16.9859 3.35684 16.863C2.86704 16.74 2.37725 16.6171 1.765 16.4941C1.2752 16.3712 0.785405 16.1253 0.17316 15.8794C0.0507111 15.7564 -0.0717266 15.6334 0.0507223 15.3875L0.540511 14.158C0.540511 14.0351 0.662956 13.9121 0.785405 14.0351C0.785405 14.0351 0.785412 14.0351 0.907861 14.0351C1.765 14.4039 2.62214 14.6498 3.47928 14.8957C4.21397 15.1416 5.07113 15.1416 5.80582 15.1416C6.78541 15.1416 7.76501 15.0187 8.62215 14.5269C9.2344 14.158 9.60173 13.2974 9.60173 12.5597C9.60173 12.1908 9.60174 11.822 9.47929 11.4531C9.35684 11.0843 9.11193 10.8384 8.74459 10.5925C8.37724 10.3466 8.0099 10.1007 7.64255 9.85476C7.15276 9.60886 6.66295 9.36296 5.92826 9.11706C5.19356 8.87115 4.33643 8.5023 3.60174 8.13345C3.11194 7.88755 2.49969 7.5187 2.00989 7.14985C1.64255 6.78099 1.2752 6.41214 1.0303 5.92034C0.785401 5.42853 0.662967 4.93673 0.662967 4.32197C0.662967 3.09247 1.15275 1.98591 2.00989 1.2482C3.11194 0.387549 4.45887 -0.104255 5.92826 0.0186962C6.7854 0.0186962 7.64254 0.141648 8.37724 0.264599C9.23438 0.38755 10.0915 0.633451 10.8262 1.0023C10.9487 1.0023 11.0711 1.2482 10.9487 1.37116L10.4589 2.72362C10.4589 2.84657 10.3364 2.84657 10.3364 2.84657H10.214C9.47928 2.47771 8.62214 2.23181 7.76499 1.98591C7.15275 1.86296 6.41806 1.74001 5.68336 1.74001C4.94867 1.74001 4.09152 1.86296 3.47928 2.35476C2.98948 2.72361 2.7446 3.33837 2.7446 3.95312C2.7446 4.32198 2.86704 4.69083 2.98949 4.93673C3.23439 5.30558 3.47929 5.55148 3.72419 5.67443C4.09154 5.92034 4.58132 6.16624 5.07112 6.41214L6.90785 7.14985C7.5201 7.39575 8.25479 7.64165 8.74459 7.88755C9.23438 8.13345 9.84663 8.5023 10.3364 8.87116C10.8262 9.24001 11.1936 9.73181 11.4385 10.2236C12.1732 11.0843 12.2956 11.822 12.2956 12.4367Z" transform="translate(161.704 12.7681)" fill="white"/>
<path d="M7.83673 0.00627538C4.16327 0.00627538 1.34694 2.71119 1.34694 2.71119V5.29316C3.42857 3.81775 6.97959 2.71119 8.57143 3.6948C9.79592 4.30955 9.42857 6.89152 9.42857 6.89152C9.42857 6.89152 8.69388 6.64562 6.36735 6.76857C3.79592 7.01447 0 8.73578 0 12.6702C0 15.8669 2.69388 17.7112 6.85714 17.7112C11.0204 17.7112 13.4694 16.2358 13.4694 16.2358V4.55546C13.5918 -0.362577 7.83673 0.00627538 7.83673 0.00627538ZM9.42857 14.5145C9.42857 14.5145 8.93878 14.8833 7.46939 14.8833C6 14.8833 4.16327 14.2686 4.16327 12.3014C4.16327 10.3341 5.63265 9.59644 7.71429 9.59644H9.42857V14.5145Z" transform="translate(0 12.2888)" fill="white"/>
<path d="M4.16326 0H0V16.8443H4.16326V0Z" transform="translate(17.2649 12.6641)" fill="white"/>
<path d="M0 4.42623C0 4.42623 5.83882e-07 0 5.63265 0C7.95918 0 10.1633 0.860655 11.8776 2.58197V5.16393C11.8776 5.16393 9.18367 3.19672 6.2449 3.19672C4.28571 3.19672 4.28571 4.42623 4.28571 4.42623C4.28571 4.42623 4.16327 5.28688 6.2449 6.39344C8.32653 7.5 12.8571 9.34426 12.8571 12.7869C12.8571 16.2295 9.30612 17.582 6.4898 17.582C4.04082 17.582 0.734694 15.9836 0.122449 15.3689C0.122449 14.3852 0.122449 12.7869 0.122449 12.7869C1.95918 13.7705 4.04082 14.3852 6.12245 14.3852C8.57143 14.3852 8.44898 13.0328 8.44898 12.9098C8.44898 12.7869 8.44898 12.0492 7.22449 11.4344C6 10.8197 3.79592 9.59016 2.08163 8.2377C0.857144 7.37705 0.122449 5.90164 0 4.42623Z" transform="translate(24.2445 12.418)" fill="white"/>
<path d="M4.16327 0H0V4.18033H4.16327V0Z" transform="translate(13.1027 8.48364)" fill="white"/>
<path d="M4.16326 0H0V4.18033H4.16326V0Z" transform="translate(17.2659 4.18042)" fill="white"/>
<path d="M4.16326 0H0V4.18033H4.16326V0Z" transform="translate(21.5521)" fill="white"/>
</svg>
