<svg width="127" height="22" viewBox="0 0 127 22" fill="none" xmlns="http://www.w3.org/2000/svg">
<path d="M7.77551 0.305864C7.77551 0.2157 7.77551 0.125536 7.86488 0.0353718C7.95426 0.0353718 8.04363 0.0353718 8.133 0.0353718H9.02674C9.11611 0.0353718 9.20549 0.0353718 9.29486 0.0353718C9.38423 0.125536 9.38424 0.2157 9.38424 0.305864V11.3059C9.38424 11.4862 9.38424 11.7567 9.20549 11.937C9.02674 12.1173 8.75862 12.2075 8.57987 12.1173H8.133C7.95426 12.1173 7.77551 12.1173 7.59676 11.937C7.41802 11.7567 7.32864 11.5764 7.14989 11.396L3.0387 4.54357L1.6981 2.19931H1.60873V11.7567C1.60873 11.8468 1.60872 11.937 1.51935 12.0272C1.42998 12.0272 1.3406 12.0272 1.25123 12.0272H0.357493C0.268119 12.0272 0.178746 12.0272 0.0893723 12.0272C0.0893723 12.0272 0 11.937 0 11.7567V0.846848C0 0.576356 0.089373 0.396027 0.26812 0.215699C0.446868 0.0353716 0.714989 -0.0547922 0.893737 0.0353718H1.34061C1.51935 0.0353718 1.6981 0.0353716 1.87685 0.215699C2.05559 0.396027 2.14497 0.576356 2.23434 0.756683L6.16678 7.42881L7.59676 9.95341L7.77551 0.305864Z" transform="translate(36.5538 9.6123)" fill="#2B2A2A"/>
<path d="M10.1104 6.24477C10.1998 7.86772 9.75295 9.58083 8.85922 10.9333C7.87611 12.1054 6.44613 12.6464 5.01615 12.5562C3.58617 12.6464 2.15619 12.1054 1.26245 10.9333C0.368717 9.58083 -0.0781497 7.95788 0.011224 6.33493C0.011224 5.43329 0.100596 4.53165 0.368717 3.63001C0.547464 2.9087 0.904959 2.27755 1.4412 1.64641C1.88807 1.10542 2.42431 0.654602 3.04993 0.384111C3.67554 0.113619 4.39053 -0.0667097 5.10552 0.0234543C5.82051 0.0234543 6.62487 0.113618 7.33986 0.474274C7.96548 0.744766 8.50172 1.19559 8.94859 1.73657C9.39546 2.27755 9.66358 2.99886 9.9317 3.72018C10.1104 4.53165 10.1998 5.43329 10.1104 6.24477ZM8.50172 6.33493C8.50172 5.70378 8.50172 5.07263 8.41235 4.53165C8.32297 3.99067 8.14423 3.44968 7.87611 2.99886C7.60799 2.54804 7.25049 2.18739 6.80362 1.9169C6.35675 1.64641 5.73114 1.46608 5.10552 1.46608C4.56928 1.46608 4.03304 1.55624 3.4968 1.82673C3.04993 2.09722 2.60306 2.45788 2.33494 2.9087C2.06682 3.35952 1.7987 3.9005 1.70932 4.44149C1.53057 5.07264 1.53057 5.70378 1.53057 6.24477C1.53057 6.87591 1.61995 7.59723 1.70932 8.22837C1.7987 8.76936 1.97744 9.31034 2.24557 9.76116C2.51369 10.212 2.87118 10.4825 3.40742 10.753C3.94367 11.0235 4.47991 11.1136 5.10552 11.1136C5.64176 11.1136 6.26738 11.0235 6.71425 10.753C7.16112 10.4825 7.60799 10.1218 7.87611 9.671C8.14423 9.22018 8.32297 8.67919 8.41235 8.13821C8.50172 7.50706 8.5911 6.96608 8.50172 6.33493Z" transform="translate(48.1613 9.35352)" fill="#2B2A2A"/>
<path d="M6.34553 11.541C6.25616 11.7213 6.16679 11.9016 6.07741 11.9918C5.89867 12.082 5.80929 12.1721 5.63054 12.1721H4.82618C4.64743 12.1721 4.46869 12.1721 4.28994 12.082C4.11119 11.9918 4.02182 11.8115 3.93244 11.541L0 0.270491C0 0.180327 0 0.180327 0 0.0901634C0 0.0901634 0.0893778 0 0.178751 0H1.42998C1.51935 0 1.6981 0.0901638 1.6981 0.180328C1.6981 0.180328 1.78747 0.360655 1.87685 0.721311L2.32371 1.98361C2.50246 2.52459 2.68121 3.06557 2.85996 3.69672C3.03871 4.32787 3.21746 4.86885 3.3962 5.40984C3.57495 6.04098 3.7537 6.4918 3.84307 6.94262C4.02182 7.39344 4.11119 7.66393 4.11119 7.84426L4.28994 8.29508C4.37931 8.56557 4.46868 8.83607 4.55806 9.19672L4.82618 10.0984C4.91555 10.3689 5.00492 10.5492 5.00492 10.5492H5.0943L5.89866 7.93443L8.4905 0.270491C8.4905 0.180327 8.57988 0.0901634 8.66925 0.0901634H8.848H10.0099C10.0992 0.0901634 10.1886 0.180327 10.0992 0.270491L6.34553 11.541Z" transform="translate(59.5228 9.55664)" fill="#2B2A2A"/>
<path d="M8.75862 12.082C8.66925 12.082 8.57987 12.082 8.4905 12.082C8.40113 12.082 8.40113 11.9918 8.31176 11.9016L7.41802 9.37705H2.59184L1.6981 11.9016C1.6981 12.082 1.51935 12.1721 1.34061 12.1721H0.178751C0.0893778 12.1721 0 12.1721 0 12.082C0 11.9918 0 11.9016 0 11.8115L3.84307 0.721312C3.93244 0.540984 4.02181 0.360656 4.11119 0.180328C4.28994 0.0901638 4.46869 0 4.64744 0H5.18368C5.36242 0 5.63054 -1.74661e-07 5.80929 0.180328C5.98804 0.360656 6.07741 0.540984 6.07741 0.721312L9.92048 11.8115C9.92048 11.9016 9.92048 11.9918 9.92048 11.9918C9.92048 12.082 9.83111 12.082 9.74173 12.082H8.75862ZM5.89866 4.23771L5.0943 1.71312H5.00492L4.20057 4.14754L3.03871 7.84426H7.06052L5.89866 4.23771Z" transform="translate(69.8008 9.64746)" fill="#2B2A2A"/>
<path d="M3.57495 1.44262H0.178751C0.0893778 1.44262 0 1.44262 0 1.35246C0 1.2623 0 1.17213 0 1.17213V0.270492C0 0.180328 0 0.0901643 0 0.0901643C0 0.0901643 0.0893778 0 0.178751 0H8.57987C8.66925 0 8.75862 3.42605e-07 8.75862 0.0901643C8.75862 0.180328 8.75862 0.270492 8.75862 0.270492V1.17213C8.75862 1.2623 8.75862 1.35246 8.75862 1.35246C8.75862 1.35246 8.66925 1.44262 8.57987 1.44262H5.18368V11.8115C5.18368 11.9016 5.18368 11.9918 5.0943 12.082C5.00493 12.082 4.91555 12.082 4.82618 12.082H3.84307C3.7537 12.082 3.66432 12.082 3.57495 12.082C3.48557 11.9918 3.48557 11.9016 3.48557 11.8115V1.44262H3.57495Z" transform="translate(80.0787 9.64746)" fill="#2B2A2A"/>
<path d="M0 0.270492C0 0.180328 -1.36507e-06 0.0901639 0.0893723 0C0.178746 0 0.268122 0 0.357496 0H1.34061C1.42998 0 1.51935 0 1.60872 0C1.60872 0 1.6981 0.0901641 1.6981 0.270492V11.8115C1.6981 11.9016 1.6981 11.9918 1.60872 12.082C1.51935 12.082 1.42998 12.082 1.34061 12.082H0.357496C0.268122 12.082 0.178746 12.082 0.0893723 12.082C-1.36507e-06 12.082 0 11.9918 0 11.8115V0.270492Z" transform="translate(90.6249 9.64746)" fill="#2B2A2A"/>
<path d="M10.1998 6.24477C10.2892 7.86772 9.84233 9.58083 8.85922 10.9333C7.87611 12.1054 6.44613 12.6464 5.01615 12.5562C3.58617 12.6464 2.15619 12.1054 1.26246 10.9333C0.36872 9.58083 -0.0781497 7.95788 0.011224 6.33493C0.011224 5.43329 0.100599 4.53165 0.36872 3.63001C0.547467 2.9087 0.904959 2.27755 1.4412 1.64641C1.88807 1.10542 2.42431 0.654602 3.04993 0.384111C3.67555 0.113619 4.39053 -0.0667097 5.10552 0.0234543C5.90988 0.0234543 6.62487 0.113618 7.33986 0.474274C7.96548 0.744766 8.50172 1.19559 8.94859 1.73657C9.39546 2.27755 9.75295 2.99886 9.9317 3.72018C10.1104 4.53165 10.1998 5.43329 10.1998 6.24477ZM8.50172 6.33493C8.50172 5.70378 8.41235 5.07263 8.32298 4.53165C8.2336 3.99067 8.05485 3.44968 7.78673 2.99886C7.51861 2.54804 7.16112 2.18739 6.71425 1.9169C6.17801 1.64641 5.55239 1.46608 5.01615 1.55624C4.47991 1.55624 3.94367 1.64641 3.40743 1.9169C2.96056 2.18739 2.51369 2.54804 2.24557 2.99886C1.97744 3.44968 1.70933 3.99067 1.61995 4.53165C1.44121 5.1628 1.4412 5.79395 1.4412 6.33493C1.4412 6.96608 1.53058 7.68739 1.61995 8.31854C1.70933 8.85952 1.88807 9.4005 2.15619 9.85132C2.42431 10.3021 2.78181 10.5726 3.31805 10.8431C3.85429 11.1136 4.39053 11.2038 5.01615 11.2038C5.55239 11.2038 6.17801 11.1136 6.62488 10.8431C7.07175 10.5726 7.51861 10.212 7.78673 9.76116C8.05485 9.31034 8.2336 8.76936 8.32298 8.22837C8.50173 7.50706 8.5911 6.96608 8.50172 6.33493Z" transform="translate(94.7249 9.35352)" fill="#2B2A2A"/>
<path d="M7.68613 0.305864C7.68613 0.2157 7.68614 0.125536 7.77551 0.0353718C7.86489 0.0353718 7.95425 0.0353718 8.04362 0.0353718H8.93736C9.02673 0.0353718 9.11611 0.0353718 9.20548 0.0353718C9.29486 0.0353718 9.29486 0.125536 9.29486 0.305864V11.3059C9.29486 11.4862 9.29487 11.7567 9.11612 11.937C8.93737 12.1173 8.66924 12.2075 8.49049 12.1173H8.04362C7.86488 12.1173 7.68614 12.1173 7.50739 11.937C7.32864 11.7567 7.23927 11.5764 7.14989 11.396L3.03871 4.54357L1.6981 2.19931V11.7567C1.6981 11.8468 1.6981 11.937 1.60872 12.0272C1.51935 12.0272 1.42998 12.0272 1.34061 12.0272H0.357496C0.268122 12.0272 0.178746 12.0272 0.0893723 12.0272C-1.36507e-06 11.937 0 11.8468 0 11.7567V0.846848C0 0.576356 0.089371 0.396027 0.178745 0.215699C0.357492 0.0353716 0.625616 -0.0547922 0.893737 0.0353718H1.34061C1.51935 0.0353718 1.6981 0.0353716 1.87685 0.215699C2.05559 0.396027 2.14497 0.576356 2.23434 0.756683L6.25616 7.42881L7.68613 9.95341V0.305864Z" transform="translate(107.159 9.6123)" fill="#2B2A2A"/>
<path d="M8.97439 9.12027C8.97439 9.66125 8.88501 10.2022 8.61689 10.6531C8.43814 11.1039 8.08064 11.4645 7.72315 11.735C7.36565 12.0055 6.82941 12.276 6.38254 12.3662C5.8463 12.5465 5.31007 12.5465 4.68445 12.5465C4.32696 12.5465 4.05884 12.5465 3.61197 12.5465C3.1651 12.5465 2.89698 12.4563 2.45011 12.3662C2.09261 12.276 1.73512 12.1858 1.28825 12.0957C0.930753 12.0055 0.573255 11.8252 0.126387 11.6449C0.0370133 11.5547 -0.0523522 11.4645 0.0370215 11.2842L0.394511 10.3826C0.394511 10.2924 0.483882 10.2022 0.573255 10.2924C0.573255 10.2924 0.573261 10.2924 0.662634 10.2924C1.28825 10.5629 1.91386 10.7432 2.53947 10.9235C3.07572 11.1039 3.70134 11.1039 4.23758 11.1039C4.95257 11.1039 5.66756 11.0137 6.29318 10.6531C6.74005 10.3826 7.00816 9.75142 7.00816 9.21043C7.00816 8.93994 7.00817 8.66945 6.91879 8.39896C6.82942 8.12847 6.65067 7.94814 6.38254 7.76781C6.11442 7.58748 5.84631 7.40715 5.57819 7.22683C5.22069 7.0465 4.86319 6.86617 4.32695 6.68584C3.79071 6.50551 3.16509 6.23502 2.62885 5.96453C2.27136 5.7842 1.82449 5.51371 1.46699 5.24322C1.19887 4.97273 0.930747 4.70224 0.752 4.34158C0.573253 3.98092 0.48389 3.62027 0.48389 3.16945C0.48389 2.26781 0.841376 1.45633 1.46699 0.91535C2.27136 0.284202 3.25446 -0.0764534 4.32695 0.0137106C4.95256 0.0137106 5.57818 0.103875 6.11442 0.194039C6.74004 0.284203 7.36565 0.46453 7.90189 0.735022C7.99127 0.735022 8.08065 0.91535 7.99127 1.00551L7.63378 1.99732C7.63378 2.08748 7.5444 2.08748 7.5444 2.08748H7.45503C6.91878 1.81699 6.29317 1.63666 5.66755 1.45633C5.22068 1.36617 4.68444 1.27601 4.1482 1.27601C3.61196 1.27601 2.98634 1.36617 2.53947 1.72683C2.18198 1.99732 2.00324 2.44814 2.00324 2.89896C2.00324 3.16945 2.09261 3.43994 2.18198 3.62027C2.36073 3.89076 2.53948 4.07109 2.71823 4.16125C2.98635 4.34158 3.34384 4.52191 3.70133 4.70224L5.04194 5.24322C5.48881 5.42355 6.02505 5.60387 6.38254 5.7842C6.74004 5.96453 7.18691 6.23502 7.5444 6.50551C7.9019 6.77601 8.17002 7.13666 8.34876 7.49732C8.885 8.12847 8.97439 8.66945 8.97439 9.12027Z" transform="translate(118.026 9.36328)" fill="#2B2A2A"/>
<path d="M5.71992 0.00460195C3.03871 0.00460195 0.98311 1.98821 0.98311 1.98821V3.88165C2.50246 2.79968 5.0943 1.98821 6.25616 2.70952C7.14989 3.16034 6.88177 5.05378 6.88177 5.05378C6.88177 5.05378 6.34553 4.87345 4.64743 4.96362C2.77058 5.14395 0 6.40624 0 9.29149C0 11.6357 1.96622 12.9882 5.00493 12.9882C8.04363 12.9882 9.8311 11.9062 9.8311 11.9062V3.34067C9.92048 -0.26589 5.71992 0.00460195 5.71992 0.00460195ZM6.88177 10.6439C6.88177 10.6439 6.52428 10.9144 5.45179 10.9144C4.37931 10.9144 3.03871 10.4636 3.03871 9.021C3.03871 7.57837 4.11119 7.03739 5.63054 7.03739H6.88177V10.6439Z" transform="translate(0 9.01172)" fill="#2B2A2A"/>
<path d="M3.0387 0H0V12.3525H3.0387V0Z" transform="translate(12.6017 9.28711)" fill="#2B2A2A"/>
<path d="M0 3.2459C0 3.2459 4.26167e-07 0 4.11119 0C5.80929 0 7.41802 0.631147 8.66925 1.89344V3.78689C8.66925 3.78689 6.70303 2.34426 4.55806 2.34426C3.12808 2.34426 3.12808 3.2459 3.12808 3.2459C3.12808 3.2459 3.03871 3.87705 4.55806 4.68852C6.07741 5.5 9.38424 6.85246 9.38424 9.37705C9.38424 11.9016 6.7924 12.8934 4.73681 12.8934C2.94933 12.8934 0.536242 11.7213 0.089374 11.2705C0.089374 10.5492 0.089374 9.37705 0.089374 9.37705C1.42998 10.0984 2.94933 10.5492 4.46868 10.5492C6.25616 10.5492 6.16679 9.55738 6.16679 9.46721C6.16679 9.37705 6.16679 8.83607 5.27305 8.38525C4.37931 7.93443 2.77058 7.03279 1.51935 6.04098C0.625616 5.40983 0.0893737 4.32787 0 3.2459Z" transform="translate(17.696 9.10742)" fill="#2B2A2A"/>
<path d="M3.03871 0H0V3.06557H3.03871V0Z" transform="translate(9.56299 6.22168)" fill="#CBE7EF"/>
<path d="M3.0387 0H0V3.06557H3.0387V0Z" transform="translate(12.6017 3.06641)" fill="#77C4D7"/>
<path d="M3.0387 0H0V3.06557H3.0387V0Z" transform="translate(15.7297)" fill="#BBE1E9"/>
</svg>
