<svg width="522" height="894" viewBox="0 0 522 894" fill="none" xmlns="http://www.w3.org/2000/svg">
<g filter="url(#filter0_d)">
<path d="M25.6398 132.004C25.6398 132.004 28.913 121.331 29.7858 112.073C30.6586 102.815 35.0229 89.201 37.205 83.2107C39.3871 77.2204 51.9342 59.7941 54.3345 49.774L39.278 0L0 108.915C0 108.915 13.0927 115.994 18.2206 120.895C23.3486 125.905 25.6398 132.004 25.6398 132.004Z" transform="translate(295.769 452.779)" fill="#D9E6FF"/>
<path d="M31.6718 58.9228C31.6718 58.9228 18.9064 59.2495 11.3781 50.7542C-0.405249 37.5755 -6.84247 12.0895 11.3781 0L60.6938 16.0104L31.6718 58.9228Z" transform="translate(225.474 550.911)" fill="#D9E6FF"/>
<path d="M41.2419 82.3394C64.0191 82.3394 82.4837 63.9071 82.4837 41.1697C82.4837 18.4323 64.0191 0 41.2419 0C18.4646 0 0 18.4323 0 41.1697C0 63.9071 18.4646 82.3394 41.2419 82.3394Z" transform="translate(313.553 348.656)" fill="#D9E6FF"/>
<path d="M31.3851 36.0966C48.7186 36.0966 62.7702 28.0161 62.7702 18.0483C62.7702 8.08051 48.7186 0 31.3851 0C14.0516 0 0 8.08051 0 18.0483C0 28.0161 14.0516 36.0966 31.3851 36.0966Z" transform="translate(373.505 342) rotate(60.8053)" fill="url(#paint0_linear)"/>
<path d="M0 66.5468C13.0927 59.6852 22.0393 45.9619 22.0393 30.0604C22.0393 18.1887 17.0205 7.5151 9.05577 0C9.05577 0 22.8031 18.5155 18.8753 36.0507C14.7293 54.784 0 66.5468 0 66.5468Z" transform="translate(373.998 359.657)" fill="white"/>
<path d="M71.2459 37.1454C71.2459 37.1454 76.3738 33.9868 81.2836 28.7589C86.3024 23.531 85.7569 20.9171 85.5387 19.828C85.3205 18.7388 70.0457 6.64929 60.3353 3.16402C50.734 -0.321243 31.5315 -2.9352 18.1115 6.64929C4.69154 16.2338 1.09105 35.5116 0 42.3733C0 42.3733 16.2567 47.7101 30.986 57.5124C45.7152 67.3147 57.6077 82.5627 57.6077 82.5627L60.6627 76.6814L61.8628 51.5221L71.2459 37.1454Z" transform="translate(303.734 337.977)" fill="white"/>
<path opacity="0.5" d="M0 6.64929C13.3109 -2.9352 32.5134 -0.321243 42.2238 3.16402C51.8251 6.64929 67.209 18.7388 67.4272 19.828C67.6454 20.9171 68.1909 23.64 63.1721 28.7589C63.1721 28.7589 66.6634 23.8578 64.0449 19.719C61.4264 15.4714 38.4051 -1.62822 18.5479 0.658985C1.96392 2.61945 0 6.64929 0 6.64929Z" transform="translate(321.954 337.977)" fill="#D9E6FF"/>
<path d="M8.0738 19.3868L9.92861 4.24768L9.05574 0C3.81868 1.63372 0 6.53488 0 12.3073C0 16.2283 1.74569 19.7136 4.47333 22.1097L8.0738 19.3868Z" transform="translate(356.65 369.895)" fill="#5EA7FA"/>
<path d="M8.61933 17.2085C13.3797 17.2085 17.2387 13.3562 17.2387 8.60424C17.2387 3.85225 13.3797 0 8.61933 0C3.859 0 0 3.85225 0 8.60424C0 13.3562 3.859 17.2085 8.61933 17.2085Z" transform="translate(360.905 373.598)" fill="#3588F9"/>
<path d="M5.67346 11.3271C8.80684 11.3271 11.347 8.79145 11.347 5.66355C11.347 2.53566 8.80684 0 5.67346 0C2.54009 0 0 2.53566 0 5.66355C0 8.79145 2.54009 11.3271 5.67346 11.3271Z" transform="translate(363.851 376.538)" fill="#5EA7FA"/>
<path d="M6.21903 28.6445C2.40033 25.5949 0 20.9116 0 15.6837C0 8.49533 4.58243 2.39612 10.9105 0L12.8745 3.37634C7.6374 5.01006 3.81869 9.91122 3.81869 15.6837C3.81869 19.6046 5.56439 23.0899 8.29202 25.486L6.21903 28.6445Z" transform="translate(352.722 366.518)" fill="#8CBDFF"/>
<path d="M7.60738 4.65336C7.17096 6.72274 5.20705 8.13863 3.13405 7.70297C1.06104 7.26731 -0.357331 5.30684 0.0790907 3.12855C0.515513 1.05917 2.47942 -0.356705 4.55242 0.0789529C6.73453 0.514611 8.0438 2.58398 7.60738 4.65336Z" transform="translate(306.055 373.301)" fill="#8CBDFF"/>
<path d="M7.03299 4.33161C6.70568 6.29207 4.74176 7.59905 2.88696 7.16339C1.03217 6.72774 -0.277069 4.8762 0.0502478 2.91573C0.377564 0.955271 2.34145 -0.35171 4.19624 0.0839482C6.16014 0.410692 7.36031 2.37115 7.03299 4.33161Z" transform="translate(340.998 339.968)" fill="#8CBDFF"/>
<path d="M8.67698 39.2164C11.4046 34.8598 10.6409 29.523 8.56788 25.1664C7.69504 23.3148 5.94935 21.3544 5.62204 19.285C4.9674 15.1462 10.3136 11.661 13.3685 9.80943C21.115 5.23502 31.48 4.47262 40.0994 6.75982C43.5908 7.63114 44.6818 2.18541 41.1904 1.31409C31.5891 -1.19094 20.3513 -0.101786 11.6228 4.47263C6.27667 7.3044 -0.706087 12.6412 0.0576512 19.5028C0.712284 25.602 7.69504 30.3943 3.65814 36.8202C1.69424 39.7609 6.71308 42.266 8.67698 39.2164Z" transform="translate(303.676 339.5)" fill="#D9E6FF"/>
<path d="M0 9.58447L6.98274 0C6.98274 0 53.6799 14.7035 71.2459 48.1403C71.1368 48.2492 19.5299 22.7631 0 9.58447Z" transform="translate(296.751 380.35)" fill="#8CBDFF"/>
<path d="M4.58243 0C4.58243 0 30.2222 6.42595 41.5692 14.05C52.9162 21.674 68.4091 33.4368 69.9366 36.4864C71.4641 39.536 71.4641 41.8232 71.4641 41.8232L49.643 38.5557L38.5142 25.5949L0 13.7232L4.58243 0Z" transform="translate(300.57 395.272)" fill="#3588F9"/>
<path d="M0 16.1194L6.65544 0L11.6743 1.96048L5.45527 17.4263L0 16.1194Z" transform="translate(289.005 389.499)" fill="#3588F9"/>
<path d="M6.21901 0L10.6923 3.81201L6.10991 17.4263L0 15.4658L6.21901 0Z" transform="translate(294.46 391.46)" fill="#5EA7FA"/>
<path d="M4.17966 1.77973C4.39787 2.97779 3.52505 3.958 2.434 4.17583C1.23383 4.39366 0.251872 3.52237 0.0336613 2.43322C-0.18455 1.23516 0.688301 0.254918 1.77936 0.0370885C2.97952 -0.180741 4.07055 0.581668 4.17966 1.77973Z" transform="translate(338.068 392.294)" fill="#8CBDFF"/>
<path d="M4.17966 1.77971C4.39787 2.97777 3.52505 3.958 2.434 4.17583C1.23383 4.39366 0.251872 3.52233 0.0336613 2.43319C-0.18455 1.23513 0.688301 0.254918 1.77936 0.0370891C2.97952 -0.18074 3.96145 0.581652 4.17966 1.77971Z" transform="translate(358.798 385.868)" fill="#8CBDFF"/>
<path d="M21.6026 2.582C24.2211 3.45332 27.3851 5.19595 28.258 8.02773C30.4401 15.325 22.4754 16.0874 17.893 14.8893C12.2195 13.3645 6.87332 10.206 2.18179 6.82966C0.763418 5.84943 -0.873165 8.02772 0.545207 9.00795C6.76422 13.4734 17.0201 20.2262 25.0939 17.939C29.4582 16.7409 32.2949 11.6219 30.9856 7.26531C29.8946 3.67113 26.0759 1.16611 22.6936 0.0769619C20.9479 -0.467611 19.966 2.03743 21.6026 2.582Z" transform="translate(338.757 386.591)" fill="#D9E6FF"/>
<path d="M116.587 23.0551C116.587 23.0551 127.279 31.6593 124.006 80.453C120.733 129.247 123.46 119.88 121.824 128.375C120.187 136.871 116.587 137.633 116.15 142.317C115.714 147 110.477 155.604 104.367 161.921C98.257 168.238 72.9446 187.189 68.3621 190.021C63.7797 192.853 56.9061 196.774 55.0513 198.952C53.1965 201.13 46.8684 198.734 46.8684 198.734C46.8684 198.734 43.7043 196.12 43.377 191.328C43.0497 186.536 39.6674 185.229 38.5763 183.159C37.4853 181.09 38.0308 177.714 36.5033 176.08C34.9759 174.446 27.6658 171.288 26.4656 168.456C25.2655 165.624 24.2835 164.644 22.6469 164.099C21.0104 163.555 18.9373 163.01 17.8463 160.832C16.7552 158.654 16.2097 159.852 13.9185 159.634C11.6273 159.416 10.6453 159.525 8.89965 157.347C7.15396 155.168 6.60844 156.04 4.64454 156.149C2.68064 156.258 1.9169 161.05 1.9169 161.05C1.9169 161.05 0.607632 159.525 0.17121 158.218C-0.265212 156.911 0.171213 155.386 1.04406 154.733C1.9169 154.079 2.24421 154.297 3.11705 153.208C3.9899 152.119 7.48128 150.049 10.318 150.158C13.1548 150.267 16.7552 148.416 18.61 145.802C20.4648 143.188 22.3196 142.534 24.6108 140.574C26.902 138.613 27.4476 134.584 30.5025 133.494C33.5575 132.405 35.5214 128.593 38.5763 127.504C41.6313 126.415 44.2498 123.148 44.9045 120.534C45.5591 117.92 49.9233 114.108 53.6329 113.127C53.6329 113.127 53.5238 91.4534 55.1604 88.5127C56.7969 85.572 59.6337 82.9581 59.7428 80.9976C59.8519 79.0371 56.5787 72.5023 56.5787 65.5318C56.5787 58.5612 57.7789 55.9473 56.4696 53.5512C55.1604 51.155 52.2145 50.2837 52.1054 44.6202C51.9963 38.9566 47.9594 29.9167 63.1251 12.3814C79.0545 -6.13403 99.3481 0.509775 106.113 4.53961C112.877 8.56945 116.587 23.0551 116.587 23.0551Z" transform="translate(204.822 561.728)" fill="white"/>
<path d="M17.8463 114.578C16.7553 112.4 16.2097 113.598 13.9185 113.38C11.6273 113.162 10.6453 113.271 8.89965 111.093C7.15396 108.915 6.60844 109.786 4.64454 109.895C2.68064 110.004 1.9169 114.796 1.9169 114.796C1.9169 114.796 0.607632 113.271 0.17121 111.964C-0.265212 110.657 0.171213 109.132 1.04406 108.479C1.9169 107.825 2.24423 108.043 3.11707 106.954C3.98991 105.865 7.48128 103.796 10.318 103.905C13.1548 104.013 16.7553 102.162 18.61 99.5479C20.4648 96.934 22.3196 96.2804 24.6108 94.32C26.9021 92.3595 27.4476 88.3297 30.5025 87.2405C33.5575 86.1514 35.5214 82.3394 38.5764 81.2502C41.6313 80.1611 44.2498 76.8937 44.9045 74.2797C45.5591 71.6658 49.9233 67.8538 53.6329 66.8736C53.6329 66.8736 53.5238 45.1995 55.1604 42.2588C56.797 39.3181 59.6337 36.7042 59.7428 34.7437C59.8519 32.7833 56.5788 26.2484 56.5788 19.2779C56.5788 12.3074 57.7789 9.69341 56.4696 7.29729C55.2695 5.119 52.8692 4.24767 52.2145 0C52.2145 0 54.724 6.75272 59.7428 6.75272C64.7617 6.75272 65.7436 13.2876 62.4704 16.555C59.1973 19.8225 62.2522 20.367 64.3252 28.3178C66.3982 36.1596 63.1251 37.1399 61.7067 43.0212C60.2883 49.0116 63.1251 49.665 62.3613 53.6949C61.7067 57.6158 57.5607 56.9623 58.87 60.9921C60.1792 65.022 61.5976 73.2995 57.9971 73.2995C54.3966 73.2995 47.3048 76.2402 47.3048 78.6363C47.3048 81.0324 43.1588 87.8941 39.4492 87.8941C35.7396 87.8941 32.3573 92.4685 29.6297 99.0034C26.9021 105.538 23.5198 101.944 20.683 104.776C18.0645 107.499 17.8463 114.578 17.8463 114.578Z" transform="translate(204.713 607.982)" fill="url(#paint1_linear)"/>
<path d="M0.64252 7.6917L0.424312 5.94902C0.424312 5.94902 -0.775855 2.13701 0.860727 0.503295C2.49731 -1.13042 26.3914 0.285465 38.9385 19.0188C51.4857 37.7521 46.7941 44.0691 46.7941 44.0691L41.3389 46.1385C41.3389 46.1385 35.3381 48.099 29.8828 42.98C24.4275 37.861 0.64252 7.6917 0.64252 7.6917Z" transform="translate(206.206 716.72)" fill="#B7D7FE"/>
<path d="M0 43.0581C0 43.0581 3.9278 39.1372 10.365 37.8302C16.8022 36.5232 19.7481 33.3647 21.3847 31.8399C23.0213 30.3151 24.2214 29.8794 26.6217 28.0279C29.0221 26.1763 39.4962 17.1364 42.5511 12.3442C45.6061 7.55192 48.2246 1.67059 52.8071 0.145786C57.3895 -1.37902 72.3369 9.29456 78.7742 21.0573C85.2114 32.8201 83.6839 32.6023 83.6839 35.2162L85.3205 38.2659C85.3205 38.2659 89.9029 36.0876 91.8668 35.1073C91.8668 35.1073 93.1761 37.3945 92.5215 39.0282C92.5215 39.0282 72.6643 47.7414 66.1179 52.2069C59.5716 56.6724 41.4601 68.7619 40.4781 76.0592C39.4962 83.3564 42.0056 90.1092 43.0967 92.9409C44.1877 95.7727 48.0064 104.922 46.3698 111.021C44.7332 117.12 43.9695 121.694 38.7324 124.091C38.7324 124.091 33.7136 123.873 27.1673 111.674C20.6209 99.4758 18.3297 90.5449 16.2567 82.9208C14.1837 75.2968 13.6382 73.1185 8.83755 67.5639C4.03691 62.0092 5.12796 61.2468 5.56439 58.6329C6.00081 56.0189 9.38308 51.1178 9.38308 51.1178L0 43.0581Z" transform="translate(155.023 723.721)" fill="white"/>
<path d="M9.27397 51.2499L0 43.0813C0 43.0813 3.9278 39.1604 10.365 37.8534C16.8022 36.5464 19.7481 33.3879 21.3847 31.8631C23.0213 30.3383 24.2214 29.9026 26.6217 28.0511C29.0221 26.1995 39.4962 17.1596 42.5511 12.3674C45.6061 7.57513 48.2246 1.6938 52.8071 0.168996C55.4256 -0.811235 61.7537 2.56509 67.8636 7.9019C67.8636 7.9019 52.3706 11.3872 49.643 19.7736C46.9154 28.2689 20.1845 37.1999 17.4569 44.2794C14.7292 51.3588 9.27397 51.2499 9.27397 51.2499Z" transform="translate(155.023 723.698)" fill="#D9E6FF"/>
<path d="M0.0913973 0C0.0913973 0 -0.890555 8.05968 3.58277 15.248C8.05609 22.4364 13.8387 26.793 15.0388 31.6941C16.239 36.5953 14.8206 44.546 19.8395 52.17C24.8583 59.7941 34.6778 72.4281 52.462 71.2301L17.3301 9.69336L10.5655 2.17829L0.0913973 0Z" transform="translate(140.53 776.69)" fill="#8CBDFF"/>
<path d="M0 9.91126L3.81869 3.15855L14.511 0C14.511 0 22.2575 3.70311 24.3305 6.75272C26.4035 9.80232 22.6939 13.5054 22.2575 15.357C21.8211 17.2085 20.6209 18.8422 22.803 21.4562C24.9852 24.0701 28.8039 28.8624 29.7858 31.1496C30.7677 33.4368 39.4962 52.8236 39.4962 52.8236C39.4962 52.8236 42.6602 50.2096 46.0425 51.8434C49.4248 53.4771 51.4978 61.6456 53.0253 62.0813C54.5527 62.517 59.5716 55.1108 59.5716 55.1108C59.5716 55.1108 62.9539 63.715 60.5535 71.0123C58.1532 78.3096 55.2074 80.2701 53.1344 81.0325C51.0614 81.7949 42.2238 74.7154 31.9679 55.1108C21.712 35.5062 21.6029 30.9317 18.8753 26.6841C16.1476 22.4364 15.0566 17.5353 9.49217 13.5054L0 9.91126Z" transform="translate(140.621 766.779)" fill="#B7D7FE"/>
<path d="M23.3486 168.709C23.3486 168.709 28.6947 170.778 30.5495 170.778C32.4043 170.778 32.9499 169.035 34.6955 169.253C36.4412 169.471 43.5331 167.075 46.0425 165.441C48.5519 163.807 51.3887 162.174 53.0253 161.52C54.6618 160.867 59.3534 158.797 60.6626 157.817C61.9719 156.837 63.3903 154.332 66.1179 153.243C68.8456 152.154 72.7734 149.431 74.9555 146.926C77.1376 144.421 79.3197 138.648 82.0473 136.47C84.775 134.292 87.2844 133.203 88.3754 131.024C89.4665 128.846 90.1211 126.232 91.7577 125.47C93.3943 124.707 95.4673 123.073 95.9037 121.766C96.3401 120.46 97.4312 121.875 100.923 117.846C104.414 113.816 104.632 109.241 107.578 105.647C110.524 102.053 110.742 102.162 111.942 98.4587C113.142 94.7557 115.324 94.7557 115.87 92.7952C116.416 90.8348 119.361 87.8941 119.689 84.7355C120.016 81.577 125.144 80.1611 125.69 77.9828C126.235 75.8045 135.073 65.8933 135.073 65.8933C135.073 65.8933 108.342 60.8832 107.251 36.3775C106.269 14.05 114.343 7.07944 114.779 6.97052L94.7035 0C94.7035 0 92.4123 7.07945 91.9759 9.91123C91.5395 12.743 89.6847 14.9213 88.0481 15.9015C86.4115 16.8818 82.811 24.6147 82.1564 27.2286C81.5018 29.8426 72.5551 38.1201 69.9366 45.5263C67.3181 52.9325 69.282 54.4573 66.227 56.4178C63.1721 58.3782 60.3353 59.903 57.3895 63.1704C54.4436 66.4379 49.8612 70.2499 47.7882 72.4282C45.7152 74.6065 42.3329 75.6956 41.2419 78.7452C40.1508 81.7949 40.5872 82.6662 39.6053 85.0623C38.6233 87.4584 37.5323 92.4685 38.296 94.2111C38.296 94.2111 37.6414 95.3002 37.7505 96.3894C37.8596 97.4785 33.6045 98.4588 33.4954 99.6568C33.3863 100.855 31.9679 102.924 30.004 103.142C28.0401 103.36 22.9121 102.598 21.3847 104.667C19.8572 106.736 20.0754 107.717 18.9844 108.043C17.8933 108.37 17.3478 109.677 17.3478 110.439C17.3478 111.202 13.6382 112.4 11.6743 114.142C9.71039 115.885 10.1468 118.608 7.20096 119.153C4.25511 119.697 1.74569 120.895 0 123.509L23.3486 168.709Z" transform="translate(122.182 544.158)" fill="white"/>
<path d="M9.71038 142.242L0 123.509C1.74569 120.895 4.25511 119.697 7.20096 119.153C10.1468 118.608 9.60128 115.885 11.6743 114.142C13.7473 112.4 17.3478 111.311 17.3478 110.439C17.3478 109.568 17.8933 108.37 18.9843 108.043C20.0754 107.716 19.9663 106.736 21.3847 104.667C22.803 102.598 27.931 103.469 30.004 103.142C32.077 102.815 33.3863 100.855 33.4954 99.6568C33.6045 98.4588 37.8596 97.4785 37.7505 96.3894C37.6414 95.3002 38.296 94.2111 38.296 94.2111C37.6414 92.4685 38.7324 87.4584 39.6053 85.0623C40.4781 82.6662 40.1508 81.7948 41.2419 78.7452C42.3329 75.6956 45.7152 74.6065 47.7882 72.4282C49.8612 70.2499 54.3345 66.4379 57.3895 63.1704C60.4444 59.903 63.2812 58.2693 66.227 56.4177C69.1729 54.5662 67.209 52.9325 69.9366 45.5263C72.6642 38.1201 81.5018 29.8426 82.1564 27.2286C82.8111 24.6147 86.4115 16.8818 88.0481 15.9015C89.6847 14.9213 91.5395 12.743 91.9759 9.91123C92.4123 7.07945 94.7036 0 94.7036 0L103.105 2.94067C103.105 2.94067 104.85 13.0697 99.9406 17.862C95.14 22.6542 87.939 23.4166 87.939 30.1693C87.939 37.0309 87.6117 49.5561 82.4837 51.2988C77.3558 53.0414 74.0826 64.0417 74.0826 68.834C74.0826 73.6262 66.8817 73.0817 62.1901 77.765C60.4444 79.5076 61.6446 86.0425 59.2443 90.0723C56.8439 93.9932 52.4797 91.3793 51.6069 93.4487C49.5339 98.4587 50.0794 103.904 46.588 104.885C38.4051 107.063 33.4954 108.697 29.1312 113.053C24.7669 117.41 25.5307 120.46 22.5848 123.4C19.8572 126.668 9.71038 135.163 9.71038 142.242Z" transform="translate(121.855 543.831)" fill="url(#paint2_linear)"/>
<path d="M0.224719 13.3154C0.224719 13.3154 -1.30275 5.47352 3.607 1.22585C8.51674 -3.02181 24.7735 4.05766 34.5929 17.9987C44.4124 31.9398 41.1393 40.8708 38.0843 43.4848C35.0294 46.0987 29.9014 44.4649 29.9014 44.4649L0.224719 13.3154Z" transform="translate(118.248 666.223)" fill="#B7D7FE"/>
<path d="M0.763739 104.467C0.763739 104.467 6.65543 103.269 10.365 100.982C13.9655 98.5858 16.1476 95.3184 16.4749 93.0312C16.8022 90.635 19.5299 81.4862 21.1665 78.6544C22.803 75.8226 24.7669 75.2781 26.0762 74.2978C27.3855 73.3176 32.8408 67.654 33.9318 65.5847C35.0229 63.5153 43.6422 56.6537 52.0433 50.7723C60.4444 44.8909 77.0285 38.2472 82.9202 33.0193C88.8119 27.7914 80.9563 14.6127 74.8464 8.9491C68.7365 3.28555 61.6446 0.344905 57.3895 0.0181618C53.1344 -0.308582 50.6249 3.83012 48.4428 7.85996C46.2607 11.8898 31.8588 27.1379 26.4035 32.8014C20.9483 38.465 0 57.525 0 57.525L0.763739 104.467Z" transform="translate(67.3022 676.471)" fill="white"/>
<path d="M22.4757 73.2088L0 57.525C0 57.525 20.9483 38.574 26.4035 32.8015C31.8588 27.029 46.2607 11.8899 48.4428 7.86002C50.6249 3.83018 53.1344 -0.308582 57.3895 0.0181616C61.6446 0.344905 68.7365 3.39453 74.8464 8.94917C74.8464 8.94917 65.4633 10.8007 52.6979 19.6228C22.4757 40.7522 22.4757 73.2088 22.4757 73.2088Z" transform="translate(67.084 676.362)" fill="#D9E6FF"/>
<path d="M19.9199 7.91508C19.9199 7.91508 21.3383 1.05345 27.8846 0.073216C34.4309 -0.7981 43.9231 6.28135 45.5597 12.0538C47.1963 17.8263 44.2504 20.767 41.9592 21.8561C39.5589 22.9453 35.6311 24.9057 34.9765 26.4306C34.2127 27.9554 32.3579 31.0049 31.7033 36.015C31.0487 41.0251 30.6122 45.9263 27.5573 47.8867C24.5023 49.8472 22.102 49.5204 20.029 47.9956C17.956 46.4708 3.99051 32.8565 2.35393 31.005C0.717347 29.1534 -0.264602 25.9949 0.0627144 22.2918C0.280925 18.9155 1.59019 16.6282 6.39083 13.2519C12.1734 9.22201 14.6828 11.1825 19.9199 7.91508Z" transform="translate(44 731.527)" fill="#8CBDFF"/>
<path d="M26.6217 6.36417C26.6217 6.36417 22.803 3.85911 21.712 2.22539C20.6209 0.591676 18.2206 0.0471028 17.0205 0.0471028C15.7112 0.0471028 14.511 -0.497443 13.7473 2.11651C13.6382 2.76999 12.8744 3.6413 12.8744 3.6413C12.8744 3.6413 11.0197 4.62151 9.60129 4.94826C8.29202 5.275 6.54633 7.56223 6.0008 10.2851C6.0008 10.2851 3.05496 11.1564 2.61853 12.6812C2.18211 14.206 2.40033 18.8893 2.40033 18.8893C2.40033 18.8893 0 20.0874 0 22.0479C0.109105 24.0083 0.218216 28.8006 1.30927 29.563C2.29122 30.4343 2.50943 31.5234 4.14601 30.8699C5.78259 30.1075 6.98276 28.4738 7.20097 27.4936C7.41918 26.5134 7.41918 25.642 7.41918 25.642C7.41918 25.642 12.1107 28.256 17.4569 30.4343L26.6217 6.36417Z" transform="translate(156.114 433.998)" fill="#D9E6FF"/>
<path d="M0.0738281 43.4569C0.401145 38.8825 1.92862 34.9616 4.65625 31.6941C7.493 28.3178 11.639 25.9216 14.8031 25.9216C17.9671 25.9216 18.5127 26.2484 19.2764 25.486C20.0401 24.6147 22.7678 22.4364 24.9499 22.1096C27.132 21.7829 27.4593 21.7829 28.3321 21.2383C29.205 20.8027 33.0237 19.06 35.3149 19.2779C37.6061 19.4957 58.6635 3.70309 76.5568 0L47.9711 61.8635C47.9711 61.8635 38.0425 64.4774 34.333 63.2794C30.6234 62.0813 26.8047 63.9328 25.059 63.2794C23.3133 62.6259 20.3675 61.3189 19.3855 61.4278C18.5127 61.5367 12.8392 62.7348 9.4569 61.21C6.29284 59.7941 -0.799016 55.1108 0.0738281 43.4569Z" transform="translate(173.17 413.134)" fill="white"/>
<path d="M59.6627 0L48.2067 24.7236C48.2067 24.7236 38.2781 27.3376 34.5685 26.1395C30.8589 24.9414 27.0402 26.793 25.2945 26.1395C23.5488 25.486 20.603 24.179 19.621 24.2879C18.7482 24.3968 13.0747 25.5949 9.69243 24.0701C6.31016 22.5453 -0.890794 17.862 0.0911557 6.20811C0.0911557 6.20811 1.94594 17.6442 9.69243 18.9511C17.4389 20.2581 13.2929 16.6639 19.0755 16.6639C24.8581 16.6639 21.0394 20.9116 27.0402 20.9116C33.041 20.9116 35.5504 16.6639 40.0238 16.6639C44.4971 16.8817 59.6627 0 59.6627 0Z" transform="translate(173.043 450.274)" fill="#D9E6FF"/>
<path d="M77.6367 165.923C77.6367 165.923 68.1445 162.329 70.3267 142.507C72.5088 122.684 84.1831 91.5347 91.384 72.8014C98.6941 54.0681 113.205 26.7305 130.444 19.76C130.444 19.76 74.2545 2.5515 70.1084 1.24453C65.9624 -0.0624487 51.8878 -2.24073 45.5597 6.36352C39.2316 14.8589 24.8297 40.9983 18.6107 57.3355C12.3917 73.6727 -1.02832 112.337 0.0627308 125.625C1.15379 138.913 6.28175 142.289 10.7551 143.814C15.4466 145.23 77.6367 165.923 77.6367 165.923Z" transform="translate(208.531 400.889)" fill="#5EA7FA"/>
<path d="M114.623 14.8884C123.57 17.6112 130.226 19.6806 130.226 19.6806C112.987 26.5422 98.3668 53.9887 91.1658 72.722C83.8557 91.4553 72.2906 122.605 70.1084 142.427C67.9263 162.25 77.4185 165.844 77.4185 165.844C77.4185 165.844 70.1084 163.448 60.289 160.18C60.289 160.18 57.1249 157.131 54.3972 145.368C51.6696 133.605 59.307 110.189 62.0346 102.673C64.7623 95.2673 58.5433 92.8712 56.2521 91.9998C53.8517 91.1285 34.431 85.1382 29.1939 83.5045C23.9568 81.8708 22.3202 84.0491 20.2472 87.5343C18.2833 91.0196 12.0643 103.872 9.88222 115.852C7.70011 127.833 16.6468 145.695 16.6468 145.695C13.5918 144.714 11.4097 143.952 10.7551 143.734C6.17262 142.318 1.15379 138.833 0.0627308 125.546C-1.02832 112.258 12.3917 73.5933 18.6107 57.2561C24.8297 40.9189 39.1225 14.7794 45.5597 6.28408C51.8878 -2.21125 65.9624 -0.0329434 70.1084 1.16512C70.654 1.27403 71.9632 1.70969 73.818 2.25426C73.818 2.25426 63.0166 7.26433 60.7254 10.4229C58.325 13.4725 56.3611 16.9577 60.7254 18.8093C65.0896 20.6608 88.2199 27.3046 91.0567 28.3938C93.8934 29.4829 97.9303 30.8988 101.967 25.4531C106.004 20.0073 114.623 14.8884 114.623 14.8884Z" transform="translate(208.858 401.077)" fill="#8CBDFF"/>
<path d="M7.63591 146.163C7.63591 146.163 -1.85627 142.569 0.325844 122.747C2.50795 102.924 14.1822 71.7747 21.3832 53.0414C28.6933 34.3081 43.2043 6.97053 60.443 0L68.9532 12.3073L17.1281 141.044L7.63591 146.163Z" transform="translate(278.532 420.649)" fill="#4189FF"/>
<path d="M0 141.044L9.27397 134.836L58.8079 16.9907L43.3149 0L51.8251 12.3073L0 141.044Z" transform="translate(295.769 420.758)" fill="#3588F9"/>
<path d="M19.3877 39.0579C30.0953 39.0579 38.7754 30.3145 38.7754 19.5289C38.7754 8.7434 30.0953 0 19.3877 0C8.68018 0 0 8.7434 0 19.5289C0 30.3145 8.68018 39.0579 19.3877 39.0579Z" transform="matrix(0.165582 -0.986153 0.986247 0.165019 243.765 473.147)" fill="#5EA7FA"/>
<path d="M30.5486 17.8612C29.1303 26.1387 21.2747 31.8023 12.8736 30.3864C4.47244 28.9705 -1.20104 21.1287 0.217335 12.7422C1.63571 4.46474 9.4913 -1.19881 17.8924 0.217074C26.2935 1.63296 31.967 9.47479 30.5486 17.8612Z" transform="translate(249.073 440.799)" fill="#3588F9"/>
<path d="M4.58244 9.14882C7.11325 9.14882 9.16489 7.1008 9.16489 4.57442C9.16489 2.04805 7.11325 0 4.58244 0C2.05164 0 0 2.04805 0 4.57442C0 7.1008 2.05164 9.14882 4.58244 9.14882Z" transform="translate(329.701 409.757)" fill="#D9E6FF"/>
<path d="M20.7846 62.9694C17.5114 62.0981 14.1292 60.3555 11.6197 57.9593C5.40073 51.969 8.783 43.5826 12.6017 37.2656C17.075 29.8594 22.9667 22.671 28.7493 16.1362C32.3498 12.2152 38.3506 8.62107 43.0421 8.18541C48.2792 7.74975 48.2792 -0.418839 43.0421 0.0168191C35.732 0.670307 28.5311 4.3734 23.5122 9.71021C15.984 17.661 7.91015 27.3544 3.21861 37.2656C-0.709186 45.4342 -1.80024 54.6919 4.30967 62.0981C7.80104 66.3458 13.1472 69.3954 18.4934 70.8113C23.7304 72.2272 25.9126 64.2764 20.7846 62.9694Z" transform="translate(289.495 411.047)" fill="white"/>
<path d="M20.8889 12.2141C19.9273 17.9734 14.5702 21.8129 8.80103 20.853C3.03185 19.8931 -0.814278 14.5452 0.147252 8.78592C1.10878 3.02663 6.46589 -0.812882 12.2351 0.147C17.8669 1.24401 21.713 6.59191 20.8889 12.2141Z" transform="translate(249 441)" fill="#D9E6FF"/>
<path d="M118.042 453.766C122.301 454.505 118.697 453.618 117.496 453.026C119.898 454.209 116.95 452.583 116.295 452.139C115.313 451.4 113.457 449.774 113.129 449.33C104.285 440.017 98.6073 425.824 93.694 412.519C86.2693 392.413 81.5744 369.499 66.2884 357.82C53.4045 347.915 38.6644 343.923 26.654 331.505C21.5223 326.183 17.0457 319.234 16.2814 310.512C15.5171 301.346 18.2467 291.737 21.5223 286.563C31.0214 271.483 46.9625 263.648 60.3924 256.256C78.1896 246.499 96.5328 237.629 112.911 224.028C125.904 213.236 140.644 197.122 144.247 175.981C147.195 158.093 141.08 142.422 133.001 128.821C122.519 111.081 109.526 96.4449 98.8257 78.8523C86.9244 59.3379 78.7355 36.4233 78.2988 10.6997C78.0804 -3.49256 61.7026 -3.6404 61.921 10.6997C62.2485 36.4233 68.7996 60.5206 79.7182 81.3656C89.2173 99.5494 101.119 114.777 112.474 130.891C117.169 137.543 121.318 143.605 124.593 150.553C125.249 152.031 125.904 153.51 126.559 155.136C126.886 156.023 127.214 156.91 127.541 157.945C126.996 156.171 127.432 157.649 127.541 158.093C127.978 159.867 128.415 161.789 128.633 163.71C129.07 166.667 128.524 162.232 128.633 164.006C128.633 165.189 128.743 166.224 128.743 167.259C128.743 170.067 129.07 167.406 128.524 170.067C128.306 171.102 127.214 175.537 127.541 174.355C126.231 178.346 124.266 182.19 122.191 185.442C116.405 194.608 109.198 201.409 101.555 207.47C85.2867 220.184 67.4894 228.463 50.2381 238.072C34.9521 246.795 17.81 256.256 7.54656 274.883C-3.15363 294.398 -2.38933 321.6 9.29353 339.784C14.7528 348.358 22.1774 354.715 29.602 359.742C32.9868 361.959 36.3715 364.029 39.8655 366.099C43.0319 367.873 48.382 370.829 50.3473 372.012C53.8412 374.082 57.226 376.299 60.5016 379.108C62.9036 381.178 64.869 383.987 66.2884 387.239C72.2936 400.249 76.1151 415.18 81.356 428.633C88.6714 447.556 100.682 472.984 117.933 475.941C122.301 476.68 126.122 470.323 126.122 464.853C126.231 458.201 122.519 454.505 118.042 453.766Z" transform="translate(140 -14)" fill="white"/>
<path d="M0 0C0 0 1.30927 7.84184 4.90975 10.7825C8.51023 13.7232 10.5833 9.69341 10.1468 7.29729C9.71041 4.90117 9.71041 2.61394 9.71041 2.61394L5.12797 0.108921H0V0Z" transform="translate(438.261 574.109)" fill="#B7D7FE"/>
<path d="M0 20.476C0 20.476 25.3125 22.5453 31.5315 27.0108C31.5315 27.0108 34.3682 32.5655 35.0229 35.9418C35.6775 39.4271 37.0959 39.3182 38.296 38.8825C39.4962 38.4468 41.351 37.3577 40.9146 32.1298C40.5872 26.9019 40.6964 27.8821 40.6964 27.8821C40.6964 27.8821 41.351 34.9616 43.2058 36.3775C45.1697 37.7933 48.2246 36.8131 48.661 29.6248C48.661 29.6248 51.9342 33.6546 53.1344 33.6546C54.3345 33.6546 56.1893 32.2387 55.5347 27.8821C54.8801 23.5256 52.0433 19.2779 52.0433 19.2779C52.0433 19.2779 57.7168 20.5849 58.917 20.367C60.2262 20.1492 60.99 17.9709 59.6807 16.0105C58.3714 14.05 48.661 8.49533 46.3698 7.5151C44.0786 6.53487 40.2599 6.6438 37.8596 5.66357C35.4593 4.79225 24.2214 3.26745 21.8211 3.48528C19.4208 3.70311 13.42 0 13.42 0C13.42 0 5.8917 8.49536 0 20.476Z" transform="translate(417.64 551.237)" fill="#D9E6FF"/>
<path d="M16.8721 0.865694C30.6194 -3.05523 41.0935 6.96488 45.4577 18.4009C49.822 29.8369 44.4758 38.4412 46.767 40.8373C49.1673 43.2334 48.9491 51.1842 49.1673 56.521C49.2764 59.8974 50.8039 62.1846 52.0041 62.8381C53.2042 63.4916 54.8408 65.1253 55.1681 66.9768C55.4954 68.8284 55.3863 72.4226 58.8777 74.383C62.3691 76.3435 63.2419 77.1059 63.8966 79.6109C64.5512 82.1159 64.333 84.0764 66.5151 85.9279C68.6972 87.7795 70.4429 87.8884 71.3157 89.6311C72.1886 91.3737 71.7521 92.7896 73.3887 93.4431C75.0253 94.0965 75.5708 94.4233 76.5528 95.6214C77.5347 96.8194 76.6619 97.7996 77.9712 98.2353C79.2804 98.671 81.899 99.6512 82.5536 101.612C83.2082 103.572 81.6807 105.097 84.2993 106.622C86.9178 108.146 88.2271 106.077 91.5002 109.453C94.7734 112.83 95.9735 116.751 95.2098 121.216C94.4461 125.682 90.191 132.434 85.6085 136.682C81.0261 140.93 77.7529 141.583 72.4068 141.257C67.0606 140.93 65.2058 137.88 64.7694 136.791C64.333 135.702 63.5692 134.286 61.8236 132.87C60.0779 131.454 58.3322 130.365 57.5684 129.385C56.8047 128.405 54.7317 127.098 52.8769 125.9C51.0221 124.702 44.0393 120.018 39.6751 115.553C35.3109 111.087 33.6743 108.038 31.3831 105.75C29.0919 103.463 25.055 99.869 22.2182 95.9481C19.3815 92.0272 14.5809 88.9775 13.3807 86.0369C12.1805 83.0962 12.5079 77.5415 10.544 74.0563C8.58008 70.571 3.1248 60.7687 1.59732 49.6594C0.0698423 38.5501 -1.56673 27.5498 2.9066 14.3711C6.50708 4.45987 13.0534 1.95484 16.8721 0.865694Z" transform="translate(335.959 431.982)" fill="white"/>
<path d="M85.6086 135.816C81.0261 140.064 77.753 140.718 72.4068 140.391C67.0606 140.064 65.2058 137.015 64.7694 135.925C64.333 134.836 63.5692 133.42 61.8235 132.004C60.0779 130.589 58.3322 129.499 57.5684 128.519C56.8047 127.539 54.7317 126.232 52.8769 125.034C51.0221 123.836 44.0394 119.153 39.6751 114.687C35.3109 110.222 33.6743 107.172 31.3831 104.885C29.0919 102.598 25.055 99.0033 22.2183 95.0824C19.3815 91.1615 14.5809 88.1119 13.3807 85.1712C12.1806 82.2305 12.5079 76.6759 10.544 73.1906C8.58007 69.7053 3.12481 59.903 1.59734 48.7937C0.0698596 37.6844 -1.56674 26.6841 2.90658 13.5054C6.28885 3.70309 12.8352 1.08915 16.6539 0C16.6539 0 7.3799 9.6934 8.79827 17.5353C10.2166 25.3771 15.3446 32.0209 12.1805 40.4073C9.01649 48.7937 11.3077 58.3782 14.0354 61.1011C16.763 63.8239 19.5997 72.3193 19.5997 78.0918C19.5997 83.8642 23.0911 85.2801 27.6735 89.8545C32.256 94.4289 31.4922 99.5479 35.7473 103.904C40.1116 108.261 45.8941 108.37 51.5676 114.034C57.2411 119.697 54.4044 124.816 59.9688 126.45C65.5331 128.084 68.0426 126.232 71.7521 129.935C75.3526 133.747 85.6086 135.816 85.6086 135.816Z" transform="translate(336.177 432.629)" fill="url(#paint3_linear)"/>
</g>
<defs>
<filter id="filter0_d" x="0" y="-56" width="522" height="950" filterUnits="userSpaceOnUse" color-interpolation-filters="sRGB">
<feFlood flood-opacity="0" result="BackgroundImageFix"/>
<feColorMatrix in="SourceAlpha" type="matrix" values="0 0 0 0 0 0 0 0 0 0 0 0 0 0 0 0 0 0 255 0"/>
<feOffset dy="2"/>
<feGaussianBlur stdDeviation="22"/>
<feColorMatrix type="matrix" values="0 0 0 0 0.0901961 0 0 0 0 0.501961 0 0 0 0 0.878431 0 0 0 0.2 0"/>
<feBlend mode="normal" in2="BackgroundImageFix" result="effect1_dropShadow"/>
<feBlend mode="normal" in="SourceGraphic" in2="effect1_dropShadow" result="shape"/>
</filter>
<linearGradient id="paint0_linear" x2="1" gradientUnits="userSpaceOnUse" gradientTransform="matrix(-20.0405 -29.4746 11.5105 -15.9558 46.3253 42.0532)">
<stop stop-color="white" stop-opacity="0.56"/>
<stop offset="1" stop-color="white" stop-opacity="0"/>
</linearGradient>
<linearGradient id="paint1_linear" x2="1" gradientUnits="userSpaceOnUse" gradientTransform="matrix(38 7.5 -4.24633 21.5147 32.4102 43.2608)">
<stop stop-color="#D9E6FF"/>
<stop offset="1" stop-color="#D9E6FF" stop-opacity="0"/>
</linearGradient>
<linearGradient id="paint2_linear" x2="1" gradientUnits="userSpaceOnUse" gradientTransform="matrix(83.5 -21 15.2664 60.7021 25.5119 44.8178)">
<stop stop-color="#D9E6FF"/>
<stop offset="1" stop-color="#D9E6FF" stop-opacity="0"/>
</linearGradient>
<linearGradient id="paint3_linear" x2="1" gradientUnits="userSpaceOnUse" gradientTransform="matrix(67.5 -52 31.6926 41.1394 -23.0237 88.8009)">
<stop stop-color="#D9E6FF"/>
<stop offset="0.97348" stop-color="#D9E6FF" stop-opacity="0"/>
</linearGradient>
</defs>
</svg>
