<svg width="1440" height="743" viewBox="0 0 1440 743" fill="none" xmlns="http://www.w3.org/2000/svg">
<path fill-rule="evenodd" clip-rule="evenodd" d="M0 0H1614V1000H0V0Z" transform="translate(-169 -257)" fill="url(#paint0_linear)"/>
<path opacity="0.4" fill-rule="evenodd" clip-rule="evenodd" d="M1394.49 953.665C1394.49 953.665 1657.28 903.258 1239.77 1286.78C1106.08 1409.59 965.456 1331.9 965.456 1331.9L0 0L1394.49 953.665Z" transform="translate(-91 -658)" fill="url(#paint1_radial)"/>
<mask id="mask0" mask-type="alpha" maskUnits="userSpaceOnUse" x="-4" y="-11" width="1450" height="753">
<rect width="1450" height="753" transform="translate(-4 -11)" fill="#C4C4C4"/>
</mask>
<g mask="url(#mask0)">
<path opacity="0.6" fill-rule="evenodd" clip-rule="evenodd" d="M1982.63 1260.43C1982.63 1260.43 2377.08 1184.79 1750.39 1760.25C1123.71 2335.7 0 0 0 0L1982.63 1260.43Z" transform="translate(1966 -569) scale(-1 1)" fill="url(#paint2_linear)" fill-opacity="0.948"/>
</g>
<rect width="19.5" height="19.5" transform="translate(76.5 638.5)" fill="white"/>
<rect width="19.5" height="19.5" transform="translate(173 321)" fill="white"/>
<rect x="1" y="1" width="17.5" height="17.5" transform="translate(57 619)" stroke="white" stroke-width="2"/>
<rect width="15" height="15" transform="translate(1360 190)" fill="white"/>
<rect x="1" y="1" width="13" height="13" transform="translate(1345 175)" stroke="white" stroke-width="2"/>
<rect x="1" y="1" width="17.5" height="17.5" transform="translate(-10 182)" stroke="white" stroke-width="2"/>
<rect x="1" y="1" width="17.5" height="17.5" transform="translate(1350 626)" stroke="white" stroke-width="2"/>
<rect width="15" height="15" transform="translate(1243 408)" fill="white"/>
<defs>
<linearGradient id="paint0_linear" x2="1" gradientUnits="userSpaceOnUse" gradientTransform="matrix(1238 -1310 575.516 1257.96 152.242 108.02)">
<stop offset="0.0362242" stop-color="#66A6FF"/>
<stop offset="1" stop-color="#6DFFD6"/>
</linearGradient>
<radialGradient id="paint1_radial" cx="0.5" cy="0.5" r="0.5" gradientUnits="userSpaceOnUse" gradientTransform="translate(1548.53 -1884.11) scale(2512.51 2287.46) rotate(70.9651)">
<stop stop-color="#66B1F9" stop-opacity="0.39"/>
<stop offset="0.461361" stop-color="#FEFEFE"/>
<stop offset="1" stop-color="#6ADEE6" stop-opacity="0.45"/>
</radialGradient>
<linearGradient id="paint2_linear" x2="1" gradientUnits="userSpaceOnUse" gradientTransform="translate(-272.256 183.659) scale(1820.65 1598.08) rotate(37.9559)">
<stop stop-color="#E1F0F5" stop-opacity="0.09"/>
<stop offset="0.576645" stop-color="#66A7FF"/>
<stop offset="1" stop-color="#69D2EC" stop-opacity="0.16"/>
</linearGradient>
</defs>
</svg>