<svg width="647" height="538" viewBox="0 0 647 538" fill="none" xmlns="http://www.w3.org/2000/svg">
<g filter="url(#filter0_d)">
<path fill-rule="evenodd" clip-rule="evenodd" d="M0 15C0 6.71575 6.71573 0 15 0H274.178C282.462 0 289.178 6.71573 289.178 15V274.178C289.178 282.462 282.462 289.178 274.178 289.178H15C6.71575 289.178 0 282.462 0 274.178V15Z" transform="translate(261.102 36.0916) scale(0.998725 1.00127) rotate(45)" fill="white"/>
</g>
<g filter="url(#filter1_d)">
<path fill-rule="evenodd" clip-rule="evenodd" d="M0 15C0 6.71575 6.71573 0 15 0H67.4046C75.6889 0 82.4046 6.71573 82.4046 15V67.4046C82.4046 75.6889 75.6889 82.4046 67.4046 82.4046H15C6.71575 82.4046 0 75.6889 0 67.4046V15Z" transform="translate(550.205 101) scale(0.998914 1.00109) rotate(45)" fill="white"/>
</g>
<g filter="url(#filter2_d)">
<path fill-rule="evenodd" clip-rule="evenodd" d="M0 15C0 6.71572 6.71573 0 15 0H31.8618C40.1461 0 46.8618 6.71573 46.8618 15V31.8618C46.8618 40.1461 40.1461 46.8618 31.8618 46.8618H15C6.71572 46.8618 0 40.1461 0 31.8618V15Z" transform="translate(575.101 244) scale(0.998914 1.00109) rotate(45)" fill="white"/>
</g>
<g filter="url(#filter3_d)">
<path fill-rule="evenodd" clip-rule="evenodd" d="M0 15C0 6.71572 6.71573 0 15 0H30.4001C38.6844 0 45.4001 6.71573 45.4001 15V30.4001C45.4001 38.6844 38.6844 45.4001 30.4001 45.4001H15C6.71572 45.4001 0 38.6844 0 30.4001V15Z" transform="translate(555.068 121) scale(0.998914 1.00109) rotate(45)" fill="#66ABFD"/>
</g>
<g filter="url(#filter4_d)">
<rect width="281.112" height="283.561" transform="translate(169.44 118.47) scale(1.00016 0.999844) rotate(-0.81778)" fill="#F2F8FF"/>
<path fill-rule="evenodd" clip-rule="evenodd" d="M314.793 0L0 1.46751e-06L0.000151419 354.775H314.794L314.793 0ZM294.068 20.7168L21.376 20.7168L21.376 293.272H294.068L294.068 20.7168Z" transform="translate(151.062 101.9) scale(1.00016 0.999844) rotate(-0.81778)" fill="white"/>
</g>
<g filter="url(#filter5_d)">
<rect width="281.131" height="283.355" transform="matrix(0.966011 -0.258502 0.259136 0.965841 149.188 160.308)" fill="#F2F8FF"/>
<rect width="100.412" height="7.49879" transform="matrix(0.966011 -0.258502 0.259136 0.965841 314.729 141.465)" fill="#E3EDF8"/>
<rect width="122.891" height="72.8594" transform="matrix(0.966011 -0.258502 0.259136 0.965841 171.285 180.768)" fill="#66ABFD"/>
<rect width="100.574" height="7.49879" transform="matrix(0.966011 -0.258502 0.259136 0.965841 317.84 153.971)" fill="#E3EDF8"/>
<rect width="99.9324" height="7.49879" transform="matrix(0.966011 -0.258502 0.259136 0.965841 322.062 166.643)" fill="#E3EDF8"/>
<rect width="99.8382" height="7.49879" transform="matrix(0.966011 -0.258502 0.259136 0.965841 326.004 180.856)" fill="#E3EDF8"/>
<rect width="99.5735" height="7.49879" transform="matrix(0.966011 -0.258502 0.259136 0.965841 329.946 193.14)" fill="#E3EDF8"/>
<rect width="99.5494" height="7.49879" transform="matrix(0.966011 -0.258502 0.259136 0.965841 333.788 205.914)" fill="#E3EDF8"/>
<rect width="100.412" height="7.49879" transform="matrix(0.966011 -0.258502 0.259136 0.965841 343.443 244.957)" fill="#E3EDF8"/>
<rect width="122.891" height="72.8594" transform="matrix(0.966011 -0.258502 0.259136 0.965841 200 284.259)" fill="#66ABFD"/>
<rect width="287.884" height="40.7821" transform="matrix(0.966011 -0.258502 0.259136 0.965841 211 392.768)" fill="#E3EDF8"/>
<rect width="100.574" height="7.49879" transform="matrix(0.966011 -0.258502 0.259136 0.965841 346.555 257.462)" fill="#E3EDF8"/>
<rect width="99.9324" height="7.49879" transform="matrix(0.966011 -0.258502 0.259136 0.965841 350.777 270.135)" fill="#E3EDF8"/>
<rect width="99.8382" height="7.49879" transform="matrix(0.966011 -0.258502 0.259136 0.965841 354.719 284.348)" fill="#E3EDF8"/>
<rect width="99.5735" height="7.49879" transform="matrix(0.966011 -0.258502 0.259136 0.965841 358.661 296.631)" fill="#E3EDF8"/>
<rect width="99.5494" height="7.49879" transform="matrix(0.966011 -0.258502 0.259136 0.965841 362.503 309.406)" fill="#E3EDF8"/>
<path fill-rule="evenodd" clip-rule="evenodd" d="M314.816 9.3818e-05L0 0L8.67825e-05 354.751L314.816 354.751L314.816 9.3818e-05ZM294.088 20.7156L21.377 20.7155L21.377 293.252L294.088 293.252L294.088 20.7156Z" transform="matrix(0.966011 -0.258502 0.259136 0.965841 127.256 148.56)" fill="white"/>
</g>
<g filter="url(#filter6_d)">
<path fill-rule="evenodd" clip-rule="evenodd" d="M0 15C0 6.71573 6.71573 0 15 0H39.8957C48.18 0 54.8957 6.71573 54.8957 15V39.8957C54.8957 48.18 48.18 54.8957 39.8957 54.8957H15C6.71573 54.8957 0 48.18 0 39.8957V15Z" transform="translate(76.7754 363) scale(0.998914 1.00109) rotate(45)" fill="white"/>
</g>
<defs>
<filter id="filter0_d" x="19.0879" y="0.312729" width="484.028" height="485.038" filterUnits="userSpaceOnUse" color-interpolation-filters="sRGB">
<feFlood flood-opacity="0" result="BackgroundImageFix"/>
<feColorMatrix in="SourceAlpha" type="matrix" values="0 0 0 0 0 0 0 0 0 0 0 0 0 0 0 0 0 0 255 0"/>
<feOffset dy="2"/>
<feGaussianBlur stdDeviation="22"/>
<feColorMatrix type="matrix" values="0 0 0 0 0.0901961 0 0 0 0 0.501961 0 0 0 0 0.878431 0 0 0 0.271031 0"/>
<feBlend mode="normal" in2="BackgroundImageFix" result="effect1_dropShadow"/>
<feBlend mode="normal" in="SourceGraphic" in2="effect1_dropShadow" result="shape"/>
</filter>
<filter id="filter1_d" x="454.206" y="65.22" width="191.998" height="192.224" filterUnits="userSpaceOnUse" color-interpolation-filters="sRGB">
<feFlood flood-opacity="0" result="BackgroundImageFix"/>
<feColorMatrix in="SourceAlpha" type="matrix" values="0 0 0 0 0 0 0 0 0 0 0 0 0 0 0 0 0 0 255 0"/>
<feOffset dy="2"/>
<feGaussianBlur stdDeviation="22"/>
<feColorMatrix type="matrix" values="0 0 0 0 0.0901961 0 0 0 0 0.501961 0 0 0 0 0.878431 0 0 0 0.271031 0"/>
<feBlend mode="normal" in2="BackgroundImageFix" result="effect1_dropShadow"/>
<feBlend mode="normal" in="SourceGraphic" in2="effect1_dropShadow" result="shape"/>
</filter>
<filter id="filter2_d" x="504.207" y="208.22" width="141.788" height="141.905" filterUnits="userSpaceOnUse" color-interpolation-filters="sRGB">
<feFlood flood-opacity="0" result="BackgroundImageFix"/>
<feColorMatrix in="SourceAlpha" type="matrix" values="0 0 0 0 0 0 0 0 0 0 0 0 0 0 0 0 0 0 255 0"/>
<feOffset dy="2"/>
<feGaussianBlur stdDeviation="22"/>
<feColorMatrix type="matrix" values="0 0 0 0 0.0901961 0 0 0 0 0.501961 0 0 0 0 0.878431 0 0 0 0.271031 0"/>
<feBlend mode="normal" in2="BackgroundImageFix" result="effect1_dropShadow"/>
<feBlend mode="normal" in="SourceGraphic" in2="effect1_dropShadow" result="shape"/>
</filter>
<filter id="filter3_d" x="485.207" y="85.2199" width="139.723" height="139.835" filterUnits="userSpaceOnUse" color-interpolation-filters="sRGB">
<feFlood flood-opacity="0" result="BackgroundImageFix"/>
<feColorMatrix in="SourceAlpha" type="matrix" values="0 0 0 0 0 0 0 0 0 0 0 0 0 0 0 0 0 0 255 0"/>
<feOffset dy="2"/>
<feGaussianBlur stdDeviation="22"/>
<feColorMatrix type="matrix" values="0 0 0 0 0.0901961 0 0 0 0 0.501961 0 0 0 0 0.878431 0 0 0 0.271031 0"/>
<feBlend mode="normal" in2="BackgroundImageFix" result="effect1_dropShadow"/>
<feBlend mode="normal" in="SourceGraphic" in2="effect1_dropShadow" result="shape"/>
</filter>
<filter id="filter4_d" x="107.062" y="55.4166" width="407.875" height="447.166" filterUnits="userSpaceOnUse" color-interpolation-filters="sRGB">
<feFlood flood-opacity="0" result="BackgroundImageFix"/>
<feColorMatrix in="SourceAlpha" type="matrix" values="0 0 0 0 0 0 0 0 0 0 0 0 0 0 0 0 0 0 255 0"/>
<feOffset dy="2"/>
<feGaussianBlur stdDeviation="22"/>
<feColorMatrix type="matrix" values="0 0 0 0 0.0901961 0 0 0 0 0.501961 0 0 0 0 0.878431 0 0 0 0.271031 0"/>
<feBlend mode="normal" in2="BackgroundImageFix" result="effect1_dropShadow"/>
<feBlend mode="normal" in="SourceGraphic" in2="effect1_dropShadow" result="shape"/>
</filter>
<filter id="filter5_d" x="83.2559" y="25.1795" width="484.044" height="512.013" filterUnits="userSpaceOnUse" color-interpolation-filters="sRGB">
<feFlood flood-opacity="0" result="BackgroundImageFix"/>
<feColorMatrix in="SourceAlpha" type="matrix" values="0 0 0 0 0 0 0 0 0 0 0 0 0 0 0 0 0 0 255 0"/>
<feOffset dy="2"/>
<feGaussianBlur stdDeviation="22"/>
<feColorMatrix type="matrix" values="0 0 0 0 0.0901961 0 0 0 0 0.501961 0 0 0 0 0.878431 0 0 0 0.271031 0"/>
<feBlend mode="normal" in2="BackgroundImageFix" result="effect1_dropShadow"/>
<feBlend mode="normal" in="SourceGraphic" in2="effect1_dropShadow" result="shape"/>
</filter>
<filter id="filter6_d" x="0.207031" y="327.22" width="153.137" height="153.279" filterUnits="userSpaceOnUse" color-interpolation-filters="sRGB">
<feFlood flood-opacity="0" result="BackgroundImageFix"/>
<feColorMatrix in="SourceAlpha" type="matrix" values="0 0 0 0 0 0 0 0 0 0 0 0 0 0 0 0 0 0 255 0"/>
<feOffset dy="2"/>
<feGaussianBlur stdDeviation="22"/>
<feColorMatrix type="matrix" values="0 0 0 0 0.0901961 0 0 0 0 0.501961 0 0 0 0 0.878431 0 0 0 0.271031 0"/>
<feBlend mode="normal" in2="BackgroundImageFix" result="effect1_dropShadow"/>
<feBlend mode="normal" in="SourceGraphic" in2="effect1_dropShadow" result="shape"/>
</filter>
</defs>
</svg>
