<svg width="130" height="130" viewBox="0 0 130 130" fill="none" xmlns="http://www.w3.org/2000/svg">
<path d="M41.2582 41.5549L31.4516 38.0512V34.1009C32.7149 32.7589 33.6585 31.1182 34.1659 29.293C36.7627 28.9827 38.7903 26.7915 38.7903 24.1129V13.6479C40.6596 12.0858 42.2322 10.1369 43.3718 7.85976L44.6802 5.24194H39.7003C35.8716 5.24194 32.132 4.16944 28.8873 2.14081C26.6458 0.740161 24.051 0 21.3839 0H21.2131C17.4934 0 13.9981 1.45097 11.3708 4.08452C8.7446 6.71702 7.30411 10.2144 7.31355 13.931L7.33871 24.116C7.33976 26.7936 9.36734 28.9827 11.9631 29.293C12.4706 31.1182 13.4141 32.7589 14.6774 34.1009V38.0512L4.87081 41.5549C1.95734 42.5949 0 45.371 0 48.4659V65H46.129V48.4659C46.129 45.371 44.1717 42.5949 41.2582 41.5549ZM32.5 24.1129H27.2581C26.6804 24.1129 26.2097 23.6432 26.2097 23.0645V21.2602C26.4739 21.0873 26.7234 20.8891 26.9519 20.6606C27.429 20.1825 28.0643 19.9194 28.7405 19.9194H32.5V24.1129ZM32.5 17.8226H28.7405C27.5034 17.8226 26.3418 18.3038 25.4674 19.1781C24.9904 19.6562 24.3551 19.9194 23.6789 19.9194H22.4502C21.774 19.9194 21.1386 19.6562 20.6616 19.1781C19.7873 18.3038 18.6256 17.8226 17.3885 17.8226H13.629V14.972L22.88 17.2837C26.0629 18.0815 29.4702 17.9673 32.5 17.052V17.8226ZM13.6301 19.9194H17.3885C18.0648 19.9194 18.7001 20.1825 19.1781 20.6606C19.4067 20.8891 19.6562 21.0873 19.9204 21.2602V23.0645C19.9204 23.6432 19.4497 24.1129 18.872 24.1129H13.6301V19.9194ZM34.5527 27.0788C34.5748 26.7905 34.5968 26.5032 34.5968 26.2097V21.1606C35.8139 21.5947 36.6935 22.7479 36.6935 24.1129C36.6935 25.4936 35.793 26.6573 34.5527 27.0788ZM36.6935 19.9466C36.0813 19.4832 35.3757 19.1362 34.5968 18.9779V16.2752C35.3233 15.9523 36.0184 15.5685 36.6935 15.1523V19.9466ZM9.43548 24.1129C9.43548 22.7479 10.3151 21.5947 11.5323 21.1606V26.2097C11.5323 26.5032 11.5543 26.7905 11.5763 27.0788C10.336 26.6573 9.43548 25.4936 9.43548 24.1129ZM11.5323 12.286V18.9769C10.7481 19.1362 10.0404 19.4864 9.425 19.955L9.41032 13.9247C9.40193 10.768 10.6254 7.8 12.8553 5.56589C15.0863 3.32863 18.0543 2.09677 21.2131 2.09677H21.3839C23.6579 2.09677 25.8679 2.72685 27.776 3.91782C31.3541 6.15613 35.4785 7.33871 39.7003 7.33871H41.2802C38.4989 12.524 33.1657 15.7258 27.2507 15.7258C25.9486 15.7258 24.6497 15.5665 23.3885 15.2509L11.5323 12.286ZM13.629 26.2097H18.871C20.605 26.2097 22.0161 24.7985 22.0161 23.0645V21.9742C22.1608 21.9878 22.3023 22.0161 22.4502 22.0161H23.6789C23.8267 22.0161 23.9682 21.9878 24.1129 21.9742V23.0645C24.1129 24.7985 25.524 26.2097 27.2581 26.2097H32.5C32.5 31.4128 28.2666 35.6452 23.0645 35.6452C17.8624 35.6452 13.629 31.4128 13.629 26.2097ZM29.3548 35.8632V38.1823L23.0645 41.7772L16.7742 38.1823V35.8632C18.5848 37.0469 20.7434 37.7419 23.0645 37.7419C25.3856 37.7419 27.5443 37.0469 29.3548 35.8632ZM8.3871 62.9032H2.09677V56.6129H8.3871V62.9032ZM44.0323 62.9032H37.7419V56.6129H44.0323V62.9032ZM44.0323 54.5161H37.7419V48.2258H35.6452V62.9032H10.4839V48.2258H8.3871V54.5161H2.09677V48.4659C2.09677 46.2559 3.49427 44.2723 5.57532 43.529L15.6241 39.9404L23.0645 44.1906L30.5039 39.9394L40.5527 43.528C42.6348 44.2723 44.0323 46.2559 44.0323 48.4659V54.5161Z" transform="translate(18.8711) scale(2)" fill="#4E97F9"/>
<path d="M6.29032 0C6.29032 1.15637 5.34992 2.09677 4.19355 2.09677C3.03718 2.09677 2.09677 1.15637 2.09677 0H0C0 2.31274 1.88081 4.19355 4.19355 4.19355C6.50629 4.19355 8.3871 2.31274 8.3871 0H6.29032Z" transform="translate(56.6128 56.6123) scale(2)" fill="#4E97F9"/>
<path d="M2.09677 0H0V3.14516H2.09677V0Z" transform="translate(8.38721 60.8066) scale(2)" fill="#4E97F9"/>
<path d="M3.14516 0H0V2.09677H3.14516V0Z" transform="translate(0 69.1934) scale(2)" fill="#4E97F9"/>
<path d="M2.09677 0H0V3.14516H2.09677V0Z" transform="translate(8.38721 75.4844) scale(2)" fill="#4E97F9"/>
<path d="M3.14516 0H0V2.09677H3.14516V0Z" transform="translate(14.6775 69.1934) scale(2)" fill="#4E97F9"/>
<path d="M2.09677 0H0V3.14516H2.09677V0Z" transform="translate(117.419 31.4512) scale(2)" fill="#4E97F9"/>
<path d="M3.14516 0H0V2.09677H3.14516V0Z" transform="translate(109.032 39.8379) scale(2)" fill="#4E97F9"/>
<path d="M2.09677 0H0V3.14516H2.09677V0Z" transform="translate(117.419 46.1299) scale(2)" fill="#4E97F9"/>
<path d="M3.14516 0H0V2.09677H3.14516V0Z" transform="translate(123.709 39.8379) scale(2)" fill="#4E97F9"/>
</svg>
