<svg width="58" height="58" viewBox="0 0 58 58" fill="none" xmlns="http://www.w3.org/2000/svg">
<path d="M54.7973 31.9501C56.8946 28.6264 58 24.8002 58 20.8436C58 9.35046 48.6495 0 37.1562 0C33.3065 0 29.5451 1.05816 26.2789 3.06007C25.7455 3.387 25.578 4.08436 25.9051 4.6178C26.2319 5.15112 26.9293 5.31867 27.4628 4.99162C30.3726 3.20824 33.7246 2.26562 37.1564 2.26562C47.4003 2.26562 55.7345 10.5996 55.7345 20.8436C55.7345 24.5589 54.6416 28.1444 52.5739 31.2124C52.2997 31.6193 52.3231 32.1454 52.6053 32.5232L53.8466 37.1559L48.864 35.8208C48.5377 35.7333 48.1893 35.796 47.9141 35.9919C44.7605 38.2358 41.0406 39.4218 37.1564 39.4218C34.9436 39.4218 32.7794 39.0352 30.721 38.2748C29.272 32.9387 25.0617 28.7282 19.7256 27.2794C18.965 25.2211 18.5782 23.0572 18.5782 20.8438C18.5782 17.3739 19.5406 13.9901 21.3612 11.0581C21.6912 10.5265 21.5279 9.82817 20.9964 9.49807C20.4651 9.16808 19.7664 9.33132 19.4363 9.86295C17.3926 13.1542 16.3125 16.9513 16.3125 20.8438C16.3125 22.8813 16.605 24.8821 17.1816 26.8114C16.6719 26.7611 16.1554 26.7347 15.6328 26.7347C7.01283 26.7347 0 33.7476 0 42.3674C0 45.461 0.894474 48.4307 2.59166 50.9906L1.37932 55.5156C1.27453 55.9066 1.38634 56.3237 1.67249 56.6099C1.95864 56.8961 2.37563 57.0078 2.76668 56.9031L7.40388 55.6605C9.87343 57.1925 12.7073 58 15.6328 58C18.6104 58 21.5067 57.1595 24.0085 55.5692C24.5365 55.2336 24.6924 54.5335 24.3569 54.0055C24.0212 53.4775 23.3209 53.3216 22.7931 53.6571C20.655 55.0162 18.1793 55.7344 15.6328 55.7344C12.982 55.7344 10.4199 54.9598 8.2237 53.4941C7.95262 53.3132 7.61674 53.2577 7.3017 53.3422L4.07543 54.2067L4.9153 51.0723C5.00287 50.7455 4.93977 50.3966 4.74323 50.1212C3.12228 47.8492 2.26552 45.168 2.26552 42.3672C2.26552 34.9965 8.2621 29.0001 15.6327 29.0001C23.0033 29.0001 28.9999 34.9967 28.9999 42.3673C28.9999 43.9413 28.7293 45.4819 28.1955 46.9461C27.9812 47.5338 28.284 48.1841 28.8718 48.3984C29.4595 48.6126 30.1099 48.3099 30.3241 47.7221C30.9488 46.0085 31.2656 44.2069 31.2656 42.3673C31.2656 41.8447 31.2393 41.3283 31.189 40.8187C33.1184 41.3952 35.1194 41.6873 37.1564 41.6873C41.3336 41.6873 45.3421 40.4643 48.7843 38.1449L55.1555 39.852C55.5467 39.9568 55.9635 39.845 56.2498 39.5588C56.5359 39.2727 56.6478 38.8556 56.543 38.4645L54.7973 31.9501Z" fill="#3588F9"/>
<path d="M12.6709 0H1.13282C0.507163 0 0 0.50716 0 1.13281C0 4.9385 3.09622 8.0347 6.90193 8.0347C10.7076 8.0347 13.8039 4.9385 13.8039 1.13281C13.8037 0.50716 13.2965 0 12.6709 0ZM6.90193 5.76896C4.7362 5.76896 2.91248 4.27614 2.40566 2.26551H11.3983C10.8913 4.27614 9.06754 5.76896 6.90193 5.76896Z" transform="translate(30.325 23.2563)" fill="#3588F9"/>
<path d="M2.24387 0.538786C1.91558 0.00602475 1.21765 -0.159592 0.685224 0.16847L0.537507 0.259661C0.00530809 0.588516 -0.15963 1.28656 0.16934 1.81875C0.383556 2.16562 0.75444 2.35638 1.13405 2.35638C1.33716 2.35638 1.54288 2.30178 1.72844 2.18703L1.87355 2.09742C2.4062 1.76925 2.57205 1.07143 2.24387 0.538786Z" transform="translate(43.8035 16.4326)" fill="#3588F9"/>
<path d="M2.2439 0.538677C1.91561 0.00602891 1.21756 -0.159587 0.685253 0.168475L0.537533 0.259666C0.00522172 0.588521 -0.159604 1.28656 0.169367 1.81876C0.383583 2.16551 0.754467 2.35628 1.13408 2.35628C1.33719 2.35628 1.54291 2.30167 1.72847 2.18692L1.87358 2.09731C2.40623 1.76914 2.57208 1.07133 2.2439 0.538677Z" transform="translate(28.2378 16.4326)" fill="#3588F9"/>
<path d="M1.93372 0.331913C1.72302 0.12121 1.43075 0 1.13282 0C0.834888 0 0.542734 0.12121 0.331916 0.331913C0.121212 0.542616 0 0.834883 0 1.13281C0 1.43074 0.121212 1.72301 0.331916 1.93371C0.54262 2.14441 0.834888 2.26562 1.13282 2.26562C1.43075 2.26562 1.72302 2.14441 1.93372 1.93371C2.14443 1.72301 2.26564 1.43074 2.26564 1.13281C2.26564 0.834883 2.14443 0.542616 1.93372 0.331913Z" transform="translate(8.26953 41.2344)" fill="#3588F9"/>
<path d="M1.93372 0.331913C1.72302 0.12121 1.43075 0 1.13282 0C0.834888 0 0.542733 0.12121 0.331915 0.331913C0.121211 0.542616 0 0.834883 0 1.13281C0 1.43074 0.121211 1.72301 0.331915 1.93371C0.54262 2.14441 0.834888 2.26562 1.13282 2.26562C1.43075 2.26562 1.72302 2.14441 1.93372 1.93371C2.14443 1.72301 2.26564 1.43074 2.26564 1.13281C2.26564 0.834883 2.14443 0.542616 1.93372 0.331913Z" transform="translate(14.5 41.2344)" fill="#3588F9"/>
<path d="M1.93372 0.331913C1.72302 0.12121 1.43075 0 1.13282 0C0.834888 0 0.542733 0.12121 0.331915 0.331913C0.121211 0.542616 0 0.834883 0 1.13281C0 1.43074 0.121211 1.72301 0.331915 1.93371C0.54262 2.14441 0.834888 2.26562 1.13282 2.26562C1.43075 2.26562 1.72302 2.14441 1.93372 1.93371C2.14443 1.72301 2.26564 1.43074 2.26564 1.13281C2.26564 0.834883 2.14443 0.542616 1.93372 0.331913Z" transform="translate(20.7303 41.2344)" fill="#3588F9"/>
<path d="M1.93372 0.331913C1.72302 0.12121 1.43075 0 1.13282 0C0.833755 0 0.542621 0.12121 0.331917 0.331913C0.121213 0.542616 0 0.834883 0 1.13281C0 1.43074 0.121213 1.72301 0.331917 1.93371C0.542621 2.14441 0.833755 2.26562 1.13282 2.26562C1.43075 2.26562 1.72302 2.14441 1.93372 1.93371C2.14443 1.72301 2.26564 1.43074 2.26564 1.13281C2.26564 0.834883 2.14443 0.542616 1.93372 0.331913Z" transform="translate(25.8009 50.3188)" fill="#3588F9"/>
<path d="M1.93372 0.330781C1.72302 0.120078 1.43075 0 1.13282 0C0.833755 0 0.542621 0.120078 0.331917 0.330781C0.12008 0.542617 0 0.83375 0 1.13281C0 1.43074 0.12008 1.72301 0.331917 1.93371C0.542621 2.14441 0.833642 2.26449 1.13282 2.26449C1.43075 2.26449 1.72302 2.14441 1.93372 1.93371C2.14443 1.72301 2.26564 1.43074 2.26564 1.13281C2.26564 0.83375 2.14443 0.542617 1.93372 0.330781Z" transform="translate(22.1238 5.73682)" fill="#3588F9"/>
</svg>
