<svg width="43" height="43" viewBox="0 0 43 43" fill="none" xmlns="http://www.w3.org/2000/svg">
<path d="M28.8768 12.9139C28.8768 12.9139 28.8768 12.9139 28.8768 12.9139H17.6669C17.2484 12.9139 16.9793 12.6448 16.9793 12.2263C16.9793 12.2263 16.9793 12.2263 16.9793 12.2263V1.01637C16.9793 1.01637 16.9793 1.01637 16.9793 1.01637C16.9793 0.478291 16.5011 0 15.963 0H13.9302C13.3922 0 12.9139 0.478291 12.9139 1.01637C12.9139 1.01637 12.9139 1.01637 12.9139 1.01637V12.2263C12.9139 12.2263 12.9139 12.2263 12.9139 12.2263C12.9139 12.6448 12.6448 12.9139 12.2263 12.9139C12.2263 12.9139 12.2263 12.9139 12.2263 12.9139H1.01637C1.01637 12.9139 1.01637 12.9139 1.01637 12.9139C0.478291 12.9139 0 13.3922 0 13.9302C0 13.9302 0 13.9302 0 13.9302V15.963C0 15.963 0 15.963 0 15.963C0 16.5011 0.478291 16.9793 1.01637 16.9793C1.01637 16.9793 1.01637 16.9793 1.01637 16.9793H12.2263C12.2263 16.9793 12.2263 16.9793 12.2263 16.9793C12.6448 16.9793 12.9139 17.2484 12.9139 17.6669V28.8768C12.9139 29.4149 13.3922 29.8932 13.9302 29.8932H15.963C16.5011 29.8932 16.9793 29.4149 16.9793 28.8768V17.6669C16.9793 17.2484 17.2484 16.9793 17.6669 16.9793H28.8768C28.8768 16.9793 28.8768 16.9793 28.8768 16.9793C29.4149 16.9793 29.8932 16.5011 29.8932 15.963C29.8932 15.963 29.8932 15.963 29.8932 15.963V13.9302C29.8932 13.9302 29.8932 13.9302 29.8932 13.9302C29.8932 13.3922 29.4149 12.9139 28.8768 12.9139Z" transform="translate(21.1377 0.587158) rotate(45)" fill="#65ABFD"/>
</svg>
