<svg width="122" height="100" viewBox="0 0 122 100" fill="none" xmlns="http://www.w3.org/2000/svg">
<path d="M50.813 40.8156H4.06075C1.83389 40.8156 0 38.9859 0 36.7376V4.07797C0 1.84166 1.83389 0 4.06075 0H50.8011C53.0398 0 54.8618 1.84166 54.8618 4.07797V36.7376C54.8737 38.9859 53.0398 40.8156 50.813 40.8156ZM4.06075 2.04497C2.94137 2.04497 2.02442 2.9658 2.02442 4.08993V36.7496C2.02442 37.8737 2.94137 38.7945 4.06075 38.7945H50.8011C51.9205 38.7945 52.8374 37.8737 52.8374 36.7496V4.07797C52.8374 2.95384 51.9205 2.03301 50.8011 2.03301H4.06075V2.04497Z" transform="scale(2)" fill="#3588F9"/>
<path d="M53.8615 10.2009H1.01221C0.404884 10.2009 0 9.79431 0 9.18441V1.0165C0 0.406601 0.404884 9.12389e-08 1.01221 9.12389e-08H53.8496C54.4569 9.12389e-08 54.8618 0.406601 54.8618 1.0165V9.18441C54.8737 9.79431 54.4688 10.2009 53.8615 10.2009ZM2.03633 8.15594H52.8493V2.03301H2.03633V8.15594Z" transform="translate(0 10.2129) scale(2)" fill="#3588F9"/>
<path d="M17.2671 11.2174H1.01221C0.404885 11.2174 7.26829e-07 10.8108 7.26829e-07 10.2009V1.0165C7.26829e-07 0.406602 0.404885 3.64956e-07 1.01221 3.64956e-07H17.2671C17.8745 3.64956e-07 18.2793 0.406602 18.2793 1.0165V10.2009C18.2793 10.8108 17.8745 11.2174 17.2671 11.2174ZM2.02442 9.18441H16.2549V2.04496H2.02442V9.18441Z" transform="translate(63.019 46.9502) scale(2)" fill="#3588F9"/>
<path d="M9.13371 2.03301H1.01221C0.404884 2.03301 9.08536e-08 1.6264 9.08536e-08 1.0165C9.08536e-08 0.406601 0.404884 -3.64955e-07 1.01221 -3.64955e-07H9.14562C9.75295 -3.64955e-07 10.1578 0.406601 10.1578 1.0165C10.1578 1.6264 9.75295 2.03301 9.13371 2.03301Z" transform="translate(8.14551 38.7949) scale(2)" fill="#3588F9"/>
<path d="M9.14562 2.03301H1.01221C0.404884 2.03301 0 1.6264 0 1.0165C0 0.406601 0.404884 -3.64955e-07 1.01221 -3.64955e-07H9.14562C9.75295 -3.64955e-07 10.1578 0.406601 10.1578 1.0165C10.1697 1.6264 9.76486 2.03301 9.14562 2.03301Z" transform="translate(32.5098 38.7949) scale(2)" fill="#3588F9"/>
<path d="M14.2186 2.03301H1.01221C0.404884 2.03301 9.08536e-08 1.62641 9.08536e-08 1.0165C9.08536e-08 0.406602 0.404884 3.64955e-07 1.01221 3.64955e-07H14.2186C14.8259 3.64955e-07 15.2308 0.406602 15.2308 1.0165C15.2308 1.62641 14.8259 2.03301 14.2186 2.03301Z" transform="translate(8.14551 46.9502) scale(2)" fill="#3588F9"/>
<path d="M4.06075 2.03301H1.01221C0.404884 2.03301 -3.63414e-07 1.62641 -3.63414e-07 1.0165C-3.63414e-07 0.406602 0.404884 3.64955e-07 1.01221 3.64955e-07H4.06075C4.66808 3.64955e-07 5.07296 0.406602 5.07296 1.0165C5.08487 1.62641 4.67999 2.03301 4.06075 2.03301Z" transform="translate(42.6797 46.9502) scale(2)" fill="#3588F9"/>
<path d="M50.9555 41.169C50.8483 41.169 50.6458 41.169 50.5506 41.169L3.5959 35.8712C1.35713 35.6679 -0.262405 33.6229 0.0353039 31.3866L0.142479 30.8724C0.142479 30.3582 0.547363 29.9516 1.05942 29.9516C1.05942 29.9516 1.1666 29.9516 1.26187 29.9516H47.9069C49.0263 29.9516 49.9432 29.0307 49.9432 27.9066V0.963289C49.9432 0.652359 50.0504 0.353387 50.2529 0.245758C50.4553 0.0424569 50.7649 -0.0651734 51.0626 0.0424564L54.4208 0.449058C55.5402 0.556688 56.4571 1.05896 57.1597 1.97979C57.8742 2.79299 58.1719 3.91713 58.0767 4.93363L55.0281 37.6889C54.8138 39.6382 52.9799 41.169 50.9555 41.169ZM2.07163 31.9846C2.17881 32.9054 2.8814 33.7186 3.90552 33.8262L50.753 39.136C51.8724 39.2436 52.8846 38.4184 52.9918 37.2943L56.0403 4.53899C56.1475 4.02476 55.9332 3.41486 55.6354 3.00825C55.3377 2.60165 54.8257 2.29072 54.3136 2.29072L51.9796 2.08742V27.9066C51.9796 30.1549 50.1457 31.9846 47.9188 31.9846H2.07163Z" transform="translate(5.81201 17.6621) scale(2)" fill="#3588F9"/>
</svg>
