<svg width="134" height="134" viewBox="0 0 134 134" fill="none" xmlns="http://www.w3.org/2000/svg">
<path d="M66.0135 65.0371H55.1007L49.0554 52.3307L49.0685 52.3176L51.8556 46.9523L54.839 49.9359C55.2184 50.3154 55.8465 50.3154 56.226 49.9359L59.2093 46.9523L65.1499 58.4549C65.4116 58.9652 66.0658 59.1354 66.55 58.8344C66.9687 58.5596 67.1257 57.9969 66.8902 57.552L56.3961 37.2426C56.0428 36.549 55.0091 36.549 54.6558 37.2426L47.9955 50.093L34.4788 21.7357V10.351H37.75V13.557C37.75 13.8318 37.8678 14.1066 38.0772 14.2898C38.2996 14.4992 38.5744 14.5516 38.8753 14.5516H57.626C58.4766 14.5516 58.9345 13.4785 58.3196 12.8766L54.8259 9.38262L58.3196 5.88867C58.9215 5.28672 58.4766 4.21367 57.626 4.21367H49.1732V0.981445C49.1732 0.431836 48.7283 0 48.1918 0H33.4974C32.9479 0 32.5161 0.444922 32.5161 0.981445V21.7357L21.3546 45.1857L14.4589 30.9613C14.1056 30.2285 13.0326 30.2416 12.6924 30.9613L0.104679 57.3949C-0.117764 57.8529 0.0654247 58.4156 0.510312 58.6773C0.994455 58.9521 1.6487 58.7559 1.88423 58.2455L9.80062 41.6133L12.8756 44.6885C13.255 45.068 13.8831 45.068 14.2626 44.6885L17.3899 41.5609L20.2555 47.4758L11.8942 65.0371H0.98137C0.431803 65.0371 0 65.482 0 66.0186C0 66.5551 0.444888 67 0.98137 67H41.4269C41.9765 67 42.4083 66.5551 42.4083 66.0186C42.4083 65.482 41.9634 65.0371 41.4269 65.0371H14.0794L22.9641 46.3896L24.4165 47.8422C24.796 48.2217 25.424 48.2217 25.8035 47.8422L29.2972 44.3482L32.7908 47.8422C33.1703 48.2217 33.7984 48.2217 34.1778 47.8422L37.6715 44.3482L41.1652 47.8422C41.5447 48.2217 42.1727 48.2217 42.5522 47.8422L44.0046 46.3896L52.9155 65.0371H46.216C45.6664 65.0371 45.2346 65.482 45.2346 66.0186C45.2346 66.5551 45.6795 67 46.216 67H66.0135C66.5631 67 66.9949 66.5551 66.9949 66.0186C66.9949 65.482 66.55 65.0371 66.0135 65.0371ZM58.2541 45.1203L55.5325 47.8422L52.7977 45.1072L55.5325 39.8336L58.2541 45.1203ZM16.487 39.6766L13.5691 42.5947L10.6904 39.7158L13.5691 33.657L16.487 39.6766ZM43.5467 10.3641L39.7259 12.0652V10.3641H43.5467ZM55.2446 6.16348L52.7323 8.67598C52.3397 9.06855 52.3397 9.68359 52.7323 10.0762L55.2446 12.5887H43.3766L48.5582 10.2855C48.9246 10.1285 49.1601 9.76211 49.1601 9.35645V6.16348H55.2446ZM34.4788 1.96289H47.1974V8.38809H34.4788V1.96289ZM41.8849 45.7484L38.3912 42.2545C38.0117 41.875 37.3837 41.875 37.0042 42.2545L33.4974 45.7484L30.0038 42.2545C29.6243 41.875 28.9962 41.875 28.6168 42.2545L25.1231 45.7484L23.8669 44.4922L33.4974 24.2482L43.141 44.4922L41.8849 45.7484Z" transform="scale(2)" fill="#3588F9"/>
<path d="M4.04324 11.5811H3.02262C2.4338 11.5811 1.96274 11.11 1.96274 10.5211C1.96274 9.97148 1.51785 9.53965 0.981371 9.53965C0.444888 9.53965 3.99321e-07 9.98457 3.99321e-07 10.5211C3.99321e-07 12.0914 1.20381 13.3869 2.72167 13.5309V14.6039C2.72167 15.1535 3.16656 15.5854 3.70304 15.5854C4.2526 15.5854 4.68441 15.1404 4.68441 14.6039V13.4785C6.24151 13.1775 7.40607 11.8035 7.40607 10.1678C7.40607 8.30957 5.88822 6.7916 4.03016 6.7916H3.36283C2.59082 6.7916 1.96274 6.16348 1.96274 5.39141C1.96274 4.61934 2.59082 3.99121 3.36283 3.99121H4.38345C4.97228 3.99121 5.44333 4.46231 5.44333 5.05117V5.74473C5.44333 6.29434 5.88822 6.72617 6.4247 6.72617C6.96118 6.72617 7.40607 6.28125 7.40607 5.74473V5.06426C7.40607 3.49395 6.20226 2.19844 4.68441 2.05449V0.981445C4.68441 0.431836 4.23952 4.99189e-08 3.70304 4.99189e-08C3.15347 4.99189e-08 2.72167 0.444922 2.72167 0.981445V2.10684C1.16456 2.40781 3.99321e-07 3.78184 3.99321e-07 5.41758C3.99321e-07 7.27578 1.51785 8.79375 3.37591 8.79375H4.05633C4.82834 8.79375 5.45642 9.42188 5.45642 10.1939C5.45642 10.966 4.82834 11.5811 4.04324 11.5811Z" transform="translate(37.7632 6.30859) scale(2)" fill="#3588F9"/>
<path d="M4.04325 11.5811H3.02262C2.4338 11.5811 1.96274 11.11 1.96274 10.5211C1.96274 9.97148 1.51785 9.53965 0.98137 9.53965C0.444888 9.53965 0 9.98457 0 10.5211C0 12.0914 1.20381 13.3869 2.72167 13.5309V14.6039C2.72167 15.1535 3.16655 15.5854 3.70304 15.5854C4.23952 15.5854 4.68441 15.1404 4.68441 14.6039V13.4785C6.24151 13.1775 7.40607 11.8035 7.40607 10.1678C7.40607 8.30957 5.88822 6.7916 4.03016 6.7916H3.34974C2.57773 6.7916 1.94966 6.16348 1.94966 5.39141C1.94966 4.61934 2.57773 3.99121 3.34974 3.99121H4.38345C4.97228 3.99121 5.44333 4.4623 5.44333 5.05117V5.73164C5.44333 6.28125 5.88822 6.71309 6.4247 6.71309C6.96119 6.71309 7.40607 6.26816 7.40607 5.73164V5.06426C7.40607 3.49395 6.20226 2.19844 4.68441 2.05449V0.981446C4.68441 0.431836 4.23952 3.99351e-07 3.70304 3.99351e-07C3.16655 3.99351e-07 2.72167 0.444922 2.72167 0.981446V2.10684C1.16456 2.40781 0 3.78184 0 5.41758C0 7.27578 1.51785 8.79375 3.37591 8.79375H4.05633C4.82834 8.79375 5.45642 9.42187 5.45642 10.1939C5.45642 10.966 4.81526 11.5811 4.04325 11.5811Z" transform="translate(3.79443 33.5791) scale(2)" fill="#3588F9"/>
<path d="M6.4247 6.72617C6.97427 6.72617 7.40607 6.28125 7.40607 5.74473V5.06426C7.40607 3.49395 6.20226 2.19844 4.68441 2.05449V0.981444C4.68441 0.431835 4.23952 -7.98702e-07 3.70304 -7.98702e-07C3.15347 -7.98702e-07 2.72167 0.444921 2.72167 0.981444V2.10684C1.16456 2.40781 -1.59728e-06 3.78184 -1.59728e-06 5.41758C-1.59728e-06 7.27578 1.51785 8.79375 3.37591 8.79375H4.05633C4.82834 8.79375 5.45642 9.42188 5.45642 10.1939C5.45642 10.966 4.82834 11.5941 4.05633 11.5941H3.0357C2.44688 11.5941 1.97582 11.123 1.97582 10.5342C1.97582 9.98457 1.53094 9.55273 0.994454 9.55273C0.457972 9.55273 0.0130841 9.99765 0.0130841 10.5342C0.0130841 12.1045 1.2169 13.4 2.73475 13.5439V14.617C2.73475 15.1666 3.17964 15.5984 3.71612 15.5984C4.26569 15.5984 4.69749 15.1535 4.69749 14.617V13.4916C6.2546 13.1906 7.41916 11.8166 7.41916 10.1809C7.41916 8.32266 5.90131 6.80469 4.04325 6.80469H3.36283C2.59082 6.80469 1.96274 6.17656 1.96274 5.40449C1.96274 4.63242 2.59082 4.0043 3.36283 4.0043H4.38345C4.97227 4.0043 5.44333 4.47539 5.44333 5.06426V5.74473C5.44333 6.28125 5.87513 6.72617 6.4247 6.72617Z" transform="translate(92.3271 41.9785) scale(2)" fill="#3588F9"/>
</svg>
