<svg width="121" height="28" viewBox="0 0 121 28" fill="none" xmlns="http://www.w3.org/2000/svg">
<path d="M7.40815 0.273731C7.40815 0.193039 7.40815 0.112347 7.49331 0.0316558C7.57846 0.0316558 7.66361 0.0316558 7.74876 0.0316558H8.60027C8.68542 0.0316558 8.77057 0.0316558 8.85572 0.0316558C8.94087 0.112347 8.94088 0.193039 8.94088 0.273731V10.1181C8.94088 10.2795 8.94088 10.5216 8.77057 10.683C8.60027 10.8443 8.34482 10.925 8.17451 10.8443H7.74876C7.57846 10.8443 7.40815 10.8443 7.23785 10.683C7.06755 10.5216 6.9824 10.3602 6.8121 10.1988L2.89514 4.06624L1.61787 1.96826H1.53272V10.5216C1.53272 10.6023 1.53272 10.683 1.44757 10.7636C1.36242 10.7636 1.27727 10.7636 1.19211 10.7636H0.340603C0.255452 10.7636 0.170301 10.7636 0.0851499 10.7636C0.0851499 10.7636 0 10.683 0 10.5216V0.757881C0 0.515806 0.0851505 0.354422 0.255453 0.193039C0.425755 0.0316556 0.68121 -0.0490359 0.851512 0.0316558H1.27727C1.44757 0.0316558 1.61787 0.0316556 1.78817 0.193039C1.95848 0.354422 2.04363 0.515806 2.12878 0.677189L5.87543 6.64837L7.23785 8.90774L7.40815 0.273731Z" transform="translate(34.8271 8.60229)" fill="white"/>
<path d="M9.63277 5.58871C9.71793 7.04116 9.29217 8.57431 8.44066 9.78468C7.504 10.8337 6.14158 11.3178 4.77916 11.2371C3.41674 11.3178 2.05432 10.8337 1.20281 9.78468C0.351297 8.57431 -0.0744575 7.12186 0.0106937 5.66941C0.0106937 4.86249 0.095843 4.05557 0.351297 3.24866C0.521599 2.60312 0.862204 2.03828 1.37311 1.47344C1.79887 0.98929 2.30977 0.585832 2.90583 0.343757C3.50189 0.101682 4.1831 -0.0597014 4.86431 0.0209903C5.54552 0.0209903 6.31188 0.101682 6.99309 0.424449C7.58915 0.666524 8.10006 1.06998 8.52581 1.55413C8.95157 2.03828 9.20702 2.68382 9.46247 3.32935C9.63278 4.05557 9.71793 4.86249 9.63277 5.58871ZM8.10006 5.66941C8.10006 5.10456 8.10006 4.53972 8.0149 4.05557C7.92975 3.57142 7.75945 3.08727 7.504 2.68382C7.24854 2.28036 6.90794 1.95759 6.48218 1.71552C6.05643 1.47344 5.46037 1.31206 4.86431 1.31206C4.3534 1.31206 3.8425 1.39275 3.33159 1.63482C2.90583 1.8769 2.48008 2.19967 2.22462 2.60312C1.96917 3.00658 1.71372 3.49073 1.62856 3.97488C1.45826 4.53972 1.45826 5.10456 1.45826 5.58871C1.45826 6.15356 1.54341 6.79909 1.62856 7.36393C1.71372 7.84808 1.88402 8.33223 2.13947 8.73569C2.39493 9.13915 2.73553 9.38122 3.24644 9.6233C3.75735 9.86537 4.26825 9.94607 4.86431 9.94607C5.37522 9.94607 5.97128 9.86537 6.39703 9.6233C6.82279 9.38122 7.24854 9.05846 7.504 8.655C7.75945 8.25154 7.92975 7.76739 8.0149 7.28324C8.10006 6.7184 8.18521 6.23425 8.10006 5.66941Z" transform="translate(45.8857 8.37085)" fill="white"/>
<path d="M6.04573 10.3285C5.96058 10.4899 5.87544 10.6513 5.79028 10.732C5.61998 10.8127 5.53483 10.8934 5.36453 10.8934H4.59817C4.42786 10.8934 4.25756 10.8934 4.08726 10.8127C3.91696 10.732 3.83181 10.5706 3.74665 10.3285L0 0.242074C0 0.161383 0 0.161383 0 0.0806912C0 0.0806912 0.0851551 0 0.170306 0H1.36242C1.44757 0 1.61787 0.0806915 1.61787 0.161383C1.61787 0.161383 1.70302 0.322766 1.78817 0.645533L2.21393 1.77522C2.38423 2.25937 2.55454 2.74352 2.72484 3.30836C2.89514 3.8732 3.06545 4.35735 3.23575 4.8415C3.40605 5.40634 3.57635 5.8098 3.6615 6.21326C3.83181 6.61672 3.91695 6.85879 3.91695 7.02017L4.08726 7.42363C4.17241 7.66571 4.25756 7.90778 4.34271 8.23055L4.59817 9.03747C4.68332 9.27954 4.76847 9.44092 4.76847 9.44092H4.85362L5.61998 7.10087L8.08936 0.242074C8.08936 0.161383 8.17452 0.0806912 8.25967 0.0806912H8.42997H9.53694C9.62209 0.0806912 9.70724 0.161383 9.62209 0.242074L6.04573 10.3285Z" transform="translate(56.7104 8.55322)" fill="white"/>
<path d="M8.34482 10.8127C8.25967 10.8127 8.17451 10.8127 8.08936 10.8127C8.00421 10.8127 8.00421 10.732 7.91906 10.6513L7.06755 8.39193H2.46939L1.61787 10.6513C1.61787 10.8127 1.44757 10.8934 1.27727 10.8934H0.170306C0.0851551 10.8934 0 10.8934 0 10.8127C0 10.732 0 10.6513 0 10.5706L3.6615 0.645533C3.74666 0.48415 3.8318 0.322767 3.91695 0.161383C4.08726 0.0806915 4.25756 0 4.42787 0H4.93877C5.10907 0 5.36453 -1.56312e-07 5.53483 0.161383C5.70513 0.322767 5.79028 0.48415 5.79028 0.645533L9.45178 10.5706C9.45178 10.6513 9.45178 10.732 9.45178 10.732C9.45178 10.8127 9.36663 10.8127 9.28148 10.8127H8.34482ZM5.61998 3.79251L4.85362 1.53314H4.76847L4.00211 3.71182L2.89514 7.02017H6.72695L5.61998 3.79251Z" transform="translate(66.5024 8.63403)" fill="white"/>
<path d="M3.40605 1.29107H0.170306C0.0851551 1.29107 0 1.29107 0 1.21037C0 1.12968 0 1.04899 0 1.04899V0.242075C0 0.161383 0 0.080692 0 0.080692C0 0.080692 0.0851551 0 0.170306 0H8.17451C8.25966 0 8.34482 3.06612e-07 8.34482 0.080692C8.34482 0.161384 8.34482 0.242075 8.34482 0.242075V1.04899C8.34482 1.12968 8.34482 1.21037 8.34482 1.21037C8.34482 1.21037 8.25966 1.29107 8.17451 1.29107H4.93877V10.5706C4.93877 10.6513 4.93877 10.732 4.85362 10.8127C4.76847 10.8127 4.68332 10.8127 4.59817 10.8127H3.6615C3.57635 10.8127 3.4912 10.8127 3.40605 10.8127C3.3209 10.732 3.3209 10.6513 3.3209 10.5706V1.29107H3.40605Z" transform="translate(76.2949 8.63403)" fill="white"/>
<path d="M0 0.242075C0 0.161383 -1.30057e-06 0.0806917 0.0851499 0C0.170301 0 0.255455 0 0.340606 0H1.27727C1.36242 0 1.44757 0 1.53272 0C1.53272 0 1.61787 0.0806918 1.61787 0.242075V10.5706C1.61787 10.6513 1.61787 10.732 1.53272 10.8127C1.44757 10.8127 1.36242 10.8127 1.27727 10.8127H0.340606C0.255455 10.8127 0.170301 10.8127 0.0851499 10.8127C-1.30057e-06 10.8127 0 10.732 0 10.5706V0.242075Z" transform="translate(86.3433 8.63403)" fill="white"/>
<path d="M9.71793 5.58871C9.80308 7.04116 9.37733 8.57431 8.44066 9.78468C7.504 10.8337 6.14158 11.3178 4.77916 11.2371C3.41674 11.3178 2.05432 10.8337 1.20281 9.78468C0.3513 8.57431 -0.0744575 7.12186 0.0106937 5.66941C0.0106937 4.86249 0.0958462 4.05557 0.3513 3.24866C0.521602 2.60312 0.862204 2.03828 1.37311 1.47344C1.79887 0.98929 2.30978 0.585832 2.90584 0.343757C3.50189 0.101682 4.1831 -0.0597014 4.86431 0.0209903C5.63067 0.0209903 6.31188 0.101682 6.99309 0.424449C7.58915 0.666524 8.10006 1.06998 8.52581 1.55413C8.95157 2.03828 9.29217 2.68382 9.46247 3.32935C9.63278 4.05557 9.71793 4.86249 9.71793 5.58871ZM8.10006 5.66941C8.10006 5.10456 8.01491 4.53972 7.92976 4.05557C7.84461 3.57142 7.6743 3.08727 7.41884 2.68382C7.16339 2.28036 6.82279 1.95759 6.39703 1.71552C5.88613 1.47344 5.29007 1.31206 4.77916 1.39275C4.26825 1.39275 3.75735 1.47344 3.24644 1.71552C2.82069 1.95759 2.39493 2.28036 2.13947 2.68382C1.88402 3.08727 1.62857 3.57142 1.54342 4.05557C1.37312 4.62041 1.37311 5.18526 1.37311 5.66941C1.37311 6.23425 1.45827 6.87978 1.54342 7.44462C1.62857 7.92877 1.79887 8.41292 2.05432 8.81638C2.30978 9.21984 2.65038 9.46191 3.16129 9.70399C3.67219 9.94606 4.1831 10.0268 4.77916 10.0268C5.29007 10.0268 5.88613 9.94606 6.31188 9.70399C6.73764 9.46191 7.16339 9.13915 7.41884 8.73569C7.6743 8.33223 7.84461 7.84808 7.92976 7.36393C8.10006 6.7184 8.18521 6.23425 8.10006 5.66941Z" transform="translate(90.249 8.37085)" fill="white"/>
<path d="M7.323 0.273731C7.323 0.193039 7.32301 0.112347 7.40816 0.0316558C7.49331 0.0316558 7.57845 0.0316558 7.6636 0.0316558H8.51511C8.60026 0.0316558 8.68542 0.0316558 8.77057 0.0316558C8.85572 0.0316558 8.85573 0.112348 8.85573 0.273731V10.1181C8.85573 10.2795 8.85573 10.5216 8.68543 10.683C8.51512 10.8443 8.25966 10.925 8.08936 10.8443H7.6636C7.4933 10.8443 7.323 10.8443 7.1527 10.683C6.9824 10.5216 6.89725 10.3602 6.8121 10.1988L2.89514 4.06624L1.61787 1.96826V10.5216C1.61787 10.6023 1.61787 10.683 1.53272 10.7636C1.44757 10.7636 1.36242 10.7636 1.27727 10.7636H0.340606C0.255455 10.7636 0.170301 10.7636 0.0851499 10.7636C-1.30057e-06 10.683 0 10.6023 0 10.5216V0.757881C0 0.515806 0.0851486 0.354422 0.1703 0.193039C0.340602 0.0316556 0.596058 -0.0490359 0.851512 0.0316558H1.27727C1.44757 0.0316558 1.61787 0.0316556 1.78817 0.193039C1.95848 0.354422 2.04363 0.515806 2.12878 0.677189L5.96058 6.64837L7.323 8.90774V0.273731Z" transform="translate(102.097 8.60229)" fill="white"/>
<path d="M8.55039 8.16213C8.55039 8.64628 8.46523 9.13043 8.20978 9.53389C8.03948 9.93735 7.69887 10.2601 7.35827 10.5022C7.01766 10.7443 6.50676 10.9863 6.081 11.067C5.57009 11.2284 5.05919 11.2284 4.46313 11.2284C4.12253 11.2284 3.86708 11.2284 3.44132 11.2284C3.01556 11.2284 2.76011 11.1477 2.33435 11.067C1.99375 10.9863 1.65314 10.9056 1.22738 10.825C0.886779 10.7443 0.546172 10.5829 0.120416 10.4215C0.0352646 10.3408 -0.0498788 10.2601 0.0352724 10.0987L0.375872 9.29181C0.375872 9.21112 0.461021 9.13043 0.546172 9.21112C0.546172 9.21112 0.546177 9.21112 0.631328 9.21112C1.22739 9.45319 1.82344 9.61458 2.4195 9.77596C2.9304 9.93734 3.52647 9.93735 4.03738 9.93735C4.71859 9.93735 5.3998 9.85665 5.99586 9.53389C6.42161 9.29181 6.67705 8.72697 6.67705 8.24282C6.67705 8.00075 6.67706 7.75867 6.59191 7.5166C6.50676 7.27452 6.33645 7.11314 6.081 6.95175C5.82555 6.79037 5.5701 6.62899 5.31464 6.4676C4.97404 6.30622 4.63343 6.14484 4.12252 5.98345C3.61161 5.82207 3.01556 5.58 2.50465 5.33792C2.16405 5.17654 1.73829 4.93446 1.39768 4.69239C1.14223 4.45031 0.886774 4.20824 0.716472 3.88547C0.546169 3.5627 0.461028 3.23994 0.461028 2.83648C0.461028 2.02956 0.801625 1.30334 1.39768 0.819187C2.16404 0.254345 3.1007 -0.0684215 4.12252 0.0122702C4.71858 0.0122702 5.31464 0.0929624 5.82554 0.173654C6.4216 0.254346 7.01766 0.415729 7.52857 0.657804C7.61372 0.657804 7.69887 0.819187 7.61372 0.899879L7.27312 1.78749C7.27312 1.86818 7.18797 1.86818 7.18797 1.86818H7.10281C6.5919 1.6261 5.99585 1.46472 5.39979 1.30334C4.97403 1.22265 4.46313 1.14195 3.95222 1.14195C3.44131 1.14195 2.84525 1.22265 2.4195 1.54541C2.07889 1.78749 1.9086 2.19095 1.9086 2.5944C1.9086 2.83648 1.99374 3.07855 2.0789 3.23994C2.2492 3.48201 2.41951 3.6434 2.58981 3.72409C2.84526 3.88547 3.18586 4.04685 3.52646 4.20824L4.80373 4.69239C5.22949 4.85377 5.74039 5.01515 6.081 5.17654C6.4216 5.33792 6.84736 5.58 7.18797 5.82207C7.52857 6.06415 7.78402 6.38691 7.95432 6.70968C8.46523 7.27452 8.55039 7.75867 8.55039 8.16213Z" transform="translate(112.45 8.37939)" fill="white"/>
<path d="M5.44968 0.00411849C2.89514 0.00411849 0.936663 1.77934 0.936663 1.77934V3.47386C2.38423 2.50556 4.85362 1.77934 5.96058 2.42487C6.8121 2.82833 6.55664 4.52285 6.55664 4.52285C6.55664 4.52285 6.04573 4.36147 4.42786 4.44216C2.63969 4.60354 0 5.73323 0 8.31536C0 10.4133 1.87333 11.6237 4.76847 11.6237C7.66361 11.6237 9.36663 10.6554 9.36663 10.6554V2.98971C9.45178 -0.237957 5.44968 0.00411849 5.44968 0.00411849ZM6.55664 9.52573C6.55664 9.52573 6.21604 9.76781 5.19422 9.76781C4.17241 9.76781 2.89514 9.36435 2.89514 8.07329C2.89514 6.78222 3.91696 6.29807 5.36453 6.29807H6.55664V9.52573Z" transform="translate(0 8.06519)" fill="white"/>
<path d="M2.89514 0H0V11.0548H2.89514V0Z" transform="translate(12.0063 8.31152)" fill="white"/>
<path d="M0 2.9049C0 2.9049 4.06033e-07 0 3.91696 0C5.53483 0 7.06755 0.564841 8.25967 1.69452V3.38905C8.25967 3.38905 6.38634 2.09798 4.34271 2.09798C2.98029 2.09798 2.98029 2.9049 2.98029 2.9049C2.98029 2.9049 2.89514 3.46974 4.34271 4.19597C5.79028 4.92219 8.94088 6.13257 8.94088 8.39193C8.94088 10.6513 6.47149 11.5389 4.51301 11.5389C2.80999 11.5389 0.510908 10.4899 0.0851515 10.0865C0.0851515 9.44092 0.0851515 8.39193 0.0851515 8.39193C1.36242 9.03747 2.80999 9.44092 4.25756 9.44092C5.96058 9.44092 5.87543 8.55332 5.87543 8.47262C5.87543 8.39193 5.87543 7.90778 5.02392 7.50432C4.17241 7.10087 2.63969 6.29395 1.44757 5.40634C0.596059 4.8415 0.0851512 3.8732 0 2.9049Z" transform="translate(16.8594 8.14966)" fill="white"/>
<path d="M2.89514 0H0V2.74352H2.89514V0Z" transform="translate(9.11133 5.56787)" fill="white"/>
<path d="M2.89514 0H0V2.74352H2.89514V0Z" transform="translate(12.0063 2.74341)" fill="white"/>
<path d="M2.89514 0H0V2.74352H2.89514V0Z" transform="translate(14.9873)" fill="white"/>
</svg>
