<svg width="71" height="35" viewBox="0 0 71 35" fill="none" xmlns="http://www.w3.org/2000/svg">
<path d="M5.55359 1.05427e-07H15.9617C19.0166 0.0254552 21.2302 0.899655 22.6027 2.62115C23.9752 4.34264 24.428 6.69396 23.962 9.67511C23.781 11.0373 23.3794 12.3733 22.7581 13.6839C22.1623 14.9945 21.3343 16.1763 20.2725 17.2302C18.9777 18.5662 17.5928 19.4142 16.1171 19.7742C14.6413 20.1342 13.1135 20.3139 11.5344 20.3139H6.87402L5.39824 27.6377H0L5.55359 1.05427e-07ZM10.0974 4.39427L7.76725 15.9581C7.9226 15.9836 8.07794 15.9967 8.23329 15.9967C8.41428 15.9967 8.596 15.9967 8.777 15.9967C11.2625 16.0221 13.334 15.7785 14.9908 15.2643C16.6476 14.7247 17.7614 12.849 18.3307 9.63656C18.7968 6.93832 18.3307 5.38338 16.9326 4.97247C15.5602 4.56155 13.8389 4.36882 11.7674 4.39427C11.4567 4.41973 11.1592 4.43282 10.8742 4.43282C10.6155 4.43282 10.3436 4.43282 10.0586 4.43282L10.0974 4.39427Z" transform="translate(0 7.3623)" fill="white" fill-opacity="0.7"/>
<path d="M5.59242 0H10.9518L9.43721 7.36233H14.2529C16.8938 7.41397 18.8612 7.95362 20.156 8.98128C21.4765 10.0089 21.8648 11.9624 21.3211 14.8403L18.7191 27.6762H13.282L15.7675 15.4185C16.0262 14.1334 15.9485 13.2214 15.5345 12.6817C15.1205 12.1421 14.2273 11.8722 12.8548 11.8722L8.54398 11.8337L5.35941 27.6762H-1.07338e-06L5.59242 0Z" transform="translate(24.5192)" fill="white" fill-opacity="0.7"/>
<path d="M5.55359 1.05427e-07H15.9617C19.0166 0.0254552 21.2302 0.899655 22.6027 2.62115C23.9752 4.34264 24.428 6.69396 23.962 9.67511C23.781 11.0373 23.3794 12.3733 22.7581 13.6839C22.1623 14.9945 21.3343 16.1763 20.2725 17.2302C18.9777 18.5662 17.5928 19.4142 16.1171 19.7742C14.6413 20.1342 13.1135 20.3139 11.5344 20.3139H6.87402L5.39824 27.6377H1.34172e-07L5.55359 1.05427e-07ZM10.0974 4.39427L7.76725 15.9581C7.9226 15.9836 8.07794 15.9967 8.23329 15.9967C8.41428 15.9967 8.596 15.9967 8.77699 15.9967C11.2625 16.0221 13.334 15.7785 14.9908 15.2643C16.6476 14.7247 17.7614 12.849 18.3307 9.63656C18.7968 6.93832 18.3307 5.38338 16.9326 4.97247C15.5602 4.56155 13.8389 4.36882 11.7674 4.39427C11.4567 4.41973 11.1592 4.43282 10.8742 4.43282C10.6155 4.43282 10.3436 4.43282 10.0586 4.43282L10.0974 4.39427Z" transform="translate(46.0413 7.3623)" fill="white" fill-opacity="0.7"/>
</svg>
