<svg width="67" height="50" viewBox="0 0 67 50" fill="none" xmlns="http://www.w3.org/2000/svg">
<path d="M57.0377 28.6859C54.721 28.6989 52.715 29.2587 51.0326 30.0918C50.4113 28.8551 49.7901 27.7747 49.6866 26.9676C49.5701 26.0303 49.4277 25.4575 49.5701 24.338C49.7125 23.2184 50.3596 21.6303 50.3596 21.5001C50.3466 21.3829 50.2172 20.8101 48.8842 20.7971C47.5511 20.7841 46.3993 21.0575 46.2699 21.409C46.1405 21.7604 45.8816 22.5675 45.7134 23.4007C45.4804 24.6244 43.0473 28.9593 41.6625 31.2374C41.2095 30.3522 40.8213 29.5711 40.7436 28.9463C40.6271 28.009 40.4848 27.4362 40.6271 26.3167C40.7695 25.1971 41.4166 23.609 41.4166 23.4788C41.4037 23.3616 41.2742 22.7888 39.9412 22.7758C38.6082 22.7628 37.4563 23.0362 37.3269 23.3877C37.1975 23.7391 37.0551 24.5723 36.7704 25.3794C36.4986 26.1865 33.2631 33.4244 32.4219 35.312C31.9948 36.2753 31.6195 37.0433 31.3477 37.564C31.0759 38.0847 31.3347 37.6031 31.3089 37.6552C31.0759 38.0978 30.9465 38.3451 30.9465 38.3451V38.3581C30.7653 38.6836 30.5712 38.996 30.4806 38.996C30.4159 38.996 30.2864 38.1238 30.5065 36.9262C30.9853 34.4137 32.1501 30.4954 32.1371 30.3522C32.1371 30.2871 32.3572 29.5971 31.3865 29.2457C30.4417 28.8942 30.1052 29.48 30.0276 29.48C29.9499 29.48 29.8852 29.6883 29.8852 29.6883C29.8852 29.6883 30.9335 25.2752 27.8792 25.2752C25.9638 25.2752 23.3236 27.3711 22.0165 29.2847C21.1882 29.7403 19.4281 30.7037 17.5644 31.7321C16.8526 32.1226 16.1149 32.5392 15.416 32.9167L15.2737 32.7605C11.5722 28.79 4.72588 25.9782 5.0106 20.6409C5.11414 18.7013 5.78713 13.5853 18.1597 7.38881C28.2934 2.31188 36.408 3.70478 37.8187 6.80301C39.8247 11.2291 33.4831 19.4563 22.9483 20.6409C18.9363 21.0965 16.8267 19.5344 16.2961 18.9486C15.7396 18.3368 15.6619 18.3107 15.4548 18.4279C15.1183 18.6101 15.3254 19.1569 15.4548 19.4823C15.7655 20.3025 17.0597 21.7604 19.2598 22.4894C21.1882 23.1273 25.8991 23.4788 31.5936 21.2658C37.974 18.7794 42.9567 11.8799 41.4943 6.11307C40.0059 0.242052 30.3253 -1.68458 21.1752 1.58288C15.7266 3.53555 9.82505 6.58171 5.58005 10.5782C0.532652 15.3166 -0.269756 19.4563 0.0667376 21.1746C1.24446 27.306 9.64386 31.3025 13.0088 34.2575C12.8405 34.3486 12.6852 34.4398 12.5429 34.5179C10.8604 35.351 4.45409 38.7226 2.84928 42.2895C1.03739 46.325 3.13401 49.228 4.53175 49.6185C8.85439 50.8292 13.2806 48.6552 15.6749 45.0753C18.0562 41.4954 17.7715 36.8481 16.6714 34.7262L16.6326 34.6481L17.9527 33.867C18.8068 33.3593 19.6481 32.8906 20.3858 32.4871C19.9716 33.6196 19.674 34.9605 19.5186 36.9131C19.3375 39.2043 20.2693 42.1723 21.4988 43.3439C22.0423 43.8516 22.6895 43.8646 23.0907 43.8646C24.5143 43.8646 25.1614 42.68 25.8732 41.2611C26.7533 39.5297 27.5298 37.525 27.5298 37.525C27.5298 37.525 26.5591 42.9534 29.2122 42.9534C30.1829 42.9534 31.1536 41.6907 31.5936 41.0398V41.0528C31.5936 41.0528 31.6195 41.0137 31.6712 40.9226C31.7748 40.7664 31.8265 40.6753 31.8265 40.6753V40.6493C32.2148 39.9723 33.0819 38.4232 34.3761 35.8587C36.0457 32.5522 37.6505 28.4125 37.6505 28.4125C37.6505 28.4125 37.8058 29.4279 38.2846 31.0942C38.5694 32.0835 39.1906 33.164 39.6694 34.2185C39.2812 34.7652 39.0482 35.0776 39.0482 35.0776L39.0612 35.0907C38.7505 35.5072 38.4011 35.9498 38.0387 36.3924C36.7186 37.9806 35.1397 39.7901 34.9326 40.3108C34.6867 40.9226 34.7385 41.3782 35.2174 41.7427C35.5668 42.0031 36.188 42.0552 36.8481 42.0031C38.0387 41.925 38.867 41.6256 39.2812 41.4433C39.9283 41.209 40.666 40.8575 41.3778 40.3368C42.672 39.3735 43.4614 38.0066 43.3838 36.1842C43.345 35.1818 43.0214 34.1924 42.6202 33.2551C42.7367 33.0859 42.8532 32.9167 42.9697 32.7344C45.0145 29.7273 46.5934 26.4208 46.5934 26.4208C46.5934 26.4208 46.7487 27.4362 47.2276 29.1025C47.4735 29.9486 47.9653 30.8729 48.4053 31.7841C46.4899 33.3593 45.2863 35.1818 44.8721 36.3794C44.1086 38.5924 44.7039 39.5948 45.8298 39.8291C46.3346 39.9333 47.0593 39.699 47.6029 39.4646C48.2759 39.2433 49.0912 38.8658 49.8419 38.306C51.1361 37.3427 52.3785 36.0019 52.3138 34.1924C52.275 33.3593 52.055 32.5392 51.7573 31.7581C53.388 31.0812 55.4976 30.6906 58.1766 31.0161C63.9358 31.693 65.0747 35.312 64.8547 36.822C64.6347 38.3321 63.431 39.1652 63.0298 39.4256C62.6286 39.6729 62.4992 39.764 62.538 39.9463C62.5898 40.2197 62.771 40.2066 63.1204 40.1546C63.5993 40.0765 66.1489 38.9179 66.2524 36.1321C66.4077 32.5522 63.0298 28.6469 57.0377 28.6859ZM12.6205 43.7475C10.718 45.8433 8.03904 46.6374 6.90014 45.9605C5.67065 45.2445 6.1495 42.1593 8.49201 39.9333C9.91564 38.5794 11.7664 37.3297 12.9829 36.5617C13.2547 36.3924 13.6688 36.1451 14.1606 35.8457C14.2383 35.7936 14.2901 35.7676 14.2901 35.7676C14.3807 35.7155 14.4842 35.6504 14.5877 35.5853C15.4548 38.7617 14.6265 41.5475 12.6205 43.7475ZM26.5332 34.2315C25.8732 35.8587 24.4755 40.0374 23.6342 39.8031C22.9095 39.6078 22.4694 36.4445 23.4919 33.3202C24.0095 31.7451 25.1096 29.8705 25.7567 29.1415C26.805 27.9699 27.9439 27.5794 28.2286 28.0611C28.5651 28.6859 26.9474 33.2161 26.5332 34.2315ZM38.0128 39.751C37.7281 39.8942 37.4693 39.9984 37.3528 39.9203C37.2622 39.8682 37.4693 39.6729 37.4693 39.6729C37.4693 39.6729 38.9058 38.1238 39.4753 37.4078C39.7988 36.9913 40.1871 36.5096 40.6013 35.9628V36.1191C40.6013 37.9936 38.8153 39.2433 38.0128 39.751ZM46.8652 37.7202C46.6581 37.564 46.684 37.0824 47.3829 35.5723C47.6547 34.9735 48.2759 33.9711 49.3501 33.0208C49.4795 33.4114 49.5572 33.7889 49.5442 34.1404C49.5313 36.4836 47.8747 37.3558 46.8652 37.7202Z" fill="white"/>
</svg>
