<svg width="11" height="11" viewBox="0 0 11 11" fill="none" xmlns="http://www.w3.org/2000/svg">
  <path d="M5.77042 2.75L4.58333 3.93708L3.39625 2.75L2.75 3.39625L3.93708 4.58333L2.75 5.77042L3.39625 6.41667L4.58333 5.22958L5.77042 6.41667L6.41667 5.77042L5.22958 4.58333L6.41667 3.39625L5.77042 2.75ZM4.58333 0C2.04875 0 0 2.04875 0 4.58333C0 7.11792 2.04875 9.16667 4.58333 9.16667C7.11792 9.16667 9.16667 7.11792 9.16667 4.58333C9.16667 2.04875 7.11792 0 4.58333 0ZM4.58333 8.25C2.56208 8.25 0.916667 6.60458 0.916667 4.58333C0.916667 2.56208 2.56208 0.916667 4.58333 0.916667C6.60458 0.916667 8.25 2.56208 8.25 4.58333C8.25 6.60458 6.60458 8.25 4.58333 8.25Z" transform="translate(0.916748 0.916016)" fill="#66ABFD"/>
</svg>
