<svg width="100" height="100" viewBox="0 0 100 100" fill="none" xmlns="http://www.w3.org/2000/svg">
<path d="M25 0C11.2454 0 0 11.2454 0 25C0 38.7546 11.2454 50 25 50C38.7546 50 50 38.7546 50 25C49.9535 11.2454 38.7082 0 25 0ZM25 46.8866C12.9647 46.8866 3.15985 37.0353 3.15985 25C3.15985 12.9647 13.0112 3.11338 25 3.11338C37.0353 3.11338 46.8401 12.9647 46.8401 25C46.8401 37.0353 36.9888 46.8866 25 46.8866Z" transform="scale(2)" fill="#3588F9"/>
<path d="M22.1538 0.453067L9.18913 13.4178L2.63708 6.86571C2.03299 6.26162 1.05716 6.26162 0.453067 6.86571C-0.151022 7.4698 -0.151022 8.44563 0.453067 9.04972L8.12035 16.717C8.44563 17.0423 8.72444 17.1817 9.23559 17.1817C9.70028 17.1817 10.0256 17.0423 10.3508 16.717L24.3843 2.63708C24.9884 2.03299 24.9884 1.05716 24.3843 0.453067C23.7337 -0.151022 22.8044 -0.151022 22.1538 0.453067Z" transform="translate(25.3022 34.4092) scale(2)" fill="#3588F9"/>
</svg>
