<svg width="552" height="487" viewBox="0 0 552 487" fill="none" xmlns="http://www.w3.org/2000/svg">
<g filter="url(#filter0_d)">
<path fill-rule="evenodd" clip-rule="evenodd" d="M0 10C0 4.47716 4.47715 0 10 0H88.7372C94.26 0 98.7372 4.47715 98.7372 10V88.7372C98.7372 94.26 94.26 98.7372 88.7372 98.7372H10C4.47716 98.7372 0 94.26 0 88.7372V10Z" transform="translate(409.795 279.245) scale(0.998427 1.00157) rotate(45)" fill="white"/>
</g>
<g filter="url(#filter1_d)">
<path fill-rule="evenodd" clip-rule="evenodd" d="M0 15C0 6.71573 6.71573 0 15 0H275.42C283.704 0 290.42 6.71573 290.42 15V275.557C290.42 283.842 283.704 290.557 275.42 290.557H15C6.71572 290.557 0 283.842 0 275.557V15Z" transform="matrix(0.500298 0.865854 -0.864214 0.503125 361.409 42.9053)" fill="#66ABFD"/>
</g>
<g filter="url(#filter2_d)">
<path fill-rule="evenodd" clip-rule="evenodd" d="M0 15C0 6.7157 6.71573 0 15 0H274.915C283.199 0 289.915 6.71573 289.915 15V274.915C289.915 283.199 283.199 289.915 274.915 289.915H15C6.7157 289.915 0 283.199 0 274.915V15Z" transform="translate(309.5 36) scale(0.997558 1.00244) rotate(45)" fill="white"/>
</g>
<g filter="url(#filter3_d)">
<path fill-rule="evenodd" clip-rule="evenodd" d="M0 15C0 6.71572 6.71573 0 15 0H246C254.284 0 261 6.71573 261 15V380C261 388.284 254.284 395 246 395H15C6.71575 395 0 388.284 0 380V15Z" transform="translate(439 113) rotate(90)" fill="white"/>
<path d="M0.5 15C0.5 6.99186 6.99187 0.5 15 0.5H246C254.008 0.5 260.5 6.99187 260.5 15V380C260.5 388.008 254.008 394.5 246 394.5H15C6.99189 394.5 0.5 388.008 0.5 380V15Z" transform="translate(439 113) rotate(90)" stroke="white"/>
</g>
<path d="M0.5 9.55645C0.5 4.55843 4.5518 0.5 9.54878 0.5C14.5458 0.5 18.5976 4.55843 18.5976 9.55645C18.5976 14.5545 14.5458 18.6129 9.54878 18.6129C4.5518 18.6129 0.5 14.5545 0.5 9.55645Z" transform="translate(76.7041 234.801) rotate(90)" fill="#F9F9F9" stroke="#E0E0E0"/>
<path d="M3.7439 2.12366C3.7439 3.02076 3.01735 3.74731 2.12195 3.74731C1.22655 3.74731 0.5 3.02076 0.5 2.12366C0.5 1.22656 1.22655 0.5 2.12195 0.5C3.01735 0.5 3.7439 1.22656 3.7439 2.12366Z" transform="translate(418.613 242.015) rotate(90)" fill="#E0E0E0" stroke="#F9F9F9"/>
<path d="M3 -1C0.790861 -1 -1 0.790861 -1 3V307.054C-1 309.263 0.790871 311.054 3.00001 311.054H229.354C231.563 311.054 233.354 309.263 233.354 307.054V3C233.354 0.790859 231.563 -1 229.354 -1H3Z" transform="translate(400.138 127.429) rotate(90)" fill="#66ABFD" stroke="#E0E0E0" stroke-width="2"/>
<path d="M4.79681 0.192224C4.79681 0.117244 4.79681 0.0610123 4.85325 0.0422675C4.90968 0.0235228 4.96611 0.0235228 5.00373 0.0422675H5.54925C5.60569 0.0235228 5.66212 0.0235228 5.69974 0.0422675C5.73736 0.0797571 5.75618 0.135989 5.75618 0.192224V6.90286C5.77499 7.03408 5.73736 7.18403 5.64331 7.2965C5.53044 7.40897 5.37995 7.44646 5.22947 7.42772H4.9473C4.81562 7.44646 4.70276 7.40897 4.6087 7.33399C4.51465 7.24027 4.42059 7.1278 4.34535 7.01533L1.82467 2.83524L0.996985 1.41064H0.959363V7.24027C0.959363 7.2965 0.959363 7.35274 0.921741 7.39022C0.865307 7.40897 0.808874 7.40897 0.752441 7.39022H0.206921C0.150488 7.40897 0.112866 7.40897 0.0564331 7.39022C0.0564331 7.39022 -4.4849e-09 7.31525 -4.4849e-09 7.24027V0.529633C-4.4849e-09 0.379675 0.0564331 0.24846 0.150488 0.135992C0.263354 0.0422675 0.413843 -0.0139691 0.564331 0.00477567H0.846496C0.959363 -0.0139691 1.09104 0.0235205 1.18509 0.0984996C1.27915 0.192224 1.37321 0.304695 1.42964 0.417163L3.87507 4.48478L4.778 6.02186L4.79681 0.192224Z" transform="translate(129 208.431)" fill="white"/>
<path d="M6.31366 3.77007C6.38891 4.78229 6.10674 5.79451 5.5236 6.63802C4.92165 7.33158 4.03753 7.70648 3.1346 7.6315C2.23167 7.70648 1.36636 7.33158 0.783222 6.65677C0.218891 5.832 -0.0632739 4.81978 0.0119702 3.8263C-0.00684084 3.26396 0.0872142 2.72036 0.256513 2.19551C0.388191 1.76438 0.613923 1.35199 0.914899 0.995837C1.17825 0.677176 1.51685 0.414749 1.89307 0.246045C2.2881 0.0773422 2.72076 -0.0163795 3.15341 0.00236526C3.62369 -0.0163795 4.11277 0.0773433 4.54543 0.264791C4.94046 0.433494 5.27906 0.695922 5.54241 1.01458C5.82458 1.37073 6.01269 1.78312 6.14436 2.21425C6.27604 2.68287 6.33248 3.22647 6.31366 3.77007ZM5.31668 3.80756C5.31668 3.43266 5.29787 3.05777 5.24144 2.68287C5.185 2.34546 5.09095 2.02681 4.92165 1.72689C4.77116 1.44572 4.54543 1.22078 4.26326 1.07082C3.94347 0.902118 3.56725 0.80839 3.19103 0.827135C2.85243 0.827135 2.51384 0.902118 2.21286 1.07082C1.93069 1.22078 1.68615 1.44572 1.51685 1.70814C1.32874 1.98932 1.19706 2.30798 1.12182 2.62664C1.02777 3.00153 0.990143 3.37643 0.990143 3.75133C0.990143 4.16371 1.02777 4.55735 1.10301 4.95099C1.15944 5.2884 1.27231 5.60706 1.4228 5.88823C1.5921 6.15066 1.83664 6.35685 2.1188 6.46932C2.43859 6.63802 2.796 6.71301 3.15341 6.69426C3.51082 6.71301 3.86823 6.63802 4.16921 6.46932C4.45137 6.31936 4.69592 6.09443 4.86521 5.81325C5.03451 5.53208 5.16619 5.21342 5.22262 4.87601C5.29787 4.53861 5.33549 4.16371 5.31668 3.80756Z" transform="translate(136.136 208.359)" fill="white"/>
<path d="M3.94561 7.0293C3.90799 7.14177 3.85156 7.23549 3.77631 7.32922C3.68226 7.4042 3.5882 7.44169 3.47534 7.42294H3.00506C2.89219 7.44169 2.76052 7.4042 2.64765 7.34796C2.5536 7.27298 2.47835 7.16051 2.44073 7.0293L0.0141088 0.131215C-0.00470218 0.0937251 -0.00470218 0.0562355 0.0141088 0.0374907C0.0141088 0.0374907 0.0517309 -1.14409e-06 0.108164 -1.14409e-06H0.898227C0.973471 -1.14409e-06 1.04871 0.0562355 1.08634 0.131215C1.08634 0.131215 1.12396 0.262426 1.1992 0.468619L1.46256 1.2559C1.57542 1.57456 1.68829 1.91197 1.80116 2.28687C1.93283 2.66176 2.0457 2.98042 2.15856 3.35532C2.27143 3.73021 2.3843 4.01139 2.45954 4.27382C2.5536 4.53624 2.61003 4.70494 2.64765 4.79867L2.74171 5.07984C2.79814 5.24854 2.85457 5.41724 2.91101 5.60469L3.08031 6.12955C3.13674 6.29825 3.17436 6.39198 3.19317 6.42947H3.2496L3.7575 4.81741L5.33763 0.149961C5.35644 0.112471 5.39406 0.0562355 5.43168 0.0374907H5.56336H6.27818C6.35342 0.0374907 6.39105 0.0937217 6.35343 0.168701L3.94561 7.0293Z" transform="translate(143.17 208.437)" fill="white"/>
<path d="M5.35644 7.39023C5.30001 7.39023 5.26238 7.39023 5.20595 7.39023C5.16833 7.39023 5.13071 7.33399 5.1119 7.25901L4.58519 5.7032H1.59423L1.06753 7.25901C1.04871 7.35274 0.95466 7.42772 0.841794 7.42772H0.145786C0.0705419 7.42772 0.032919 7.42772 0.014108 7.37148C-0.00470304 7.31525 -0.00470304 7.27776 0.014108 7.22153L2.42192 0.41716C2.45954 0.285947 2.51598 0.173481 2.61003 0.098502C2.7229 0.0422675 2.83576 0.00477796 2.96744 0.00477796H3.28723C3.4189 -0.0139668 3.55058 0.0235228 3.66345 0.098502C3.7575 0.192226 3.81394 0.304691 3.85156 0.41716L6.24056 7.22153C6.25937 7.25901 6.25937 7.31525 6.24056 7.35274C6.24056 7.39022 6.18413 7.40897 6.10888 7.40897L5.35644 7.39023ZM3.58821 2.6103L3.08031 1.05449H3.02387L2.53479 2.55407L1.83878 4.82219H4.30302L3.58821 2.6103Z" transform="translate(149.621 208.469)" fill="white"/>
<path d="M2.23381 0.862262H0.126976C0.0705425 0.862262 0.0141083 0.862259 0.0141083 0.82477C-0.00470276 0.78728 -0.00470276 0.731049 0.0141083 0.69356V0.168702C-0.00470276 0.131212 -0.00470276 0.0749815 0.0141083 0.0374919C0.0141083 0.0374919 0.0705425 0 0.126976 0H5.33763C5.39406 0 5.4505 2.28762e-06 5.4505 0.0374919C5.46931 0.0749815 5.46931 0.131212 5.4505 0.168702V0.69356C5.46931 0.731049 5.46931 0.78728 5.4505 0.82477C5.4505 0.82477 5.39406 0.862262 5.33763 0.862262H3.2308V7.23549C3.2308 7.29173 3.23079 7.34796 3.19317 7.38545C3.13674 7.40419 3.09912 7.40419 3.04269 7.38545H2.44073C2.3843 7.40419 2.32787 7.40419 2.29024 7.38545C2.25262 7.34796 2.23381 7.29173 2.23381 7.23549V0.862262Z" transform="translate(155.904 208.455)" fill="white"/>
<path d="M0 0.164016C0 0.0890366 5.71825e-07 0.0328045 0.0564337 0.0140597C0.112867 -0.00468505 0.1693 -0.00468505 0.206922 0.0140597H0.790063C0.846496 -0.00468505 0.90293 -0.00468505 0.959364 0.0140597C0.959364 0.0140597 0.996985 0.0890366 0.996985 0.164016V7.21206C0.996985 7.26829 0.996986 7.32453 0.959364 7.36202C0.90293 7.38076 0.846496 7.38076 0.790063 7.36202H0.206922C0.150489 7.38076 0.0940557 7.38076 0.0564337 7.36202C0.0188116 7.36202 0 7.28704 0 7.21206V0.164016Z" transform="translate(162.501 208.46)" fill="white"/>
<path d="M6.33247 3.77007C6.40772 4.78229 6.12555 5.79451 5.5236 6.63802C4.94046 7.33158 4.03753 7.70648 3.1346 7.6315C2.23167 7.70648 1.36636 7.33158 0.783221 6.65677C0.21889 5.832 -0.0632736 4.83852 0.0119705 3.8263C-0.00684055 3.26396 0.0872152 2.72036 0.256514 2.19551C0.388192 1.76438 0.613924 1.35199 0.9149 0.995837C1.17825 0.677176 1.53566 0.414749 1.91188 0.246045C2.30691 0.0773422 2.73957 -0.0163795 3.17222 0.00236526C3.66131 -0.0163795 4.13158 0.0773433 4.56424 0.264791C4.95927 0.433494 5.29787 0.695922 5.56122 1.01458C5.84339 1.37073 6.05031 1.78312 6.16318 2.21425C6.29485 2.70161 6.35128 3.22647 6.33247 3.77007ZM5.31668 3.80756C5.31668 3.43266 5.27906 3.05777 5.22262 2.68287C5.16619 2.34546 5.05333 2.02681 4.90284 1.72689C4.75235 1.46446 4.52662 1.23952 4.24445 1.07082C3.92466 0.902118 3.54844 0.80839 3.17222 0.827135C2.83362 0.827135 2.49502 0.902118 2.19405 1.07082C1.91188 1.22078 1.66734 1.44572 1.49804 1.70814C1.30993 1.98932 1.17825 2.30798 1.0842 2.62664C0.990143 3.00153 0.952522 3.37643 0.952522 3.75133C0.952522 4.16371 0.990142 4.55735 1.06539 4.95099C1.12182 5.2884 1.23469 5.60706 1.4228 5.88823C1.5921 6.15066 1.83664 6.35685 2.1188 6.50681C2.43859 6.67552 2.796 6.75049 3.15341 6.73175C3.51082 6.73175 3.84942 6.65677 4.16921 6.48807C4.45137 6.33811 4.69592 6.11317 4.86522 5.832C5.05333 5.55083 5.16619 5.23217 5.22262 4.89476C5.31668 4.53861 5.33549 4.16371 5.31668 3.80756Z" transform="translate(164.992 208.359)" fill="white"/>
<path d="M4.81927 0.173305C4.81927 0.0983257 4.83808 0.0420936 4.85689 0.0233488C4.91332 0.00460399 4.96976 0.00460399 5.00738 0.0233488H5.5529C5.60933 0.00460399 5.66577 0.00460399 5.70339 0.0233488C5.74101 0.0233488 5.75982 0.0983257 5.75982 0.173305V6.88395C5.77864 7.01516 5.74101 7.16511 5.64696 7.27758C5.53409 7.39005 5.3836 7.42754 5.23311 7.4088H4.95095C4.81927 7.42754 4.70641 7.39005 4.61235 7.31507C4.51829 7.22135 4.42424 7.10888 4.3678 6.99641L1.84713 2.81632L1.00063 1.37297V7.22135C1.00063 7.27758 1.00063 7.33382 0.963008 7.37131C0.906575 7.39005 0.850143 7.39005 0.79371 7.37131H0.210567C0.154134 7.39005 0.116511 7.39005 0.0600778 7.37131C0.0224557 7.33382 0.003647 7.27758 0.003647 7.22135V0.529455C-0.015164 0.379496 0.0412674 0.248288 0.116511 0.135819C0.229378 0.0233499 0.398677 -0.014142 0.549166 0.00460285H0.831331C0.944197 0.00460285 1.07588 0.0233476 1.16993 0.0983268C1.26399 0.192051 1.33923 0.304522 1.41447 0.416991L3.89753 4.48461L4.76284 6.02168L4.81927 0.173305Z" transform="translate(172.676 208.451)" fill="white"/>
<path d="M5.41277 5.51567C5.41277 5.83433 5.35633 6.15299 5.20585 6.43416C5.07417 6.69659 4.88606 6.92153 4.66033 7.09023C4.41578 7.27768 4.13362 7.40889 3.83264 7.48387C3.49404 7.57759 3.15545 7.61509 2.79804 7.61509C2.59111 7.61509 2.38419 7.61509 2.15846 7.61509C1.93272 7.61509 1.68818 7.55885 1.46245 7.52136C1.21791 7.48387 0.992174 7.42764 0.766442 7.35266C0.521898 7.27768 0.296169 7.2027 0.0704371 7.09023C-0.00480706 7.05274 -0.0236204 6.97776 0.0328127 6.88404L0.277354 6.3217C0.296165 6.26546 0.3526 6.22797 0.409033 6.24671C0.427844 6.24671 0.427847 6.24671 0.446658 6.26546C0.822878 6.43416 1.19909 6.54663 1.59413 6.64035C1.95154 6.73408 2.30895 6.77157 2.66636 6.77157C3.09901 6.79032 3.55048 6.69659 3.9267 6.47165C4.22767 6.2842 4.39697 5.9468 4.37816 5.59064C4.39697 5.42194 4.37816 5.25324 4.32172 5.10328C4.24648 4.95333 4.13362 4.82211 4.00194 4.72839C3.85145 4.59718 3.68215 4.4847 3.49404 4.40972C3.26831 4.29726 3.02376 4.20353 2.72279 4.09106C2.36538 3.95985 2.02678 3.82864 1.68818 3.65993C1.44364 3.52872 1.1991 3.37876 0.992176 3.19131C0.804066 3.04135 0.653574 2.85391 0.559519 2.62897C0.465464 2.40403 0.409033 2.17909 0.409033 1.93541C0.390222 1.41055 0.615957 0.885701 1.01099 0.548295C1.50008 0.154654 2.13965 -0.0327925 2.77922 0.0046971C3.15544 0.0046971 3.53166 0.0421878 3.90789 0.117167C4.28411 0.173401 4.66032 0.285867 4.99892 0.435825C5.07417 0.45457 5.09298 0.548299 5.07417 0.604533L4.84844 1.20436C4.82963 1.24185 4.81081 1.2606 4.792 1.27934C4.77319 1.29809 4.73557 1.29809 4.71676 1.27934C4.35935 1.11064 3.98313 0.979424 3.60691 0.904445C3.30593 0.848211 3.00496 0.810721 2.68517 0.810721C2.32776 0.791976 1.98916 0.8857 1.70699 1.09189C1.48126 1.2606 1.34958 1.52303 1.34958 1.78545C1.34958 1.95416 1.38721 2.10411 1.46245 2.23533C1.55651 2.38529 1.66937 2.49775 1.80105 2.59148C1.98916 2.72269 2.17727 2.81642 2.38419 2.91014L3.21188 3.24755C3.51285 3.36001 3.79502 3.47249 4.05837 3.6037C4.30291 3.71617 4.54746 3.86613 4.75438 4.03483C4.9613 4.20353 5.1306 4.40973 5.24347 4.63466C5.35634 4.91584 5.41277 5.21575 5.41277 5.51567Z" transform="translate(179.587 208.357)" fill="white"/>
<path d="M11.8321 0.0170466C6.22645 0.0170466 2.14446 4.10341 2.14446 4.10341V7.9461C5.17303 5.62174 10.5342 4.02843 12.8667 5.35931C14.6538 6.35279 14.1835 10.158 14.1835 10.158C14.1835 10.158 13.0737 9.83932 9.59363 10.0455C5.6245 10.2892 -8.9698e-09 12.876 -8.9698e-09 18.7618C-8.9698e-09 23.5605 4.08199 26.1848 10.3649 26.1848C16.6478 26.1848 20.3723 23.9542 20.3723 23.9542V6.484C20.3723 -0.657766 11.8321 0.0170466 11.8321 0.0170466ZM14.2023 21.5548C14.2023 21.5548 13.5063 22.0234 11.3242 22.0234C9.14216 22.0234 6.30169 21.1237 6.30169 18.1808C6.30169 15.2378 8.5214 14.1506 11.6628 14.1506H14.1835V21.5548H14.2023Z" transform="translate(129.076 178.391)" fill="white"/>
<path d="M6.32051 0H0V25.1555H6.32051V0Z" transform="translate(155.073 178.914)" fill="white"/>
<path d="M2.37229e-06 6.67315C2.37229e-06 6.67315 -0.0376186 -2.86023e-07 8.38972 -2.86023e-07C11.8886 0.0187445 15.2369 1.36837 17.7764 3.7677V7.55415C17.7764 7.55415 13.7885 4.66745 9.38671 4.66745C6.471 4.66745 6.50862 6.57942 6.50862 6.57942C6.50862 6.57942 6.28289 7.91031 9.3679 9.50361C12.5658 11.1719 19.3189 13.9461 19.3189 19.0635C19.3189 24.1808 13.9014 26.2427 9.80055 26.2427C6.07597 26.2427 1.09104 23.8996 0.169303 22.9811C0.206925 21.594 0.169303 19.1384 0.169303 19.1384C2.8969 20.6755 5.9631 21.519 9.10454 21.594C12.7915 21.594 12.547 19.4946 12.547 19.3259C12.547 19.1572 12.4905 18.0325 10.7035 17.0578C8.91643 16.083 5.49282 14.396 3.00977 12.3716C1.20391 11.0219 0.0940575 8.94127 2.37229e-06 6.67315Z" transform="translate(165.551 178.389)" fill="white"/>
<path d="M6.32051 0H0V6.29825H6.32051V0Z" transform="translate(148.752 172.615)" fill="#CBE7EF"/>
<path d="M6.32051 0H0V6.29825H6.32051V0Z" transform="translate(155.072 166.298)" fill="#77C4D7"/>
<path d="M6.32051 0H0V6.29825H6.32051V0Z" transform="translate(161.393 160)" fill="#BBE1E9"/>
<path d="M61.5 120C45.1 120 29.5786 113.714 18.0107 102.429C6.44286 91.1429 0 76 0 60C0 44 6.44286 28.8571 18.0107 17.5714C29.5786 6.28571 45.1 0 61.5 0C77.3143 0 92.3964 5.85714 103.818 16.5714C116.118 28 123 43.4286 123 60C123 76 116.557 91.1429 104.989 102.429C93.4214 113.714 77.9 120 61.5 120ZM61.5 11.4286C48.175 11.4286 35.7286 16.4286 26.3571 25.7143C16.9857 34.8571 11.7143 47.1429 11.7143 60C11.7143 73 16.8393 85.1429 26.3571 94.2857C35.7286 103.429 48.3214 108.571 61.5 108.571C74.825 108.571 87.2714 103.571 96.6429 94.2857C106.014 85.1429 111.286 72.8571 111.286 60C111.286 46.5714 105.721 34 95.7643 24.8571C86.5393 16.1429 74.3857 11.4286 61.5 11.4286Z" transform="translate(362 204) rotate(90)" fill="#EDF3FF"/>
<path d="M0 120V108.571C13.325 108.571 25.7714 103.571 35.1429 94.2857C44.5143 85.1429 49.7857 72.8571 49.7857 60C49.7857 46.5714 44.2214 34 34.2643 24.8571C25.0393 16.2857 12.7393 11.4286 0 11.4286V0C15.8143 0 30.8964 5.85714 42.3178 16.5714C54.6178 28 61.5 43.4286 61.5 60C61.5 76 55.0571 91.1429 43.4893 102.429C31.9214 113.714 16.4 120 0 120Z" transform="translate(362 265.5) rotate(90)" fill="#3588F9"/>
<path d="M30.6025 83.6364C19.0622 83.6364 8.14007 79.2554 0 71.3896L5.87321 65.7143C12.4677 72.0866 21.329 75.671 30.6025 75.671C39.9791 75.671 48.7374 72.1861 55.3319 65.7143C61.9263 59.342 65.6357 50.7792 65.6357 41.8182C65.6357 32.4589 61.7203 23.697 54.7136 17.3247C48.2222 11.3506 39.5669 7.96537 30.6025 7.96537V0C41.7307 0 52.3437 4.08225 60.3808 11.5498C69.036 19.5152 73.8789 30.2684 73.8789 41.8182C73.8789 52.9697 69.3452 63.5238 61.2051 71.3896C53.065 79.2554 42.1429 83.6364 30.6025 83.6364Z" transform="translate(343.818 235.088) rotate(90)" fill="#3588F9"/>
<path d="M28.6136 57.0163C20.9833 57.0163 13.7618 54.0298 8.3797 48.6675C2.99761 43.3053 0 36.1103 0 28.5082H5.45022C5.45022 34.6849 7.83469 40.4545 12.263 44.7986C16.6232 49.1427 22.4821 51.5862 28.6136 51.5862C34.8133 51.5862 40.6041 49.2105 44.9643 44.7986C49.3245 40.4545 51.7771 34.6171 51.7771 28.5082C51.7771 22.1278 49.1882 16.1546 44.5555 11.8105C40.2635 7.73793 34.5407 5.43013 28.6136 5.43013V0C35.9714 0 42.9886 2.78294 48.3025 7.87369C54.0253 13.3038 57.2273 20.6345 57.2273 28.5082C57.2273 36.1103 54.2297 43.3053 48.8476 48.6675C43.4655 54.0298 36.2439 57.0163 28.6136 57.0163Z" transform="matrix(-0.257791 -0.966201 0.965649 -0.259851 281.847 300.817)" fill="#EDF3FF"/>
<defs>
<filter id="filter0_d" x="300.223" y="241.394" width="219.145" height="219.557" filterUnits="userSpaceOnUse" color-interpolation-filters="sRGB">
<feFlood flood-opacity="0" result="BackgroundImageFix"/>
<feColorMatrix in="SourceAlpha" type="matrix" values="0 0 0 0 0 0 0 0 0 0 0 0 0 0 0 0 0 0 255 0"/>
<feOffset dy="2"/>
<feGaussianBlur stdDeviation="22"/>
<feColorMatrix type="matrix" values="0 0 0 0 0.0901961 0 0 0 0 0.501961 0 0 0 0 0.878431 0 0 0 0.271031 0"/>
<feBlend mode="normal" in2="BackgroundImageFix" result="effect1_dropShadow"/>
<feBlend mode="normal" in="SourceGraphic" in2="effect1_dropShadow" result="shape"/>
</filter>
<filter id="filter1_d" x="71.792" y="6.41626" width="473.427" height="474.626" filterUnits="userSpaceOnUse" color-interpolation-filters="sRGB">
<feFlood flood-opacity="0" result="BackgroundImageFix"/>
<feColorMatrix in="SourceAlpha" type="matrix" values="0 0 0 0 0 0 0 0 0 0 0 0 0 0 0 0 0 0 255 0"/>
<feOffset dy="2"/>
<feGaussianBlur stdDeviation="22"/>
<feColorMatrix type="matrix" values="0 0 0 0 0.0901961 0 0 0 0 0.501961 0 0 0 0 0.878431 0 0 0 0.271031 0"/>
<feBlend mode="normal" in2="BackgroundImageFix" result="effect1_dropShadow"/>
<feBlend mode="normal" in="SourceGraphic" in2="effect1_dropShadow" result="shape"/>
</filter>
<filter id="filter2_d" x="67.1982" y="0.228271" width="484.604" height="486.543" filterUnits="userSpaceOnUse" color-interpolation-filters="sRGB">
<feFlood flood-opacity="0" result="BackgroundImageFix"/>
<feColorMatrix in="SourceAlpha" type="matrix" values="0 0 0 0 0 0 0 0 0 0 0 0 0 0 0 0 0 0 255 0"/>
<feOffset dy="2"/>
<feGaussianBlur stdDeviation="22"/>
<feColorMatrix type="matrix" values="0 0 0 0 0.0901961 0 0 0 0 0.501961 0 0 0 0 0.878431 0 0 0 0.271031 0"/>
<feBlend mode="normal" in2="BackgroundImageFix" result="effect1_dropShadow"/>
<feBlend mode="normal" in="SourceGraphic" in2="effect1_dropShadow" result="shape"/>
</filter>
<filter id="filter3_d" x="0" y="71" width="483" height="349" filterUnits="userSpaceOnUse" color-interpolation-filters="sRGB">
<feFlood flood-opacity="0" result="BackgroundImageFix"/>
<feColorMatrix in="SourceAlpha" type="matrix" values="0 0 0 0 0 0 0 0 0 0 0 0 0 0 0 0 0 0 255 0"/>
<feOffset dy="2"/>
<feGaussianBlur stdDeviation="22"/>
<feColorMatrix type="matrix" values="0 0 0 0 0.0901961 0 0 0 0 0.501961 0 0 0 0 0.878431 0 0 0 0.2 0"/>
<feBlend mode="normal" in2="BackgroundImageFix" result="effect1_dropShadow"/>
<feBlend mode="normal" in="SourceGraphic" in2="effect1_dropShadow" result="shape"/>
</filter>
</defs>
</svg>
