<svg width="516" height="500" viewBox="0 0 516 500" fill="none" xmlns="http://www.w3.org/2000/svg">
<g filter="url(#filter0_d)">
<path fill-rule="evenodd" clip-rule="evenodd" d="M0 15C0 6.71572 6.71573 0 15 0H111.385C119.669 0 126.385 6.71573 126.385 15V111.385C126.385 119.669 119.669 126.385 111.385 126.385H15C6.71572 126.385 0 119.669 0 111.385V15Z" transform="translate(149.27 47) scale(0.998902 1.0011) rotate(45)" fill="white"/>
</g>
<g filter="url(#filter1_d)">
<path fill-rule="evenodd" clip-rule="evenodd" d="M0 15C0 6.71574 6.71573 0 15 0H284.46C292.744 0 299.46 6.71573 299.46 15V284.46C299.46 292.744 292.744 299.46 284.46 299.46H15C6.71574 299.46 0 292.744 0 284.46V15Z" transform="translate(249.5 36) scale(0.998902 1.0011) rotate(45)" fill="white"/>
</g>
<g filter="url(#filter2_d)">
<path fill-rule="evenodd" clip-rule="evenodd" d="M0 15C0 6.71573 6.71573 0 15 0H70.3262C78.6104 0 85.3262 6.71573 85.3262 15V70.3262C85.3262 78.6104 78.6104 85.3262 70.3262 85.3262H15C6.71573 85.3262 0 78.6104 0 70.3262V15Z" transform="translate(400.308 248) scale(0.999559 1.00044) rotate(45)" fill="#66ABFD"/>
</g>
<g filter="url(#filter3_d)">
<path d="M51.3332 22.3032H49.1763C48.5293 19.9213 47.6665 17.7559 46.5881 15.8071L48.0979 14.2913C49.392 12.9921 49.392 10.6102 48.0979 9.31103L45.5097 6.7126C44.2156 5.41338 41.843 5.41338 40.5489 6.7126L39.0391 8.22836C37.0979 6.92914 34.9411 6.06299 32.5685 5.62992V3.46456C32.5685 1.51575 31.0587 0 29.1176 0H25.6666C23.7254 0 22.2156 1.51575 22.2156 3.46456V5.62992C19.8431 6.27953 17.6862 7.14568 15.7451 8.22836L14.2353 6.7126C12.9411 5.41338 10.5686 5.41338 9.27449 6.7126L6.68627 9.31103C5.39215 10.6102 5.39215 12.9921 6.68627 14.2913L8.19606 15.8071C6.90195 17.7559 6.03921 19.9213 5.60784 22.3032H3.45098C1.50981 22.3032 0 23.8189 0 25.7677V29.2323C0 31.1811 1.50981 32.6969 3.45098 32.6969H5.60784C6.2549 35.0788 7.11763 37.2441 8.19606 39.1929L6.68627 40.7087C5.39215 42.0079 5.39215 44.3898 6.68627 45.689L9.27449 48.2874C10.5686 49.5866 12.9411 49.5866 14.2353 48.2874L15.7451 46.7717C17.6862 48.0709 19.8431 48.937 22.2156 49.3701V51.5355C22.2156 53.4843 23.7254 55 25.6666 55H29.1176C31.0587 55 32.5685 53.4843 32.5685 51.5355V49.3701C34.9411 48.7205 37.0979 47.8544 39.0391 46.7717L40.5489 48.2874C41.843 49.5866 44.2156 49.5866 45.5097 48.2874L48.0979 45.689C49.392 44.3898 49.392 42.0079 48.0979 40.7087L46.5881 39.1929C47.8822 37.2441 48.745 35.0788 49.1763 32.6969H51.3332C53.2744 32.6969 54.7842 31.1811 54.7842 29.2323V25.7677C54.7842 23.8189 53.2744 22.3032 51.3332 22.3032ZM27.3921 40.9252C20.0588 40.9252 14.0196 34.8622 14.0196 27.5C14.0196 20.1378 20.0588 14.0748 27.3921 14.0748C34.7254 14.0748 40.7646 20.1378 40.7646 27.5C40.5489 34.8622 34.7254 40.9252 27.3921 40.9252Z" transform="translate(373.213 280)" fill="#FEFFFF"/>
<path d="M26.745 0C26.745 7.14567 20.7058 13.2086 13.3725 13.2086C6.03919 13.2086 0.215686 7.36221 0 0C0 0 0 -1.98276e-05 0 0.216516C0 7.57872 6.03919 13.6417 13.3725 13.6417C20.9215 13.4252 26.745 7.36221 26.745 0Z" transform="translate(387.019 307.717)" fill="#FEFFFF"/>
<path d="M0 0.216532C2.37254 0.866139 4.5294 1.73229 6.47057 2.81497L7.98036 1.29921C9.27448 -3.3557e-06 11.647 -3.3557e-06 12.9411 1.29921L15.5294 3.89765C16.1764 4.54725 16.6078 5.41339 16.6078 6.27953C16.6078 5.41339 16.3921 4.33072 15.5294 3.68111L12.9411 1.08268C11.647 -0.216536 9.27448 -0.216536 7.98036 1.08268L6.47057 2.59844C4.5294 1.29922 2.37254 0.433071 0 0V0.216532Z" transform="translate(405.783 285.63)" fill="#FEFFFF"/>
<path d="M2.58822 0.162402C2.58822 -0.0541339 2.37254 -0.0541339 2.58822 0.162402L1.07843 1.46159C0.431371 2.1112 0 3.1939 0 4.06005C0 3.1939 0.431371 2.32775 1.07843 1.67814L2.58822 0.162402Z" transform="translate(378.823 319.464)" fill="#FEFFFF"/>
<path d="M3.45098 0.216532H6.90197C8.84314 0.216532 10.3529 1.73228 10.3529 3.6811V3.46456C10.3529 1.51575 8.84314 0 6.90197 0H3.45098C1.50981 0 0 1.51575 0 3.46456V3.6811C0 1.73228 1.50981 0.216532 3.45098 0.216532Z" transform="translate(395.215 280)" fill="#FEFFFF"/>
<path d="M0 0L1.50979 1.73229C2.15685 2.3819 2.58822 3.24805 2.58822 4.11419C2.58822 3.24805 2.37254 2.16535 1.50979 1.51574L0 0Z" transform="translate(419.803 319.409)" fill="#FEFFFF"/>
<path d="M4.74508 6.27953H2.58822C1.94116 4.11418 1.07843 1.94882 0 0C1.29411 1.94882 2.15685 4.11417 2.58822 6.49606H4.74508C6.68625 6.49606 8.19606 8.01181 8.19606 9.96063V9.7441C8.19606 7.79528 6.68625 6.27953 4.74508 6.27953Z" transform="translate(419.803 296.024)" fill="#FEFFFF"/>
<path d="M1.07843 3.89765L3.66665 1.29921C4.96076 -3.3557e-06 7.33331 -3.3557e-06 8.62743 1.29921L10.1372 2.81497C12.0784 1.51575 14.2352 0.649603 16.6078 0.216532V0C14.2352 0.649606 12.0784 1.51576 10.1372 2.59844L8.62743 1.08268C7.33331 -0.216536 4.96076 -0.216536 3.66665 1.08268L1.07843 3.68111C0.431371 4.33072 0 5.41339 0 6.27953C0 5.41339 0.431371 4.54725 1.07843 3.89765Z" transform="translate(378.823 285.63)" fill="#FEFFFF"/>
<path d="M3.45097 6.49606H5.60782C6.25488 4.11417 7.11763 1.94882 8.19606 0C7.11763 1.94882 6.25488 4.11418 5.60782 6.27953H3.45097C1.5098 6.27953 0 7.79528 0 9.7441V9.96063C0 8.01181 1.5098 6.49606 3.45097 6.49606Z" transform="translate(372.999 296.024)" fill="#FEFFFF"/>
</g>
<path d="M45.2708 19.4157H43.3845C42.8456 17.2584 42.0372 15.3708 40.9593 13.7528L42.3066 12.4045C43.3845 11.3258 43.3845 9.16854 42.3066 8.08989L40.1509 5.93259C39.073 4.85393 36.9173 4.85393 35.8394 5.93259L34.492 7.2809C32.8752 6.20225 30.7195 5.39326 28.8332 4.85393V2.96629C28.8332 1.34831 27.4859 0 25.869 0H22.3659C20.7491 0 19.4018 1.34831 19.4018 2.96629V4.85393C17.246 5.39326 15.3597 6.20225 13.7429 7.2809L12.3956 5.93259C11.3177 4.85393 9.16195 4.85393 8.08407 5.93259L5.92831 8.08989C4.85043 9.16854 4.85043 11.3258 5.92831 12.4045L7.27565 13.7528C6.19778 15.3708 5.38939 17.5281 4.85045 19.4157H2.96418C1.34736 19.4157 0 20.764 0 22.382V25.618C0 27.236 1.34736 28.5843 2.96418 28.5843H4.85045C5.38939 30.7416 6.19778 32.6292 7.27565 34.2472L5.92831 35.5955C4.85043 36.6741 4.85043 38.8315 5.92831 39.9101L8.08407 42.0674C9.16195 43.1461 11.3177 43.1461 12.3956 42.0674L13.7429 40.7191C15.3597 41.7977 17.5155 42.6067 19.4018 43.1461V45.0337C19.4018 46.6517 20.7491 48 22.3659 48H25.5996C27.2164 48 28.5637 46.6517 28.5637 45.0337V43.1461C30.7195 42.6067 32.6057 41.7977 34.2226 40.7191L35.5699 42.0674C36.6478 43.1461 38.8035 43.1461 39.8814 42.0674L42.0372 39.9101C43.1151 38.8315 43.1151 36.6741 42.0372 35.5955L40.6898 34.2472C41.7677 32.6292 42.5761 30.4719 43.115 28.5843H45.0013C46.6181 28.5843 47.9655 27.236 47.9655 25.618V22.382C48.235 20.764 46.8876 19.4157 45.2708 19.4157ZM23.9828 35.8652C17.5155 35.8652 12.1261 30.4719 12.1261 24C12.1261 17.5281 17.5155 12.1348 23.9828 12.1348C30.45 12.1348 35.8394 17.5281 35.8394 24C35.8394 30.7416 30.45 35.8652 23.9828 35.8652Z" transform="translate(198 341)" fill="#64AAFC"/>
<path d="M70.8176 30.4877H67.962C67.1053 27.3534 65.9632 24.5041 64.2498 21.6548L66.2487 19.6603C68.2476 17.6658 68.2476 14.8165 66.2487 12.8219L62.8221 9.40275C60.8232 7.40823 57.9676 7.40823 55.9687 9.40275L53.9698 11.3973C51.3998 9.68768 48.2587 8.54795 45.1176 7.69315V4.84384C45.1176 2.27945 43.1187 0 40.2632 0H35.4088C32.8388 0 30.5544 1.99452 30.5544 4.84384V7.69315C27.4133 8.54795 24.5577 9.68768 21.7021 11.3973L19.7033 9.40275C17.7044 7.40823 14.8488 7.40823 12.85 9.40275L9.42327 12.8219C7.42439 14.8165 7.42439 17.6658 9.42327 19.6603L11.4222 21.6548C9.70886 24.2192 8.56664 27.3534 7.70997 30.4877H4.85442C2.28443 30.4877 0 32.4822 0 35.3315V40.1754C0 42.7398 1.99887 45.0192 4.85442 45.0192H7.70997C8.56664 48.1535 9.70886 51.0028 11.4222 53.8521L9.42327 55.8466C7.42439 57.8411 7.42439 60.6905 9.42327 62.685L12.85 66.1041C14.8488 68.0987 17.7044 68.0987 19.7033 66.1041L21.7021 64.1096C24.2721 65.8192 27.4133 66.9589 30.5544 67.8137V70.6631C30.5544 73.2274 32.5532 75.5069 35.4088 75.5069H40.2632C42.8332 75.5069 45.1176 73.5124 45.1176 70.6631V67.8137C48.2587 66.9589 51.1143 65.8192 53.9698 64.1096L55.9687 66.1041C57.9676 68.0987 60.8232 68.0987 62.8221 66.1041L66.2487 62.685C68.2476 60.6905 68.2476 57.8411 66.2487 55.8466L64.2498 53.8521C65.9632 51.2877 67.1053 48.1535 67.962 45.0192H70.8176C73.3875 45.0192 75.672 43.0247 75.672 40.1754V35.3315C75.672 32.4822 73.6731 30.4877 70.8176 30.4877ZM38.2643 55.5617C28.2699 55.5617 19.9888 47.5836 19.9888 37.326C19.9888 27.3534 27.9844 19.0904 38.2643 19.0904C48.2587 19.0904 56.5398 27.0685 56.5398 37.326C56.2543 47.5836 48.2587 55.5617 38.2643 55.5617Z" transform="translate(255.848 255.149) rotate(-135)" fill="#64AAFC"/>
<path d="M105.084 45.3041H100.515C99.3731 40.7452 97.6597 36.1863 95.0898 32.1973L98.2308 29.063C101.086 26.2137 101.086 21.6548 98.2308 19.0904L93.0908 13.9616C90.2353 11.1123 85.6664 11.1123 83.0964 13.9616L79.9553 17.0959C75.9576 14.5315 71.6742 12.8219 66.8198 11.6822V7.12329C66.8198 3.13425 63.6787 0 59.6809 0H52.5421C48.5443 0 45.4032 3.13425 45.4032 7.12329V11.6822C40.8343 12.8219 36.2655 14.5315 32.2677 17.0959L29.1266 13.9616C26.271 11.1123 21.7022 11.1123 19.1322 13.9616L13.9922 19.0904C11.1366 21.9397 11.1366 26.4986 13.9922 29.063L17.1333 32.1973C14.5633 36.1863 12.8499 40.4603 11.7077 45.3041H7.13887C3.1411 45.3041 0 48.4384 0 52.4274V59.5507C0 63.5398 3.1411 66.674 7.13887 66.674H11.7077C12.8499 71.2329 14.5633 75.7918 17.1333 79.7809L13.9922 82.9151C11.1366 85.7644 11.1366 90.3233 13.9922 92.8877L19.1322 98.0165C21.9877 100.866 26.5566 100.866 29.1266 98.0165L32.2677 94.8822C36.2655 97.4466 40.5488 99.1562 45.4032 100.296V104.855C45.4032 108.844 48.5443 111.978 52.5421 111.978H59.6809C63.6787 111.978 66.8198 108.844 66.8198 104.855V100.296C71.3887 99.1562 75.9576 97.4466 79.9553 94.8822L83.0964 98.0165C85.952 100.866 90.5208 100.866 93.0908 98.0165L98.2308 92.8877C101.086 90.0384 101.086 85.4795 98.2308 82.9151L95.0898 79.7809C97.6597 75.7918 99.3731 71.5178 100.515 66.674H105.084C109.082 66.674 112.223 63.5398 112.223 59.5507V52.4274C112.223 48.4384 109.082 45.3041 105.084 45.3041ZM56.2543 82.9151C41.4054 82.9151 29.1266 70.948 29.1266 55.8466C29.1266 41.0302 41.1199 28.7781 56.2543 28.7781C71.3887 28.7781 83.382 40.7452 83.382 55.8466C83.0964 70.948 71.1031 82.9151 56.2543 82.9151Z" transform="translate(165.338 330.103) rotate(-135)" fill="#64AAFC"/>
<g filter="url(#filter4_d)">
<path d="M10.0063 68.8689C12.7353 75.5252 13.9482 82.1816 13.645 88.2328C13.645 88.2328 13.645 88.5353 13.9482 88.2328L138.876 36.1924C147.669 32.5617 153.127 22.8797 150.398 13.8029C147.366 2.91075 135.54 -2.83789 125.231 1.39796L0 53.4383V53.7409C3.94189 57.6742 7.27729 62.8177 10.0063 68.8689Z" transform="translate(314.834 94.1088) rotate(-15)" fill="#66ABFD"/>
<path d="M24.8642 46.8192C26.6835 50.7525 27.29 54.9883 27.29 58.9216L44.5736 51.6602C57.3089 46.5166 64.8895 32.5989 61.2508 19.5888C57.0057 3.85563 39.722 -4.01094 25.1674 2.04026L0 12.6299C11.2192 21.7067 19.4062 33.5065 24.8642 46.8192Z" transform="translate(297.204 145.466) rotate(-15)" fill="url(#paint0_linear)"/>
<path d="M7.38291 132.026C27.6988 180.738 83.4916 203.43 132.31 183.159C181.129 162.887 203.871 107.216 183.555 58.504C163.239 10.0944 107.446 -12.9002 58.9307 7.37135C10.1119 27.6429 -12.933 83.6165 7.38291 132.026ZM167.181 65.4629C183.858 105.098 165.058 150.482 125.336 166.821C85.6142 183.461 40.1309 164.703 23.7569 125.067C7.07967 85.4319 25.8794 40.0479 65.6015 23.7096C105.324 7.37135 150.807 26.1301 167.181 65.4629Z" transform="translate(134.935 161.187) rotate(-15)" fill="white"/>
<path opacity="0.5" d="M79.8891 160.075C124.011 160.075 159.778 124.241 159.778 80.0375C159.778 35.834 124.011 0 79.8891 0C35.7676 0 0 35.834 0 80.0375C0 124.241 35.7676 160.075 79.8891 160.075Z" transform="matrix(0.0159214 -0.999872 0.999874 0.0157866 170.623 307.243)" fill="#EDF3FF"/>
<path opacity="0.2" d="M51.3593 71.2163C70.1591 63.3497 79.2558 41.5654 71.372 22.8066C63.4882 4.04789 41.6563 -5.02893 22.8565 2.83763C4.05675 10.7042 -5.03993 32.4885 2.84384 51.2473C10.7276 70.006 32.5596 79.0829 51.3593 71.2163Z" transform="translate(211.366 230.914) rotate(-15)" fill="white"/>
<path opacity="0.2" d="M24.0455 33.3724C32.8389 29.7417 37.0841 19.4546 33.4454 10.6804C29.8067 1.90615 19.4972 -2.32971 10.7038 1.30101C1.91032 4.93174 -2.33481 15.2188 1.30386 23.993C4.94252 32.7673 15.2521 37.0031 24.0455 33.3724Z" transform="translate(192.354 226.636) rotate(-15)" fill="white"/>
<path opacity="0.2" d="M0.881472 16.7402C3.30725 22.7914 10.5846 25.817 16.649 23.0939C22.7134 20.6734 25.7457 13.412 23.0167 7.36079C20.5909 1.30959 13.3135 -1.71603 7.2491 1.00701C1.18467 3.42749 -1.5443 10.3864 0.881472 16.7402Z" transform="translate(236.933 161.746) rotate(-15)" fill="white"/>
</g>
<defs>
<filter id="filter0_d" x="22.2061" y="11.22" width="254.126" height="254.491" filterUnits="userSpaceOnUse" color-interpolation-filters="sRGB">
<feFlood flood-opacity="0" result="BackgroundImageFix"/>
<feColorMatrix in="SourceAlpha" type="matrix" values="0 0 0 0 0 0 0 0 0 0 0 0 0 0 0 0 0 0 255 0"/>
<feOffset dy="2"/>
<feGaussianBlur stdDeviation="22"/>
<feColorMatrix type="matrix" values="0 0 0 0 0.0901961 0 0 0 0 0.501961 0 0 0 0 0.878431 0 0 0 0.271031 0"/>
<feBlend mode="normal" in2="BackgroundImageFix" result="effect1_dropShadow"/>
<feBlend mode="normal" in="SourceGraphic" in2="effect1_dropShadow" result="shape"/>
</filter>
<filter id="filter1_d" x="0.188477" y="0.219971" width="498.622" height="499.525" filterUnits="userSpaceOnUse" color-interpolation-filters="sRGB">
<feFlood flood-opacity="0" result="BackgroundImageFix"/>
<feColorMatrix in="SourceAlpha" type="matrix" values="0 0 0 0 0 0 0 0 0 0 0 0 0 0 0 0 0 0 255 0"/>
<feOffset dy="2"/>
<feGaussianBlur stdDeviation="22"/>
<feColorMatrix type="matrix" values="0 0 0 0 0.0901961 0 0 0 0 0.501961 0 0 0 0 0.878431 0 0 0 0.271031 0"/>
<feBlend mode="normal" in2="BackgroundImageFix" result="effect1_dropShadow"/>
<feBlend mode="normal" in="SourceGraphic" in2="effect1_dropShadow" result="shape"/>
</filter>
<filter id="filter2_d" x="302.21" y="212.216" width="196.195" height="196.291" filterUnits="userSpaceOnUse" color-interpolation-filters="sRGB">
<feFlood flood-opacity="0" result="BackgroundImageFix"/>
<feColorMatrix in="SourceAlpha" type="matrix" values="0 0 0 0 0 0 0 0 0 0 0 0 0 0 0 0 0 0 255 0"/>
<feOffset dy="2"/>
<feGaussianBlur stdDeviation="22"/>
<feColorMatrix type="matrix" values="0 0 0 0 0.0901961 0 0 0 0 0.501961 0 0 0 0 0.878431 0 0 0 0.271031 0"/>
<feBlend mode="normal" in2="BackgroundImageFix" result="effect1_dropShadow"/>
<feBlend mode="normal" in="SourceGraphic" in2="effect1_dropShadow" result="shape"/>
</filter>
<filter id="filter3_d" x="328.999" y="238" width="143" height="143" filterUnits="userSpaceOnUse" color-interpolation-filters="sRGB">
<feFlood flood-opacity="0" result="BackgroundImageFix"/>
<feColorMatrix in="SourceAlpha" type="matrix" values="0 0 0 0 0 0 0 0 0 0 0 0 0 0 0 0 0 0 255 0"/>
<feOffset dy="2"/>
<feGaussianBlur stdDeviation="22"/>
<feColorMatrix type="matrix" values="0 0 0 0 0.0901961 0 0 0 0 0.501961 0 0 0 0 0.878431 0 0 0 0.271031 0"/>
<feBlend mode="normal" in2="BackgroundImageFix" result="effect1_dropShadow"/>
<feBlend mode="normal" in="SourceGraphic" in2="effect1_dropShadow" result="shape"/>
</filter>
<filter id="filter4_d" x="112.421" y="17.2385" width="397.773" height="352.607" filterUnits="userSpaceOnUse" color-interpolation-filters="sRGB">
<feFlood flood-opacity="0" result="BackgroundImageFix"/>
<feColorMatrix in="SourceAlpha" type="matrix" values="0 0 0 0 0 0 0 0 0 0 0 0 0 0 0 0 0 0 255 0"/>
<feOffset dy="2"/>
<feGaussianBlur stdDeviation="22"/>
<feColorMatrix type="matrix" values="0 0 0 0 0.0901961 0 0 0 0 0.501961 0 0 0 0 0.878431 0 0 0 0.271031 0"/>
<feBlend mode="normal" in2="BackgroundImageFix" result="effect1_dropShadow"/>
<feBlend mode="normal" in="SourceGraphic" in2="effect1_dropShadow" result="shape"/>
</filter>
<linearGradient id="paint0_linear" x2="1" gradientUnits="userSpaceOnUse" gradientTransform="matrix(96.6301 18.0518 -19.045 101.947 -24.6097 -51.2431)">
<stop stop-color="#25A5EE"/>
<stop offset="1" stop-color="#28DEFA"/>
</linearGradient>
</defs>
</svg>
