<svg width="634" height="404" viewBox="0 0 634 404" fill="none" xmlns="http://www.w3.org/2000/svg">
<g filter="url(#filter0_d)">
<path fill-rule="evenodd" clip-rule="evenodd" d="M0 15C0 6.71571 6.71573 0 15 0H194.955C203.239 0 209.955 6.71573 209.955 15V194.955C209.955 203.24 203.239 209.955 194.955 209.955H15C6.71573 209.955 0 203.24 0 194.955V15Z" transform="translate(445.022 67) scale(0.999595 1.00041) rotate(44.0887)" fill="white"/>
</g>
<g filter="url(#filter1_d)">
<path fill-rule="evenodd" clip-rule="evenodd" d="M0 15C0 6.71574 6.71573 0 15 0H89.7548C98.0391 0 104.755 6.71573 104.755 15V89.7552C104.755 98.0395 98.0391 104.755 89.7548 104.755H15C6.71572 104.755 0 98.0395 0 89.7552V15Z" transform="translate(446.768 187) scale(0.999595 1.00041) rotate(44.0887)" fill="#61A9FC"/>
</g>
<g filter="url(#filter2_d)">
<path fill-rule="evenodd" clip-rule="evenodd" d="M0 15C0 6.71573 6.71573 0 15 0H50.1182C58.4025 0 65.1182 6.71573 65.1182 15V50.1184C65.1182 58.4027 58.4025 65.1184 50.1182 65.1184H15C6.71574 65.1184 0 58.4027 0 50.1184V15Z" transform="translate(83.2893 238) scale(0.999595 1.00041) rotate(44.0887)" fill="white"/>
</g>
<g filter="url(#filter3_d)">
<path d="M303.62 0H0L151.81 98.0975L303.62 0Z" transform="translate(142 140.063)" fill="white"/>
<path d="M285.455 0H0V86.3134L142.728 116.256L285.455 79.5944V0Z" transform="translate(151.083 140.063)" fill="#EDF3FF"/>
<path d="M0 98.0631H303.62L151.81 0L0 98.0631Z" transform="translate(142 42)" fill="white"/>
<path d="M0 92.2055H285.455L142.728 0L0 92.2055Z" transform="translate(151.083 47.8574)" fill="#D9E6FF"/>
<path d="M180 0H0V89.0931L90 120L180 82.1577V0Z" transform="translate(204 111)" fill="#62A9FC"/>
<path d="M0 0V172.902L151.81 86.4512L0 0Z" transform="translate(142 139.408)" fill="white"/>
<path d="M151.81 172.902V0L0 86.4512L151.81 172.902Z" transform="translate(293.81 139.408)" fill="white"/>
<path d="M1.87729 86.6404L151.983 0.576356L302.088 86.6404H1.87729Z" transform="translate(142.035 225.86)" fill="white" stroke="#EDF3FF"/>
<path d="M2.5697 0.102977C2.5697 0.0628096 2.5697 0.0326852 2.59993 0.0226434C2.63017 0.0126015 2.6604 0.0126015 2.68055 0.0226434H2.97279C3.00303 0.0126015 3.03326 0.0126015 3.05341 0.0226434C3.07357 0.0427271 3.08364 0.0728515 3.08364 0.102977V3.69797C3.09372 3.76826 3.07357 3.84859 3.02318 3.90884C2.96272 3.9691 2.8821 3.98918 2.80148 3.97914H2.65032C2.57978 3.98918 2.51932 3.9691 2.46893 3.92893C2.41854 3.87872 2.36816 3.81847 2.32785 3.75822L0.977495 1.51888L0.534095 0.755698H0.513941V3.87872C0.513941 3.90885 0.513941 3.93897 0.493786 3.95905C0.463554 3.9691 0.433322 3.9691 0.403091 3.95905H0.11085C0.0806181 3.9691 0.0604636 3.9691 0.0302318 3.95905C0.0302318 3.95905 -2.40261e-09 3.91889 -2.40261e-09 3.87872V0.283733C-2.40261e-09 0.203398 0.0302318 0.133104 0.0806181 0.0728527C0.141082 0.0226434 0.2217 -0.00748347 0.302318 0.0025584H0.453477C0.513941 -0.00748347 0.584481 0.0126003 0.634868 0.0527677C0.685254 0.102977 0.73564 0.163229 0.765872 0.223481L2.07592 2.40256L2.55963 3.226L2.5697 0.102977Z" transform="translate(223 149.946)" fill="white"/>
<path d="M3.3823 2.01968C3.42261 2.56194 3.27145 3.1042 2.95905 3.55609C2.63658 3.92764 2.16295 4.12848 1.67924 4.08831C1.19553 4.12848 0.731975 3.92764 0.41958 3.56613C0.117262 3.12429 -0.0338965 2.58203 0.00641256 2.04981C-0.00366471 1.74855 0.0467215 1.45734 0.137417 1.17617C0.207958 0.945204 0.328885 0.72428 0.490121 0.533485C0.631203 0.362773 0.812594 0.222187 1.01414 0.13181C1.22576 0.0414334 1.45754 -0.00877476 1.68932 0.00126711C1.94125 -0.00877476 2.20326 0.041434 2.43503 0.141853C2.64666 0.232229 2.82805 0.372816 2.96913 0.543527C3.12029 0.734323 3.22106 0.955243 3.2916 1.18621C3.36214 1.43725 3.39237 1.72847 3.3823 2.01968ZM2.8482 2.03977C2.8482 1.83893 2.83812 1.63809 2.80789 1.43725C2.77766 1.2565 2.72727 1.08579 2.63658 0.92512C2.55596 0.774492 2.43503 0.65399 2.28387 0.573655C2.11256 0.483278 1.91102 0.433067 1.70947 0.443109C1.52808 0.443109 1.34669 0.483278 1.18545 0.573655C1.03429 0.65399 0.903289 0.774492 0.812594 0.915078C0.711821 1.06571 0.64128 1.23642 0.600971 1.40713C0.550585 1.60797 0.53043 1.8088 0.53043 2.00964C0.53043 2.23056 0.550585 2.44144 0.590894 2.65232C0.621126 2.83307 0.681589 3.00379 0.762207 3.15441C0.852903 3.295 0.983907 3.40546 1.13507 3.46571C1.30638 3.55609 1.49785 3.59626 1.68932 3.58622C1.88078 3.59626 2.07225 3.55609 2.23349 3.46571C2.38465 3.38538 2.51565 3.26487 2.60635 3.11425C2.69704 2.96362 2.76758 2.79291 2.79781 2.61215C2.83812 2.4314 2.85828 2.23056 2.8482 2.03977Z" transform="translate(226.823 149.907)" fill="white"/>
<path d="M2.11371 3.7657C2.09355 3.82595 2.06332 3.87616 2.02301 3.92637C1.97263 3.96654 1.92224 3.98662 1.86177 3.97658H1.60984C1.54938 3.98662 1.47884 3.96654 1.41838 3.93641C1.36799 3.89625 1.32768 3.83599 1.30752 3.7657L0.00755826 0.0702937C-0.00251901 0.05021 -0.00251901 0.0301262 0.00755826 0.0200843C0.00755826 0.0200843 0.0277128 -6.12907e-07 0.0579446 -6.12907e-07H0.481189C0.521499 -6.12907e-07 0.561808 0.0301262 0.581962 0.0702937C0.581962 0.0702937 0.602117 0.140586 0.642426 0.251046L0.783507 0.672806C0.843971 0.843518 0.904435 1.02427 0.964899 1.22511C1.03544 1.42595 1.0959 1.59666 1.15637 1.79749C1.21683 1.99833 1.27729 2.14896 1.3176 2.28955C1.36799 2.43013 1.39822 2.52051 1.41838 2.57072L1.46876 2.72135C1.49899 2.81172 1.52922 2.9021 1.55946 3.00252L1.65015 3.28369C1.68038 3.37407 1.70054 3.42428 1.71062 3.44436H1.74085L2.01293 2.58076L2.85942 0.0803362C2.8695 0.0602524 2.88966 0.0301262 2.90981 0.0200843H2.98035H3.36329C3.4036 0.0200843 3.42375 0.0502081 3.4036 0.0903756L2.11371 3.7657Z" transform="translate(230.591 149.948)" fill="white"/>
<path d="M2.8695 3.95905C2.83927 3.95905 2.81911 3.95905 2.78888 3.95905C2.76873 3.95905 2.74857 3.92893 2.7385 3.88876L2.45633 3.05529H0.854048L0.571885 3.88876C0.561807 3.93897 0.511421 3.97914 0.450958 3.97914H0.0780991C0.0377901 3.97914 0.0176351 3.97914 0.0075578 3.94901C-0.00251947 3.91889 -0.00251947 3.8988 0.0075578 3.86868L1.29745 0.223479C1.3176 0.153186 1.34783 0.0929364 1.39822 0.052769C1.45868 0.0226434 1.51915 0.00255962 1.58969 0.00255962H1.761C1.83154 -0.00748224 1.90208 0.0126015 1.96255 0.052769C2.01293 0.102978 2.04317 0.163228 2.06332 0.223479L3.34313 3.86868C3.35321 3.88876 3.35321 3.91889 3.34313 3.93897C3.34313 3.95905 3.3129 3.9691 3.27259 3.9691L2.8695 3.95905ZM1.92224 1.39838L1.65015 0.564905H1.61992L1.35791 1.36825L0.985053 2.58332H2.30517L1.92224 1.39838Z" transform="translate(234.047 149.966)" fill="white"/>
<path d="M1.19668 0.461926H0.0680222C0.0377904 0.461926 0.00755795 0.461925 0.00755795 0.441841C-0.00251932 0.421758 -0.00251932 0.391634 0.00755795 0.37155V0.0903762C-0.00251932 0.0702924 -0.00251932 0.0401687 0.00755795 0.020085C0.00755795 0.020085 0.0377904 0 0.0680222 0H2.85942C2.88966 0 2.91989 1.22551e-06 2.91989 0.020085C2.92996 0.0401687 2.92996 0.0702924 2.91989 0.0903762V0.37155C2.92996 0.391634 2.92996 0.421758 2.91989 0.441841C2.91989 0.441841 2.88966 0.461926 2.85942 0.461926H1.73077V3.87616C1.73077 3.90629 1.73077 3.93641 1.71062 3.95649C1.68038 3.96654 1.66023 3.96654 1.63 3.95649H1.30752C1.27729 3.96654 1.24706 3.96654 1.22691 3.95649C1.20675 3.93641 1.19668 3.90629 1.19668 3.87616V0.461926Z" transform="translate(237.413 149.958)" fill="white"/>
<path d="M0 0.0878657C0 0.0476983 3.06332e-07 0.0175739 0.0302321 0.00753201C0.0604639 -0.00250985 0.090696 -0.00250985 0.110851 0.00753201H0.423245C0.453477 -0.00250985 0.483709 -0.00250985 0.513941 0.00753201C0.513941 0.00753201 0.534095 0.0476983 0.534095 0.0878657V3.86361C0.534095 3.89373 0.534096 3.92386 0.513941 3.94394C0.483709 3.95398 0.453477 3.95398 0.423245 3.94394H0.110851C0.0806188 3.95398 0.0503866 3.95398 0.0302321 3.94394C0.0100776 3.94394 0 3.90378 0 3.86361V0.0878657Z" transform="translate(240.948 149.961)" fill="white"/>
<path d="M3.39237 2.01968C3.43268 2.56194 3.28152 3.1042 2.95905 3.55609C2.64666 3.92764 2.16295 4.12848 1.67924 4.08831C1.19553 4.12848 0.731975 3.92764 0.41958 3.56613C0.117262 3.12429 -0.0338964 2.59207 0.00641271 2.04981C-0.00366456 1.74855 0.0467221 1.45734 0.137417 1.17617C0.207958 0.945204 0.328885 0.72428 0.490122 0.533485C0.631203 0.362773 0.82267 0.222187 1.02422 0.13181C1.23584 0.0414334 1.46762 -0.00877476 1.69939 0.00126711C1.9614 -0.00877476 2.21333 0.041434 2.44511 0.141853C2.65673 0.232229 2.83812 0.372816 2.97921 0.543527C3.13036 0.734323 3.24121 0.955243 3.30168 1.18621C3.37222 1.44729 3.40245 1.72847 3.39237 2.01968ZM2.8482 2.03977C2.8482 1.83893 2.82805 1.63809 2.79781 1.43725C2.76758 1.2565 2.70712 1.08579 2.6265 0.92512C2.54588 0.784534 2.42496 0.664032 2.2738 0.573655C2.10248 0.483278 1.90094 0.433067 1.69939 0.443109C1.518 0.443109 1.33661 0.483278 1.17537 0.573655C1.02422 0.65399 0.893211 0.774492 0.802516 0.915078C0.701743 1.06571 0.631203 1.23642 0.580817 1.40713C0.53043 1.60797 0.510276 1.8088 0.510276 2.00964C0.510276 2.23056 0.53043 2.44144 0.570739 2.65232C0.60097 2.83307 0.661435 3.00379 0.762208 3.15441C0.852903 3.295 0.983907 3.40546 1.13507 3.4858C1.30638 3.57617 1.49785 3.61634 1.68932 3.6063C1.88078 3.6063 2.06217 3.56613 2.23349 3.47575C2.38465 3.39542 2.51565 3.27492 2.60635 3.12429C2.70712 2.97366 2.76758 2.80295 2.79781 2.6222C2.8482 2.4314 2.85828 2.23056 2.8482 2.03977Z" transform="translate(242.281 149.907)" fill="white"/>
<path d="M2.58173 0.092842C2.58173 0.0526745 2.59181 0.0225502 2.60189 0.0125083C2.63212 0.00246643 2.66235 0.00246643 2.68251 0.0125083H2.97475C3.00498 0.00246643 3.03521 0.00246643 3.05536 0.0125083C3.07552 0.0125083 3.0856 0.0526745 3.0856 0.092842V3.68783C3.09568 3.75813 3.07552 3.83846 3.02513 3.89871C2.96467 3.95896 2.88405 3.97905 2.80343 3.969H2.65227C2.58173 3.97905 2.52127 3.95896 2.47088 3.91879C2.4205 3.86859 2.37011 3.80833 2.33988 3.74808L0.989525 1.50875L0.536048 0.735521V3.86859C0.536048 3.89871 0.536048 3.92884 0.515893 3.94892C0.485662 3.95896 0.45543 3.95896 0.425199 3.94892H0.112803C0.082571 3.95896 0.0624161 3.95896 0.0321843 3.94892C0.0120298 3.92884 0.00195374 3.89871 0.00195374 3.86859V0.283637C-0.00812353 0.203302 0.0221074 0.133011 0.0624164 0.0727601C0.12288 0.0125089 0.213576 -0.00757606 0.294194 0.00246581H0.445353C0.505817 0.00246581 0.576358 0.0125077 0.626744 0.0526752C0.67713 0.102885 0.71744 0.163137 0.757749 0.223388L2.08795 2.40247L2.5515 3.22591L2.58173 0.092842Z" transform="translate(246.398 149.956)" fill="white"/>
<path d="M2.89968 2.95482C2.89968 3.12554 2.86944 3.29625 2.78883 3.44688C2.71829 3.58746 2.61751 3.70796 2.49659 3.79834C2.36558 3.89876 2.21442 3.96905 2.05319 4.00922C1.8718 4.05943 1.69041 4.07952 1.49894 4.07952C1.38809 4.07952 1.27724 4.07952 1.15631 4.07952C1.03538 4.07952 0.904378 4.04939 0.783451 4.02931C0.652446 4.00922 0.531518 3.9791 0.410591 3.93893C0.279586 3.89876 0.158661 3.85859 0.0377339 3.79834C-0.00257519 3.77826 -0.0126537 3.73809 0.0175781 3.68788L0.148581 3.38663C0.158659 3.3565 0.188892 3.33642 0.219123 3.34646C0.229201 3.34646 0.229202 3.34646 0.239279 3.3565C0.440824 3.44688 0.642367 3.50713 0.85399 3.55734C1.04546 3.60755 1.23693 3.62763 1.4284 3.62763C1.66017 3.63767 1.90203 3.58746 2.10357 3.46696C2.26481 3.36654 2.3555 3.18579 2.34543 2.99499C2.3555 2.90461 2.34543 2.81424 2.31519 2.73391C2.27488 2.65357 2.21442 2.58328 2.14388 2.53307C2.06326 2.46278 1.97257 2.40252 1.87179 2.36236C1.75087 2.3021 1.61986 2.25189 1.45863 2.19164C1.26716 2.12135 1.08577 2.05106 0.904376 1.96068C0.773372 1.89039 0.642369 1.81005 0.531519 1.70963C0.430747 1.6293 0.350127 1.52888 0.29974 1.40838C0.249354 1.28788 0.219123 1.16737 0.219123 1.03683C0.209046 0.755655 0.329975 0.474483 0.541597 0.29373C0.803606 0.0828507 1.14623 -0.0175674 1.48886 0.00251631C1.6904 0.00251631 1.89195 0.0226007 2.0935 0.0627681C2.29504 0.0928937 2.49658 0.153143 2.67798 0.233478C2.71828 0.24352 2.72836 0.293732 2.71828 0.323857L2.59736 0.645195C2.58728 0.665279 2.5772 0.67532 2.56712 0.685362C2.55705 0.695404 2.53689 0.695404 2.52682 0.685362C2.33535 0.594985 2.1338 0.524692 1.93226 0.484525C1.77102 0.454399 1.60979 0.434315 1.43847 0.434315C1.24701 0.424274 1.06561 0.474483 0.914454 0.584943C0.793527 0.67532 0.722987 0.815908 0.722987 0.956494C0.722987 1.04687 0.743142 1.1272 0.783451 1.1975C0.833837 1.27783 0.8943 1.33808 0.96484 1.38829C1.06561 1.45859 1.16639 1.5088 1.27724 1.55901L1.72064 1.73976C1.88187 1.80001 2.03303 1.86026 2.17411 1.93056C2.30512 1.99081 2.43612 2.07114 2.54697 2.16152C2.65782 2.25189 2.74852 2.36236 2.80898 2.48286C2.86945 2.63349 2.89968 2.79416 2.89968 2.95482Z" transform="translate(250.101 149.906)" fill="white"/>
<path d="M6.3386 0.00913211C3.33557 0.00913211 1.14881 2.19826 1.14881 2.19826V4.25684C2.77125 3.01165 5.64327 2.15809 6.89285 2.87106C7.85019 3.40328 7.59826 5.44178 7.59826 5.44178C7.59826 5.44178 7.0037 5.27107 5.13941 5.38153C3.0131 5.51207 -4.80522e-09 6.89785 -4.80522e-09 10.051C-4.80522e-09 12.6217 2.18677 14.0276 5.55257 14.0276C8.91838 14.0276 10.9137 12.8326 10.9137 12.8326V3.47358C10.9137 -0.352375 6.3386 0.00913211 6.3386 0.00913211ZM7.60834 11.5472C7.60834 11.5472 7.23548 11.7983 6.06651 11.7983C4.89755 11.7983 3.37588 11.3163 3.37588 9.7397C3.37588 8.16313 4.565 7.5807 6.2479 7.5807H7.59826V11.5472H7.60834Z" transform="translate(223.041 133.853)" fill="white"/>
<path d="M3.38596 0H0V13.4762H3.38596V0Z" transform="translate(236.967 134.132)" fill="white"/>
<path d="M1.27086e-06 3.5749C1.27086e-06 3.5749 -0.0201527 -1.53227e-07 4.49446 -1.53227e-07C6.36883 0.0100417 8.16259 0.733056 9.52302 2.01841V4.04687C9.52302 4.04687 7.38664 2.50042 5.02856 2.50042C3.46658 2.50042 3.48674 3.5247 3.48674 3.5247C3.48674 3.5247 3.36581 4.23767 5.01848 5.09123C6.73162 5.98495 10.3494 7.47115 10.3494 10.2126C10.3494 12.954 7.4471 14.0586 5.25026 14.0586C3.25496 14.0586 0.584484 12.8034 0.0906976 12.3113C0.110852 11.5682 0.0906976 10.2527 0.0906976 10.2527C1.5519 11.0762 3.1945 11.5281 4.8774 11.5682C6.85254 11.5682 6.72154 10.4435 6.72154 10.3532C6.72154 10.2628 6.69131 9.66028 5.73397 9.1381C4.77663 8.61592 2.94256 7.71215 1.61236 6.62763C0.644946 5.90462 0.0503876 4.78997 1.27086e-06 3.5749Z" transform="translate(242.58 133.851)" fill="white"/>
<path d="M3.38596 0H0V3.37407H3.38596V0Z" transform="translate(233.582 130.758)" fill="white"/>
<path d="M3.38596 0H0V3.37407H3.38596V0Z" transform="translate(236.968 127.374)" fill="white"/>
<path d="M3.38596 0H0V3.37407H3.38596V0Z" transform="translate(240.354 124)" fill="white"/>
<rect width="12" height="12" transform="translate(415 267)" fill="#66ABFD"/>
<rect x="1" y="1" width="10" height="10" transform="translate(403 255)" stroke="#64AAFC" stroke-width="2"/>
</g>
<g filter="url(#filter4_d)">
<path fill-rule="evenodd" clip-rule="evenodd" d="M0 5C0 2.23858 2.23858 0 5 0H29.9464C32.7079 0 34.9464 2.23858 34.9464 5V29.9464C34.9464 32.7079 32.7079 34.9464 29.9464 34.9464H5C2.23858 34.9464 0 32.7079 0 29.9464V5Z" transform="translate(105.701 182) scale(0.999595 1.00041) rotate(45)" fill="white"/>
</g>
<defs>
<filter id="filter0_d" x="261.208" y="31.2131" width="372.347" height="372.578" filterUnits="userSpaceOnUse" color-interpolation-filters="sRGB">
<feFlood flood-opacity="0" result="BackgroundImageFix"/>
<feColorMatrix in="SourceAlpha" type="matrix" values="0 0 0 0 0 0 0 0 0 0 0 0 0 0 0 0 0 0 255 0"/>
<feOffset dy="2"/>
<feGaussianBlur stdDeviation="22"/>
<feColorMatrix type="matrix" values="0 0 0 0 0.0901961 0 0 0 0 0.501961 0 0 0 0 0.878431 0 0 0 0.271031 0"/>
<feBlend mode="normal" in2="BackgroundImageFix" result="effect1_dropShadow"/>
<feBlend mode="normal" in="SourceGraphic" in2="effect1_dropShadow" result="shape"/>
</filter>
<filter id="filter1_d" x="336.12" y="151.213" width="223.651" height="223.761" filterUnits="userSpaceOnUse" color-interpolation-filters="sRGB">
<feFlood flood-opacity="0" result="BackgroundImageFix"/>
<feColorMatrix in="SourceAlpha" type="matrix" values="0 0 0 0 0 0 0 0 0 0 0 0 0 0 0 0 0 0 255 0"/>
<feOffset dy="2"/>
<feGaussianBlur stdDeviation="22"/>
<feColorMatrix type="matrix" values="0 0 0 0 0.0901961 0 0 0 0 0.501961 0 0 0 0 0.878431 0 0 0 0.271031 0"/>
<feBlend mode="normal" in2="BackgroundImageFix" result="effect1_dropShadow"/>
<feBlend mode="normal" in="SourceGraphic" in2="effect1_dropShadow" result="shape"/>
</filter>
<filter id="filter2_d" x="0.208008" y="202.213" width="167.626" height="167.691" filterUnits="userSpaceOnUse" color-interpolation-filters="sRGB">
<feFlood flood-opacity="0" result="BackgroundImageFix"/>
<feColorMatrix in="SourceAlpha" type="matrix" values="0 0 0 0 0 0 0 0 0 0 0 0 0 0 0 0 0 0 255 0"/>
<feOffset dy="2"/>
<feGaussianBlur stdDeviation="22"/>
<feColorMatrix type="matrix" values="0 0 0 0 0.0901961 0 0 0 0 0.501961 0 0 0 0 0.878431 0 0 0 0.271031 0"/>
<feBlend mode="normal" in2="BackgroundImageFix" result="effect1_dropShadow"/>
<feBlend mode="normal" in="SourceGraphic" in2="effect1_dropShadow" result="shape"/>
</filter>
<filter id="filter3_d" x="98.0002" y="0" width="392" height="359" filterUnits="userSpaceOnUse" color-interpolation-filters="sRGB">
<feFlood flood-opacity="0" result="BackgroundImageFix"/>
<feColorMatrix in="SourceAlpha" type="matrix" values="0 0 0 0 0 0 0 0 0 0 0 0 0 0 0 0 0 0 255 0"/>
<feOffset dy="2"/>
<feGaussianBlur stdDeviation="22"/>
<feColorMatrix type="matrix" values="0 0 0 0 0.0901961 0 0 0 0 0.501961 0 0 0 0 0.878431 0 0 0 0.2 0"/>
<feBlend mode="normal" in2="BackgroundImageFix" result="effect1_dropShadow"/>
<feBlend mode="normal" in="SourceGraphic" in2="effect1_dropShadow" result="shape"/>
</filter>
<filter id="filter4_d" x="39.0706" y="142.072" width="133.261" height="133.298" filterUnits="userSpaceOnUse" color-interpolation-filters="sRGB">
<feFlood flood-opacity="0" result="BackgroundImageFix"/>
<feColorMatrix in="SourceAlpha" type="matrix" values="0 0 0 0 0 0 0 0 0 0 0 0 0 0 0 0 0 0 255 0"/>
<feOffset dy="2"/>
<feGaussianBlur stdDeviation="22"/>
<feColorMatrix type="matrix" values="0 0 0 0 0.0901961 0 0 0 0 0.501961 0 0 0 0 0.878431 0 0 0 0.271031 0"/>
<feBlend mode="normal" in2="BackgroundImageFix" result="effect1_dropShadow"/>
<feBlend mode="normal" in="SourceGraphic" in2="effect1_dropShadow" result="shape"/>
</filter>
</defs>
</svg>
