<svg width="62" height="62" viewBox="0 0 62 62" fill="none" xmlns="http://www.w3.org/2000/svg">
<path d="M8.57447 16.8521V0.989359C8.57447 0.445211 8.12926 0 7.58511 0H0.989362C0.445213 0 0 0.445211 0 0.989359C0 1.53351 0.445213 1.97872 0.989362 1.97872H6.59574V16.8521C4.69947 17.2973 3.29787 18.9957 3.29787 21.0239C3.29787 23.3818 5.22713 25.3111 7.58511 25.3111C9.94308 25.3111 11.8723 23.3818 11.8723 21.0239C11.8723 18.9957 10.4707 17.2973 8.57447 16.8521ZM7.58511 23.3324C6.31543 23.3324 5.2766 22.2936 5.2766 21.0239C5.2766 19.7542 6.31543 18.7154 7.58511 18.7154C8.85479 18.7154 9.89362 19.7542 9.89362 21.0239C9.89362 22.2936 8.85479 23.3324 7.58511 23.3324Z" transform="translate(18.1384 36.689)" fill="#3588F9"/>
<path d="M8.57447 16.8521V0.989359C8.57447 0.445211 8.12926 0 7.58511 0H0.989362C0.445213 0 0 0.445211 0 0.989359C0 1.53351 0.445213 1.97872 0.989362 1.97872H6.59574V16.8521C4.69947 17.2973 3.29787 18.9957 3.29787 21.0239C3.29787 23.3818 5.22713 25.3111 7.58511 25.3111C9.94308 25.3111 11.8723 23.3818 11.8723 21.0239C11.8723 18.9957 10.4707 17.2973 8.57447 16.8521ZM7.58511 23.3324C6.31543 23.3324 5.2766 22.2936 5.2766 21.0239C5.2766 19.7542 6.31543 18.7154 7.58511 18.7154C8.85479 18.7154 9.89362 19.7542 9.89362 21.0239C9.89362 22.2936 8.85479 23.3324 7.58511 23.3324Z" transform="translate(28.6914 36.689)" fill="#3588F9"/>
<path d="M14.8404 10.1409C12.8122 10.1409 11.1138 11.5425 10.6686 13.4388H8.57447V0.989359C8.57447 0.445211 8.12926 0 7.58511 0H0.989362C0.445213 0 0 0.445211 0 0.989359C0 1.53351 0.445213 1.97872 0.989362 1.97872H6.59574V14.4281C6.59574 14.9723 7.04096 15.4175 7.58511 15.4175H10.6686C11.1138 17.3138 12.8122 18.7154 14.8404 18.7154C17.1984 18.7154 19.1277 16.7861 19.1277 14.4281C19.1277 12.0702 17.1984 10.1409 14.8404 10.1409ZM14.8404 16.7367C13.5707 16.7367 12.5319 15.6978 12.5319 14.4281C12.5319 13.1585 13.5707 12.1196 14.8404 12.1196C16.1101 12.1196 17.1489 13.1585 17.1489 14.4281C17.1489 15.6978 16.1101 16.7367 14.8404 16.7367Z" transform="translate(39.2449 36.689)" fill="#3588F9"/>
<path d="M59.642 21.3042C58.3064 19.6553 56.4925 18.4186 54.4809 17.792C54.25 13.109 52.3043 8.73934 48.9569 5.42498C45.4282 1.92925 40.7452 0 35.7819 0C29.2521 0 23.217 3.3968 19.8037 8.93721C18.9793 8.67338 18.1218 8.54146 17.2479 8.54146C13.208 8.54146 9.72872 11.3941 8.88777 15.2856C3.69362 16.6377 0 21.3701 0 26.7951C0 33.3414 5.32606 38.6839 11.8888 38.6839H14.1809V50.1275H12.0867C11.6415 48.2312 9.94308 46.8296 7.91489 46.8296C5.55691 46.8296 3.62766 48.7589 3.62766 51.1169C3.62766 53.4748 5.55691 55.4041 7.91489 55.4041C9.94308 55.4041 11.6415 54.0025 12.0867 52.1062H15.1702C15.7144 52.1062 16.1596 51.661 16.1596 51.1169V37.6781C16.1596 37.1339 15.7144 36.6887 15.1702 36.6887H11.8888C6.43085 36.6887 1.97872 32.2531 1.97872 26.7786C1.97872 22.0627 5.32606 17.9734 9.94308 17.0664C10.3553 16.984 10.6686 16.6377 10.7346 16.2255C11.1633 12.9771 13.9665 10.5202 17.2479 10.5202C18.1548 10.5202 19.0287 10.7016 19.8532 11.0643C20.3149 11.2622 20.859 11.0808 21.1064 10.6356C24.058 5.29307 29.6809 1.97872 35.7819 1.97872C44.9335 1.97872 52.4527 9.43189 52.5351 18.567C52.5351 19.0287 52.8484 19.4244 53.2936 19.5233C57.2511 20.4467 60.0213 23.926 60.0213 27.9989C60.0213 32.7972 56.1133 36.6887 51.3314 36.6887H50.7872C50.2431 36.6887 49.7979 37.1339 49.7979 37.6781C49.7979 38.2222 50.2431 38.6674 50.7872 38.6674H51.3314C57.2181 38.6674 62 33.8855 62 27.9989C62 25.5749 61.159 23.2005 59.642 21.3042ZM7.91489 53.4254C6.64521 53.4254 5.60638 52.3865 5.60638 51.1169C5.60638 49.8472 6.64521 48.8084 7.91489 48.8084C9.18457 48.8084 10.2234 49.8472 10.2234 51.1169C10.2234 52.3865 9.18457 53.4254 7.91489 53.4254Z" fill="#3588F9"/>
<path d="M1.83246 6.36701C2.3931 6.36701 2.82182 5.9218 2.82182 5.36117C2.80533 3.72872 2.49203 2.12926 1.91491 0.628733C1.71703 0.117564 1.1399 -0.129776 0.628733 0.0680961C0.117563 0.265968 -0.129777 0.843094 0.0680958 1.35426C0.579266 2.64043 0.826608 4.00904 0.843098 5.39414C0.843098 5.9218 1.28831 6.36701 1.83246 6.36701Z" transform="translate(46.4155 13.2388)" fill="#3588F9"/>
<path d="M9.82766 6.167C10.0255 6.39785 10.3059 6.52977 10.5862 6.52977C10.8005 6.52977 11.0314 6.44732 11.2128 6.29892C11.6415 5.95264 11.691 5.32605 11.3447 4.91382C8.78883 1.78085 4.99628 0 0.989362 0C0.445213 0 0 0.445211 0 0.989359C0 1.53351 0.445213 1.97872 0.989362 1.97872C4.40266 1.97872 7.63458 3.51222 9.82766 6.167Z" transform="translate(34.7927 5.27686)" fill="#3588F9"/>
</svg>
