<svg width="617" height="452" viewBox="0 0 617 452" fill="none" xmlns="http://www.w3.org/2000/svg">
<g filter="url(#filter0_d)">
<path fill-rule="evenodd" clip-rule="evenodd" d="M0 15C0 6.71571 6.71573 0 15 0H121.534C129.818 0 136.534 6.71573 136.534 15V121.534C136.534 129.818 129.818 136.534 121.534 136.534H15C6.71571 136.534 0 129.818 0 121.534V15Z" transform="matrix(0.5 0.866025 -0.864416 0.502777 288.288 224.035)" fill="white"/>
</g>
<g filter="url(#filter1_d)">
<path fill-rule="evenodd" clip-rule="evenodd" d="M0 15C0 6.71575 6.71573 0 15 0H261.623C269.908 0 276.623 6.71573 276.623 15V261.623C276.623 269.908 269.908 276.623 261.623 276.623H15C6.71575 276.623 0 269.908 0 261.623V15Z" transform="matrix(0.965926 0.258819 -0.255717 0.966752 172.737 46)" fill="#66ABFD"/>
</g>
<g filter="url(#filter2_d)">
<g filter="url(#filter3_d)">
<path d="M299.422 181.164L222.458 6.76008C219.897 1.05177 213.27 -1.50195 207.547 0.901547L69.7346 61.5899C69.7346 61.5899 131.788 212.71 0 325.224L293.699 196.186C299.422 193.632 301.982 186.872 299.422 181.164ZM215.53 77.6633L157.995 102.9C152.271 105.454 145.644 102.9 143.084 97.0415L133.595 75.8607C131.035 70.1524 133.595 63.5427 139.469 60.989L197.004 35.7523C202.727 33.1986 209.354 35.7523 211.915 41.6108L221.253 62.9419C223.813 68.5 221.253 75.1096 215.53 77.6633Z" transform="matrix(0.977343 0.211663 -0.211465 0.977386 180.274 22.5386)" fill="white"/>
</g>
<g filter="url(#filter4_d)">
<path d="M176.219 0L6.7779 74.3583C1.05454 76.912 -1.50591 83.5216 0.903924 89.2299L78.0186 263.634C80.5791 269.342 87.2061 271.896 92.9295 269.492L106.334 263.634C238.122 150.97 176.219 0 176.219 0Z" transform="matrix(0.977343 0.211663 -0.211465 0.977386 63.1787 60.1973)" fill="white"/>
</g>
<path d="M7.98258 12.8638L17.7725 8.50742L16.2664 4.90217C14.459 0.696047 9.63934 -1.10658 5.42213 0.696043L0 3.09954L3.46414 10.9109C4.21722 12.7135 6.32582 13.6148 7.98258 12.8638Z" transform="matrix(0.977343 0.211663 -0.211465 0.977386 110.552 147.517)" fill="#EDF3FF"/>
<path d="M15.2121 8.56246L11.5973 0.450661C11.5973 0.300442 11.4467 0.150219 11.4467 0L8.73565 1.20175L12.0492 8.71269C13.1035 10.966 12.0492 13.6699 9.78996 14.5712L0 18.9276L1.20492 21.7817L11.8986 17.1249C15.2121 15.6227 16.5676 11.8673 15.2121 8.56246Z" transform="matrix(0.977343 0.211663 -0.211465 0.977386 84.9902 150.994)" fill="#EDF3FF"/>
<path d="M6.00733 6.60962L15.4961 2.40351L14.4418 0L3.89873 4.65679C0.58521 6.15898 -0.920944 9.91444 0.585203 13.2192L4.35057 21.7817C4.35057 21.9319 4.50118 22.0822 4.50118 22.2324L7.36286 21.0306L3.5975 12.6184C2.69381 10.2149 3.59749 7.66116 6.00733 6.60962Z" transform="matrix(0.977343 0.211663 -0.211465 0.977386 115.756 174.102)" fill="#EDF3FF"/>
<path d="M19.2787 3.88848C17.7725 0.583671 14.0072 -0.918523 10.6936 0.583664L0 5.24044L1.20492 7.79417L10.9949 3.43782C13.2541 2.38629 15.9652 3.43782 16.8689 5.6911L20.4836 13.8029L23.1947 12.6012C23.1947 12.4509 23.0441 12.3007 23.0441 12.1505L19.2787 3.88848Z" transform="matrix(0.977343 0.211663 -0.211465 0.977386 85.4961 181.4)" fill="#EDF3FF"/>
<path d="M3.76537 9.76421C5.27151 13.069 9.03689 14.5712 12.3504 13.069L23.0441 8.41226L21.8391 5.70831L12.0492 10.0647C9.78996 11.1162 7.0789 10.0647 6.17521 7.81138L2.71107 0L0 1.20175C0 1.35197 0.150624 1.5022 0.150624 1.65241L3.76537 9.76421Z" transform="matrix(0.977343 0.211663 -0.211465 0.977386 106.203 150.515)" fill="#EDF3FF"/>
<path d="M9.78996 0.289129L0 4.64547L1.65677 8.40094C3.46414 12.6071 8.28381 14.4097 12.501 12.6071L17.9232 10.2036L14.3084 2.09176C13.7059 0.289136 11.5973 -0.461964 9.78996 0.289129Z" transform="matrix(0.977343 0.211663 -0.211465 0.977386 86.0791 185.824)" fill="#EDF3FF"/>
<path d="M11.586 0L2.09727 4.20612C0.289898 4.95721 -0.463182 7.06028 0.289891 8.86291L4.05526 17.2752L9.17616 15.0219C13.3934 13.2192 15.2008 8.41224 13.3934 4.20612L11.586 0Z" transform="matrix(0.977343 0.211663 -0.211465 0.977386 119.172 178.224)" fill="#EDF3FF"/>
<path d="M32.834 33.3485C31.1772 29.5931 32.834 25.0865 36.5994 23.4341L47.1424 18.7773L42.3227 7.81137L31.6291 12.4682C27.8637 14.1206 23.3453 12.4682 21.6885 8.71269L18.0738 0.450661C18.0738 0.300442 17.9232 0.150219 17.9232 0L10.6936 3.15459C10.6936 3.30481 10.8443 3.45503 10.8443 3.60525L14.459 11.7171C16.1158 15.4725 14.459 19.9791 10.6936 21.6315L0 26.2883L4.97029 37.5547L15.6639 32.8979C19.4293 31.2455 23.9477 32.8979 25.6045 36.6534L29.3699 45.0656C29.3699 45.2158 29.5205 45.3661 29.5205 45.5163L36.9006 42.2115C36.9006 42.0612 36.75 41.911 36.75 41.7608L32.834 33.3485Z" transform="matrix(0.977343 0.211663 -0.211465 0.977386 87.4014 147.673)" fill="#EDF3FF"/>
<path d="M13.6507 7.51093L10.3372 0L4.91509 2.4035C0.697878 4.20612 -1.1095 9.01313 0.697879 13.2192L2.05341 16.5241L11.8434 12.1677C13.6507 11.2664 14.5544 9.31356 13.6507 7.51093Z" transform="matrix(0.977343 0.211663 -0.211465 0.977386 82.042 152.045)" fill="#EDF3FF"/>
<path d="M1.90326 0.0956291C1.15019 -0.204808 0.397111 0.245848 0.0958812 0.846722C-0.205348 1.59782 0.246496 2.3489 0.848955 2.64934C8.68092 5.65372 12.4463 14.5166 9.43399 22.1778C9.13276 22.9289 9.58461 23.68 10.1871 23.9804C10.4883 24.1306 10.9401 24.1306 11.2414 23.9804C11.5426 23.8302 11.8438 23.5297 11.9944 23.2293C15.7598 14.066 11.0908 3.70088 1.90326 0.0956291Z" transform="matrix(0.977343 0.211663 -0.211465 0.977386 67.0908 169.153)" fill="#EDF3FF"/>
<path d="M1.90326 0.0956291C1.15019 -0.204808 0.397111 0.245848 0.0958812 0.846723C-0.205348 1.59782 0.246496 2.34891 0.848955 2.64934C3.10818 3.55065 4.76494 5.20306 5.66863 7.30612C6.57231 9.40918 6.72293 11.8127 5.81924 14.066C5.51801 14.8171 5.96986 15.5682 6.57232 15.8686C6.87355 16.0188 7.32539 16.0188 7.62662 15.8686C7.92785 15.7184 8.22907 15.4179 8.37969 15.1175C9.43399 12.2633 9.43399 9.10875 8.22908 6.25459C7.02416 3.40044 4.76494 1.14716 1.90326 0.0956291Z" transform="matrix(0.977343 0.211663 -0.211465 0.977386 63.792 174.432)" fill="#EDF3FF"/>
<path d="M1.90325 0.0956291C1.15018 -0.204808 0.397111 0.245848 0.0958812 0.846723C-0.205348 1.59782 0.246496 2.34891 0.848955 2.64934C2.50572 3.25022 3.25878 5.05285 2.65633 6.70526C2.3551 7.45635 2.80694 8.20744 3.4094 8.50788C3.71063 8.65809 4.16247 8.65809 4.4637 8.50788C4.76493 8.35766 5.06616 8.05722 5.21678 7.75678C6.42169 4.60219 4.91555 1.14716 1.90325 0.0956291Z" transform="matrix(0.977343 0.211663 -0.211465 0.977386 60.1113 179.322)" fill="#EDF3FF"/>
<path d="M79.2236 6.76008C76.6631 1.05176 70.0361 -1.50195 64.3127 0.901547L6.77789 26.1383C1.05453 28.692 -1.50591 35.3016 0.903925 41.0099L10.242 62.341C12.8025 68.0493 19.4295 70.603 25.1529 68.1995L82.6877 42.9628C88.4111 40.4091 90.9715 33.7994 88.5617 28.0911L79.2236 6.76008Z" transform="matrix(0.977343 0.211663 -0.211465 0.977386 302.621 84.541)" fill="#D9E6FF"/>
<path d="M9.94882 12.0249C9.94882 14.1096 9.59281 15.6587 8.88081 16.6722C8.16881 17.6857 7.0559 18.1924 5.54209 18.1924C4.04752 18.1924 2.94103 17.6985 2.22261 16.7107C1.50419 15.7165 1.13215 14.2347 1.10649 12.2655V9.88892C1.10649 7.82988 1.4625 6.30004 2.1745 5.29938C2.8865 4.29873 4.00262 3.7984 5.52284 3.7984C7.03024 3.7984 8.13994 4.28269 8.85195 5.25127C9.56395 6.21344 9.92957 7.7016 9.94882 9.71573V12.0249ZM8.16881 9.59065C8.16881 8.08326 7.95713 6.98638 7.53378 6.30004C7.11042 5.60728 6.44011 5.2609 5.52284 5.2609C4.61199 5.2609 3.9481 5.60407 3.53116 6.29042C3.11422 6.97676 2.89933 8.03194 2.8865 9.45595V12.304C2.8865 13.8178 3.1046 14.9371 3.54078 15.6619C3.98338 16.3804 4.65048 16.7396 5.54209 16.7396C6.42087 16.7396 7.07193 16.3996 7.49529 15.7197C7.92506 15.0397 8.14956 13.9685 8.16881 12.506V9.59065ZM21.0137 12.0249C21.0137 14.1096 20.6577 15.6587 19.9457 16.6722C19.2337 17.6857 18.1208 18.1924 16.607 18.1924C15.1125 18.1924 14.006 17.6985 13.2875 16.7107C12.5691 15.7165 12.1971 14.2347 12.1714 12.2655V9.88892C12.1714 7.82988 12.5274 6.30004 13.2394 5.29938C13.9514 4.29873 15.0676 3.7984 16.5878 3.7984C18.0952 3.7984 19.2049 4.28269 19.9169 5.25127C20.6289 6.21344 20.9945 7.7016 21.0137 9.71573V12.0249ZM19.2337 9.59065C19.2337 8.08326 19.0221 6.98638 18.5987 6.30004C18.1754 5.60728 17.505 5.2609 16.5878 5.2609C15.6769 5.2609 15.013 5.60407 14.5961 6.29042C14.1791 6.97676 13.9643 8.03194 13.9514 9.45595V12.304C13.9514 13.8178 14.1695 14.9371 14.6057 15.6619C15.0483 16.3804 15.7154 16.7396 16.607 16.7396C17.4858 16.7396 18.1369 16.3996 18.5602 15.7197C18.99 15.0397 19.2145 13.9685 19.2337 12.506V9.59065ZM32.0787 12.0249C32.0787 14.1096 31.7227 15.6587 31.0107 16.6722C30.2987 17.6857 29.1858 18.1924 27.672 18.1924C26.1774 18.1924 25.0709 17.6985 24.3525 16.7107C23.6341 15.7165 23.262 14.2347 23.2364 12.2655V9.88892C23.2364 7.82988 23.5924 6.30004 24.3044 5.29938C25.0164 4.29873 26.1325 3.7984 27.6527 3.7984C29.1601 3.7984 30.2698 4.28269 30.9818 5.25127C31.6938 6.21344 32.0594 7.7016 32.0787 9.71573V12.0249ZM30.2987 9.59065C30.2987 8.08326 30.087 6.98638 29.6636 6.30004C29.2403 5.60728 28.57 5.2609 27.6527 5.2609C26.7419 5.2609 26.078 5.60407 25.661 6.29042C25.2441 6.97676 25.0292 8.03194 25.0164 9.45595V12.304C25.0164 13.8178 25.2345 14.9371 25.6706 15.6619C26.1132 16.3804 26.7803 16.7396 27.672 16.7396C28.5507 16.7396 29.2018 16.3996 29.6252 15.7197C30.0549 15.0397 30.2794 13.9685 30.2987 12.506V9.59065ZM43.1436 12.0249C43.1436 14.1096 42.7876 15.6587 42.0756 16.6722C41.3636 17.6857 40.2507 18.1924 38.7369 18.1924C37.2423 18.1924 36.1358 17.6985 35.4174 16.7107C34.699 15.7165 34.3269 14.2347 34.3013 12.2655V9.88892C34.3013 7.82988 34.6573 6.30004 35.3693 5.29938C36.0813 4.29873 37.1974 3.7984 38.7176 3.7984C40.225 3.7984 41.3347 4.28269 42.0467 5.25127C42.7587 6.21344 43.1244 7.7016 43.1436 9.71573V12.0249ZM41.3636 9.59065C41.3636 8.08326 41.1519 6.98638 40.7286 6.30004C40.3052 5.60728 39.6349 5.2609 38.7176 5.2609C37.8068 5.2609 37.1429 5.60407 36.726 6.29042C36.309 6.97676 36.0941 8.03194 36.0813 9.45595V12.304C36.0813 13.8178 36.2994 14.9371 36.7356 15.6619C37.1782 16.3804 37.8453 16.7396 38.7369 16.7396C39.6157 16.7396 40.2667 16.3996 40.6901 15.7197C41.1199 15.0397 41.3444 13.9685 41.3636 12.506V9.59065ZM59.0964 12.0249C59.0964 14.1096 58.7404 15.6587 58.0284 16.6722C57.3163 17.6857 56.2034 18.1924 54.6896 18.1924C53.1951 18.1924 52.0886 17.6985 51.3701 16.7107C50.6517 15.7165 50.2797 14.2347 50.254 12.2655V9.88892C50.254 7.82988 50.61 6.30004 51.322 5.29938C52.034 4.29873 53.1502 3.7984 54.6704 3.7984C56.1778 3.7984 57.2875 4.28269 57.9995 5.25127C58.7115 6.21344 59.0771 7.7016 59.0964 9.71573V12.0249ZM57.3163 9.59065C57.3163 8.08326 57.1047 6.98638 56.6813 6.30004C56.258 5.60728 55.5877 5.2609 54.6704 5.2609C53.7595 5.2609 53.0956 5.60407 52.6787 6.29042C52.2618 6.97676 52.0469 8.03194 52.034 9.45595V12.304C52.034 13.8178 52.2521 14.9371 52.6883 15.6619C53.1309 16.3804 53.798 16.7396 54.6896 16.7396C55.5684 16.7396 56.2195 16.3996 56.6428 15.7197C57.0726 15.0397 57.2971 13.9685 57.3163 12.506V9.59065ZM70.1613 12.0249C70.1613 14.1096 69.8053 15.6587 69.0933 16.6722C68.3813 17.6857 67.2684 18.1924 65.7546 18.1924C64.26 18.1924 63.1535 17.6985 62.4351 16.7107C61.7167 15.7165 61.3446 14.2347 61.319 12.2655V9.88892C61.319 7.82988 61.675 6.30004 62.387 5.29938C63.099 4.29873 64.2151 3.7984 65.7353 3.7984C67.2427 3.7984 68.3524 4.28269 69.0644 5.25127C69.7764 6.21344 70.142 7.7016 70.1613 9.71573V12.0249ZM68.3813 9.59065C68.3813 8.08326 68.1696 6.98638 67.7462 6.30004C67.3229 5.60728 66.6526 5.2609 65.7353 5.2609C64.8245 5.2609 64.1606 5.60407 63.7436 6.29042C63.3267 6.97676 63.1118 8.03194 63.099 9.45595V12.304C63.099 13.8178 63.3171 14.9371 63.7532 15.6619C64.1958 16.3804 64.8629 16.7396 65.7546 16.7396C66.6333 16.7396 67.2844 16.3996 67.7078 15.7197C68.1375 15.0397 68.362 13.9685 68.3813 12.506V9.59065ZM81.2262 12.0249C81.2262 14.1096 80.8702 15.6587 80.1582 16.6722C79.4462 17.6857 78.3333 18.1924 76.8195 18.1924C75.3249 18.1924 74.2184 17.6985 73.5 16.7107C72.7816 15.7165 72.4096 14.2347 72.3839 12.2655V9.88892C72.3839 7.82988 72.7399 6.30004 73.4519 5.29938C74.1639 4.29873 75.28 3.7984 76.8002 3.7984C78.3076 3.7984 79.4173 4.28269 80.1294 5.25127C80.8414 6.21344 81.207 7.7016 81.2262 9.71573V12.0249ZM79.4462 9.59065C79.4462 8.08326 79.2345 6.98638 78.8112 6.30004C78.3878 5.60728 77.7175 5.2609 76.8002 5.2609C75.8894 5.2609 75.2255 5.60407 74.8086 6.29042C74.3916 6.97676 74.1767 8.03194 74.1639 9.45595V12.304C74.1639 13.8178 74.382 14.9371 74.8182 15.6619C75.2608 16.3804 75.9279 16.7396 76.8195 16.7396C77.6983 16.7396 78.3493 16.3996 78.7727 15.7197C79.2025 15.0397 79.427 13.9685 79.4462 12.506V9.59065ZM92.2912 12.0249C92.2912 14.1096 91.9352 15.6587 91.2231 16.6722C90.5111 17.6857 89.3982 18.1924 87.8844 18.1924C86.3899 18.1924 85.2834 17.6985 84.5649 16.7107C83.8465 15.7165 83.4745 14.2347 83.4488 12.2655V9.88892C83.4488 7.82988 83.8048 6.30004 84.5168 5.29938C85.2288 4.29873 86.345 3.7984 87.8652 3.7984C89.3726 3.7984 90.4823 4.28269 91.1943 5.25127C91.9063 6.21344 92.2719 7.7016 92.2912 9.71573V12.0249ZM90.5111 9.59065C90.5111 8.08326 90.2995 6.98638 89.8761 6.30004C89.4528 5.60728 88.7824 5.2609 87.8652 5.2609C86.9543 5.2609 86.2904 5.60407 85.8735 6.29042C85.4566 6.97676 85.2417 8.03194 85.2288 9.45595V12.304C85.2288 13.8178 85.4469 14.9371 85.8831 15.6619C86.3257 16.3804 86.9928 16.7396 87.8844 16.7396C88.7632 16.7396 89.4143 16.3996 89.8376 15.7197C90.2674 15.0397 90.4919 13.9685 90.5111 12.506V9.59065ZM108.244 12.0249C108.244 14.1096 107.888 15.6587 107.176 16.6722C106.464 17.6857 105.351 18.1924 103.837 18.1924C102.343 18.1924 101.236 17.6985 100.518 16.7107C99.7993 15.7165 99.4272 14.2347 99.4016 12.2655V9.88892C99.4016 7.82988 99.7576 6.30004 100.47 5.29938C101.182 4.29873 102.298 3.7984 103.818 3.7984C105.325 3.7984 106.435 4.28269 107.147 5.25127C107.859 6.21344 108.225 7.7016 108.244 9.71573V12.0249ZM106.464 9.59065C106.464 8.08326 106.252 6.98638 105.829 6.30004C105.406 5.60728 104.735 5.2609 103.818 5.2609C102.907 5.2609 102.243 5.60407 101.826 6.29042C101.409 6.97676 101.194 8.03194 101.182 9.45595V12.304C101.182 13.8178 101.4 14.9371 101.836 15.6619C102.278 16.3804 102.946 16.7396 103.837 16.7396C104.716 16.7396 105.367 16.3996 105.79 15.7197C106.22 15.0397 106.445 13.9685 106.464 12.506V9.59065ZM119.309 12.0249C119.309 14.1096 118.953 15.6587 118.241 16.6722C117.529 17.6857 116.416 18.1924 114.902 18.1924C113.408 18.1924 112.301 17.6985 111.583 16.7107C110.864 15.7165 110.492 14.2347 110.467 12.2655V9.88892C110.467 7.82988 110.823 6.30004 111.535 5.29938C112.247 4.29873 113.363 3.7984 114.883 3.7984C116.39 3.7984 117.5 4.28269 118.212 5.25127C118.924 6.21344 119.29 7.7016 119.309 9.71573V12.0249ZM117.529 9.59065C117.529 8.08326 117.317 6.98638 116.894 6.30004C116.47 5.60728 115.8 5.2609 114.883 5.2609C113.972 5.2609 113.308 5.60407 112.891 6.29042C112.474 6.97676 112.259 8.03194 112.247 9.45595V12.304C112.247 13.8178 112.465 14.9371 112.901 15.6619C113.343 16.3804 114.01 16.7396 114.902 16.7396C115.781 16.7396 116.432 16.3996 116.855 15.7197C117.285 15.0397 117.51 13.9685 117.529 12.506V9.59065ZM130.374 12.0249C130.374 14.1096 130.018 15.6587 129.306 16.6722C128.594 17.6857 127.481 18.1924 125.967 18.1924C124.472 18.1924 123.366 17.6985 122.648 16.7107C121.929 15.7165 121.557 14.2347 121.531 12.2655V9.88892C121.531 7.82988 121.887 6.30004 122.599 5.29938C123.311 4.29873 124.428 3.7984 125.948 3.7984C127.455 3.7984 128.565 4.28269 129.277 5.25127C129.989 6.21344 130.355 7.7016 130.374 9.71573V12.0249ZM128.594 9.59065C128.594 8.08326 128.382 6.98638 127.959 6.30004C127.535 5.60728 126.865 5.2609 125.948 5.2609C125.037 5.2609 124.373 5.60407 123.956 6.29042C123.539 6.97676 123.324 8.03194 123.311 9.45595V12.304C123.311 13.8178 123.53 14.9371 123.966 15.6619C124.408 16.3804 125.075 16.7396 125.967 16.7396C126.846 16.7396 127.497 16.3996 127.92 15.7197C128.35 15.0397 128.575 13.9685 128.594 12.506V9.59065ZM141.439 12.0249C141.439 14.1096 141.083 15.6587 140.371 16.6722C139.659 17.6857 138.546 18.1924 137.032 18.1924C135.537 18.1924 134.431 17.6985 133.712 16.7107C132.994 15.7165 132.622 14.2347 132.596 12.2655V9.88892C132.596 7.82988 132.952 6.30004 133.664 5.29938C134.376 4.29873 135.493 3.7984 137.013 3.7984C138.52 3.7984 139.63 4.28269 140.342 5.25127C141.054 6.21344 141.419 7.7016 141.439 9.71573V12.0249ZM139.659 9.59065C139.659 8.08326 139.447 6.98638 139.024 6.30004C138.6 5.60728 137.93 5.2609 137.013 5.2609C136.102 5.2609 135.438 5.60407 135.021 6.29042C134.604 6.97676 134.389 8.03194 134.376 9.45595V12.304C134.376 13.8178 134.594 14.9371 135.031 15.6619C135.473 16.3804 136.14 16.7396 137.032 16.7396C137.911 16.7396 138.562 16.3996 138.985 15.7197C139.415 15.0397 139.639 13.9685 139.659 12.506V9.59065ZM157.391 12.0249C157.391 14.1096 157.035 15.6587 156.323 16.6722C155.611 17.6857 154.499 18.1924 152.985 18.1924C151.49 18.1924 150.384 17.6985 149.665 16.7107C148.947 15.7165 148.575 14.2347 148.549 12.2655V9.88892C148.549 7.82988 148.905 6.30004 149.617 5.29938C150.329 4.29873 151.445 3.7984 152.965 3.7984C154.473 3.7984 155.583 4.28269 156.295 5.25127C157.007 6.21344 157.372 7.7016 157.391 9.71573V12.0249ZM155.611 9.59065C155.611 8.08326 155.4 6.98638 154.976 6.30004C154.553 5.60728 153.883 5.2609 152.965 5.2609C152.055 5.2609 151.391 5.60407 150.974 6.29042C150.557 6.97676 150.342 8.03194 150.329 9.45595V12.304C150.329 13.8178 150.547 14.9371 150.983 15.6619C151.426 16.3804 152.093 16.7396 152.985 16.7396C153.863 16.7396 154.515 16.3996 154.938 15.7197C155.368 15.0397 155.592 13.9685 155.611 12.506V9.59065ZM168.456 12.0249C168.456 14.1096 168.1 15.6587 167.388 16.6722C166.676 17.6857 165.563 18.1924 164.05 18.1924C162.555 18.1924 161.449 17.6985 160.73 16.7107C160.012 15.7165 159.64 14.2347 159.614 12.2655V9.88892C159.614 7.82988 159.97 6.30004 160.682 5.29938C161.394 4.29873 162.51 3.7984 164.03 3.7984C165.538 3.7984 166.647 4.28269 167.359 5.25127C168.072 6.21344 168.437 7.7016 168.456 9.71573V12.0249ZM166.676 9.59065C166.676 8.08326 166.465 6.98638 166.041 6.30004C165.618 5.60728 164.948 5.2609 164.03 5.2609C163.12 5.2609 162.456 5.60407 162.039 6.29042C161.622 6.97676 161.407 8.03194 161.394 9.45595V12.304C161.394 13.8178 161.612 14.9371 162.048 15.6619C162.491 16.3804 163.158 16.7396 164.05 16.7396C164.928 16.7396 165.579 16.3996 166.003 15.7197C166.433 15.0397 166.657 13.9685 166.676 12.506V9.59065ZM179.521 12.0249C179.521 14.1096 179.165 15.6587 178.453 16.6722C177.741 17.6857 176.628 18.1924 175.115 18.1924C173.62 18.1924 172.514 17.6985 171.795 16.7107C171.077 15.7165 170.705 14.2347 170.679 12.2655V9.88892C170.679 7.82988 171.035 6.30004 171.747 5.29938C172.459 4.29873 173.575 3.7984 175.095 3.7984C176.603 3.7984 177.712 4.28269 178.424 5.25127C179.136 6.21344 179.502 7.7016 179.521 9.71573V12.0249ZM177.741 9.59065C177.741 8.08326 177.53 6.98638 177.106 6.30004C176.683 5.60728 176.013 5.2609 175.095 5.2609C174.184 5.2609 173.521 5.60407 173.104 6.29042C172.687 6.97676 172.472 8.03194 172.459 9.45595V12.304C172.459 13.8178 172.677 14.9371 173.113 15.6619C173.556 16.3804 174.223 16.7396 175.115 16.7396C175.993 16.7396 176.644 16.3996 177.068 15.7197C177.498 15.0397 177.722 13.9685 177.741 12.506V9.59065ZM190.586 12.0249C190.586 14.1096 190.23 15.6587 189.518 16.6722C188.806 17.6857 187.693 18.1924 186.18 18.1924C184.685 18.1924 183.578 17.6985 182.86 16.7107C182.142 15.7165 181.77 14.2347 181.744 12.2655V9.88892C181.744 7.82988 182.1 6.30004 182.812 5.29938C183.524 4.29873 184.64 3.7984 186.16 3.7984C187.668 3.7984 188.777 4.28269 189.489 5.25127C190.201 6.21344 190.567 7.7016 190.586 9.71573V12.0249ZM188.806 9.59065C188.806 8.08326 188.595 6.98638 188.171 6.30004C187.748 5.60728 187.078 5.2609 186.16 5.2609C185.249 5.2609 184.586 5.60407 184.169 6.29042C183.752 6.97676 183.537 8.03194 183.524 9.45595V12.304C183.524 13.8178 183.742 14.9371 184.178 15.6619C184.621 16.3804 185.288 16.7396 186.18 16.7396C187.058 16.7396 187.709 16.3996 188.133 15.7197C188.562 15.0397 188.787 13.9685 188.806 12.506V9.59065Z" transform="matrix(0.979844 -0.199535 0.201603 0.979574 97.8369 252.4)" fill="#66ABFD"/>
<path d="M7.28846 11H6.19632L2.04846 4.65089V11H0.956327V2.76087H2.04846L6.20764 9.13827V2.76087H7.28846V11ZM13.8696 8.84968H10.4177L9.64249 11H8.52206L11.6683 2.76087H12.619L15.7709 11H14.6561L13.8696 8.84968ZM10.7459 7.9556H13.547L12.1437 4.102L10.7459 7.9556ZM18.2834 2.76087L20.9769 9.48346L23.6705 2.76087H25.0795V11H23.9931V7.79149L24.0949 4.32835L21.39 11H20.5582L17.859 4.34532L17.9665 7.79149V11H16.88V2.76087H18.2834ZM31.655 7.19167H28.0843V10.1116H32.2322V11H26.9979V2.76087H32.1756V3.65496H28.0843V6.30325H31.655V7.19167ZM38.8869 7.32748C37.9551 7.05963 37.276 6.73142 36.8497 6.34286C36.4272 5.95052 36.2159 5.46764 36.2159 4.89422C36.2159 4.24535 36.4744 3.70966 36.9912 3.28714C37.5118 2.86085 38.1871 2.6477 39.017 2.6477C39.5829 2.6477 40.0865 2.7571 40.5279 2.97591C40.9731 3.19471 41.3163 3.49651 41.5578 3.8813C41.803 4.2661 41.9256 4.68673 41.9256 5.1432H40.8335C40.8335 4.64523 40.675 4.25478 40.3581 3.97184C40.0412 3.68514 39.5942 3.54178 39.017 3.54178C38.4813 3.54178 38.0626 3.66061 37.7608 3.89828C37.4627 4.13218 37.3137 4.4585 37.3137 4.87724C37.3137 5.213 37.4552 5.49782 37.7381 5.73171C38.0248 5.96183 38.5096 6.17309 39.1924 6.36549C39.879 6.55789 40.4147 6.77103 40.7995 7.00493C41.1881 7.23505 41.4748 7.50478 41.6596 7.81413C41.8483 8.12347 41.9426 8.48752 41.9426 8.90627C41.9426 9.574 41.6823 10.1097 41.1617 10.5133C40.6411 10.9132 39.945 11.1132 39.0736 11.1132C38.5077 11.1132 37.9796 11.0057 37.4892 10.7906C36.9987 10.5718 36.6196 10.2738 36.3517 9.89655C36.0877 9.5193 35.9556 9.09112 35.9556 8.61201H37.0478C37.0478 9.10998 37.2307 9.50421 37.5967 9.79469C37.9664 10.0814 38.4587 10.2248 39.0736 10.2248C39.647 10.2248 40.0865 10.1078 40.3921 9.87391C40.6977 9.64002 40.8504 9.32124 40.8504 8.91758C40.8504 8.51393 40.709 8.2027 40.426 7.98389C40.1431 7.76131 39.63 7.54251 38.8869 7.32748ZM49.1405 2.76087V8.36303C49.1367 9.14016 48.8915 9.77583 48.4049 10.27C47.922 10.7642 47.2656 11.0415 46.4356 11.1019L46.147 11.1132C45.2454 11.1132 44.5267 10.8698 43.991 10.3832C43.4554 9.89655 43.1837 9.22693 43.1762 8.37434V2.76087H44.2513V8.34039C44.2513 8.93645 44.4155 9.40046 44.7437 9.73244C45.0719 10.0606 45.5397 10.2248 46.147 10.2248C46.7619 10.2248 47.2316 10.0606 47.5561 9.73244C47.8843 9.40424 48.0484 8.9421 48.0484 8.34605V2.76087H49.1405ZM53.8769 7.667H51.9416V11H50.8494V2.76087H53.577C54.505 2.76087 55.218 2.97213 55.716 3.39465C56.2177 3.81717 56.4686 4.43209 56.4686 5.2394C56.4686 5.75246 56.329 6.1995 56.0498 6.58052C55.7744 6.96155 55.3896 7.24637 54.8954 7.43499L56.8307 10.9321V11H55.665L53.8769 7.667ZM51.9416 6.77858H53.6109C54.1504 6.77858 54.5785 6.639 54.8954 6.35983C55.2161 6.08067 55.3764 5.70719 55.3764 5.2394C55.3764 4.73012 55.2236 4.33966 54.9181 4.06804C54.6163 3.79642 54.1787 3.65873 53.6052 3.65496H51.9416V6.77858ZM64.3286 11H63.2364L59.0886 4.65089V11H57.9964V2.76087H59.0886L63.2477 9.13827V2.76087H64.3286V11ZM70.9097 8.84968H67.4578L66.6826 11H65.5622L68.7084 2.76087H69.6591L72.811 11H71.6962L70.9097 8.84968ZM67.786 7.9556H70.5871L69.1838 4.102L67.786 7.9556ZM75.3235 2.76087L78.0171 9.48346L80.7106 2.76087H82.1196V11H81.0332V7.79149L81.135 4.32835L78.4301 11H77.5983L74.8991 4.34532L75.0066 7.79149V11H73.9201V2.76087H75.3235ZM88.6951 7.19167H85.1244V10.1116H89.2723V11H84.0379V2.76087H89.2157V3.65496H85.1244V6.30325H88.6951V7.19167Z" transform="matrix(0.979844 -0.199535 0.201603 0.979574 106.958 291.757)" fill="#66ABFD"/>
<path d="M5.85114 7.48592C5.85114 8.71198 5.64176 9.62304 5.22302 10.2191C4.80427 10.8151 4.14974 11.1132 3.25943 11.1132C2.38044 11.1132 1.72969 10.8227 1.30717 10.2417C0.88465 9.65699 0.665845 8.78555 0.650755 7.62739V6.22968C0.650755 5.01871 0.860129 4.11897 1.27888 3.53046C1.69762 2.94195 2.35404 2.6477 3.24812 2.6477C4.13465 2.6477 4.78729 2.93252 5.20604 3.50217C5.62479 4.06804 5.83982 4.94326 5.85114 6.12782V7.48592ZM4.80427 6.05426C4.80427 5.16773 4.67978 4.52263 4.43079 4.11897C4.18181 3.71154 3.78758 3.50783 3.24812 3.50783C2.71242 3.50783 2.32197 3.70966 2.07676 4.11331C1.83155 4.51697 1.70517 5.13755 1.69762 5.97504V7.65003C1.69762 8.54033 1.82589 9.19863 2.08242 9.62493C2.34272 10.0474 2.73506 10.2587 3.25943 10.2587C3.77627 10.2587 4.15917 10.0588 4.40816 9.65888C4.66092 9.25899 4.79295 8.62899 4.80427 7.76886V6.05426ZM12.3587 7.48592C12.3587 8.71198 12.1493 9.62304 11.7306 10.2191C11.3118 10.8151 10.6573 11.1132 9.76699 11.1132C8.88799 11.1132 8.23724 10.8227 7.81472 10.2417C7.3922 9.65699 7.1734 8.78555 7.15831 7.62739V6.22968C7.15831 5.01871 7.36768 4.11897 7.78643 3.53046C8.20517 2.94195 8.86159 2.6477 9.75567 2.6477C10.6422 2.6477 11.2948 2.93252 11.7136 3.50217C12.1323 4.06804 12.3474 4.94326 12.3587 6.12782V7.48592ZM11.3118 6.05426C11.3118 5.16773 11.1873 4.52263 10.9383 4.11897C10.6894 3.71154 10.2951 3.50783 9.75567 3.50783C9.21997 3.50783 8.82952 3.70966 8.58431 4.11331C8.3391 4.51697 8.21272 5.13755 8.20517 5.97504V7.65003C8.20517 8.54033 8.33344 9.19863 8.58997 9.62493C8.85027 10.0474 9.24261 10.2587 9.76699 10.2587C10.2838 10.2587 10.6667 10.0588 10.9157 9.65888C11.1685 9.25899 11.3005 8.62899 11.3118 7.76886V6.05426ZM14.0167 11.7073H13.117L16.5575 2.76087H17.4516L14.0167 11.7073ZM23.6422 7.48592C23.6422 8.71198 23.4328 9.62304 23.0141 10.2191C22.5953 10.8151 21.9408 11.1132 21.0505 11.1132C20.1715 11.1132 19.5208 10.8227 19.0982 10.2417C18.6757 9.65699 18.4569 8.78555 18.4418 7.62739V6.22968C18.4418 5.01871 18.6512 4.11897 19.07 3.53046C19.4887 2.94195 20.1451 2.6477 21.0392 2.6477C21.9257 2.6477 22.5784 2.93252 22.9971 3.50217C23.4159 4.06804 23.6309 4.94326 23.6422 6.12782V7.48592ZM22.5953 6.05426C22.5953 5.16773 22.4709 4.52263 22.2219 4.11897C21.9729 3.71154 21.5787 3.50783 21.0392 3.50783C20.5035 3.50783 20.113 3.70966 19.8678 4.11331C19.6226 4.51697 19.4962 5.13755 19.4887 5.97504V7.65003C19.4887 8.54033 19.617 9.19863 19.8735 9.62493C20.1338 10.0474 20.5261 10.2587 21.0505 10.2587C21.5673 10.2587 21.9503 10.0588 22.1992 9.65888C22.452 9.25899 22.584 8.62899 22.5953 7.76886V6.05426ZM30.1498 7.48592C30.1498 8.71198 29.9404 9.62304 29.5216 10.2191C29.1029 10.8151 28.4484 11.1132 27.5581 11.1132C26.6791 11.1132 26.0283 10.8227 25.6058 10.2417C25.1833 9.65699 24.9645 8.78555 24.9494 7.62739V6.22968C24.9494 5.01871 25.1588 4.11897 25.5775 3.53046C25.9963 2.94195 26.6527 2.6477 27.5467 2.6477C28.4333 2.6477 29.0859 2.93252 29.5047 3.50217C29.9234 4.06804 30.1384 4.94326 30.1498 6.12782V7.48592ZM29.1029 6.05426C29.1029 5.16773 28.9784 4.52263 28.7294 4.11897C28.4804 3.71154 28.0862 3.50783 27.5467 3.50783C27.0111 3.50783 26.6206 3.70966 26.3754 4.11331C26.1302 4.51697 26.0038 5.13755 25.9963 5.97504V7.65003C25.9963 8.54033 26.1245 9.19863 26.381 9.62493C26.6413 10.0474 27.0337 10.2587 27.5581 10.2587C28.0749 10.2587 28.4578 10.0588 28.7068 9.65888C28.9595 9.25899 29.0916 8.62899 29.1029 7.76886V6.05426Z" transform="matrix(0.979844 -0.199535 0.201603 0.979574 251.138 262.402)" fill="#66ABFD"/>
</g>
<g filter="url(#filter5_d)">
<path d="M77.6599 97.1288L0 38.7118C18.7503 13.9055 46.5959 0 77.6599 0V97.1288Z" transform="matrix(0.769517 -0.638627 0.637867 0.770146 316.039 243.348)" fill="#D9E6FF"/>
<path d="M97.2021 58.417L44.3094 139.893C-0.747284 110.685 -13.5507 50.521 15.6942 5.52027C16.9536 3.56372 18.2129 1.8168 19.6122 0L97.2021 58.417Z" transform="matrix(0.769517 -0.638627 0.637867 0.770146 325.693 285.643)" fill="white"/>
<path d="M62.3306 23.7664L174.229 0C187.404 61.7597 147.881 122.45 86.1266 135.526C54.7554 142.187 26.8425 137.006 0 119.572L62.3306 23.7664Z" transform="matrix(0.769517 -0.638627 0.637867 0.770146 391.866 294.487)" fill="#66ABFD"/>
<path d="M0 97.1288V0C46.6659 0 85.4258 31.3048 95.0808 76.9344L0 97.1288Z" transform="matrix(0.769517 -0.638627 0.637867 0.770146 375.8 193.754)" fill="url(#paint0_linear)"/>
</g>
<defs>
<filter id="filter0_d" x="131.751" y="187.544" width="263.32" height="263.871" filterUnits="userSpaceOnUse" color-interpolation-filters="sRGB">
<feFlood flood-opacity="0" result="BackgroundImageFix"/>
<feColorMatrix in="SourceAlpha" type="matrix" values="0 0 0 0 0 0 0 0 0 0 0 0 0 0 0 0 0 0 255 0"/>
<feOffset dy="2"/>
<feGaussianBlur stdDeviation="22"/>
<feColorMatrix type="matrix" values="0 0 0 0 0.0901961 0 0 0 0 0.501961 0 0 0 0 0.878431 0 0 0 0.271031 0"/>
<feBlend mode="normal" in2="BackgroundImageFix" result="effect1_dropShadow"/>
<feBlend mode="normal" in="SourceGraphic" in2="effect1_dropShadow" result="shape"/>
</filter>
<filter id="filter1_d" x="61.333" y="7.36792" width="419.269" height="420.286" filterUnits="userSpaceOnUse" color-interpolation-filters="sRGB">
<feFlood flood-opacity="0" result="BackgroundImageFix"/>
<feColorMatrix in="SourceAlpha" type="matrix" values="0 0 0 0 0 0 0 0 0 0 0 0 0 0 0 0 0 0 255 0"/>
<feOffset dy="2"/>
<feGaussianBlur stdDeviation="22"/>
<feColorMatrix type="matrix" values="0 0 0 0 0.0901961 0 0 0 0 0.501961 0 0 0 0 0.878431 0 0 0 0.271031 0"/>
<feBlend mode="normal" in2="BackgroundImageFix" result="effect1_dropShadow"/>
<feBlend mode="normal" in="SourceGraphic" in2="effect1_dropShadow" result="shape"/>
</filter>
<filter id="filter2_d" x="0.993164" y="25.1528" width="477.856" height="364.309" filterUnits="userSpaceOnUse" color-interpolation-filters="sRGB">
<feFlood flood-opacity="0" result="BackgroundImageFix"/>
<feColorMatrix in="SourceAlpha" type="matrix" values="0 0 0 0 0 0 0 0 0 0 0 0 0 0 0 0 0 0 255 0"/>
<feOffset dy="2"/>
<feGaussianBlur stdDeviation="22"/>
<feColorMatrix type="matrix" values="0 0 0 0 0.0901961 0 0 0 0 0.501961 0 0 0 0 0.878431 0 0 0 0.271031 0"/>
<feBlend mode="normal" in2="BackgroundImageFix" result="effect1_dropShadow"/>
<feBlend mode="normal" in="SourceGraphic" in2="effect1_dropShadow" result="shape"/>
</filter>
<filter id="filter3_d" x="67.501" y="25.1528" width="411.348" height="361.255" filterUnits="userSpaceOnUse" color-interpolation-filters="sRGB">
<feFlood flood-opacity="0" result="BackgroundImageFix"/>
<feColorMatrix in="SourceAlpha" type="matrix" values="0 0 0 0 0 0 0 0 0 0 0 0 0 0 0 0 0 0 255 0"/>
<feOffset dy="2"/>
<feGaussianBlur stdDeviation="22"/>
<feColorMatrix type="matrix" values="0 0 0 0 0.0901961 0 0 0 0 0.501961 0 0 0 0 0.878431 0 0 0 0.271031 0"/>
<feBlend mode="normal" in2="BackgroundImageFix" result="effect1_dropShadow"/>
<feBlend mode="normal" in="SourceGraphic" in2="effect1_dropShadow" result="shape"/>
</filter>
<filter id="filter4_d" x="0.993164" y="55.4966" width="280.533" height="333.965" filterUnits="userSpaceOnUse" color-interpolation-filters="sRGB">
<feFlood flood-opacity="0" result="BackgroundImageFix"/>
<feColorMatrix in="SourceAlpha" type="matrix" values="0 0 0 0 0 0 0 0 0 0 0 0 0 0 0 0 0 0 255 0"/>
<feOffset dy="2"/>
<feGaussianBlur stdDeviation="22"/>
<feColorMatrix type="matrix" values="0 0 0 0 0.0901961 0 0 0 0 0.501961 0 0 0 0 0.878431 0 0 0 0.271031 0"/>
<feBlend mode="normal" in2="BackgroundImageFix" result="effect1_dropShadow"/>
<feBlend mode="normal" in="SourceGraphic" in2="effect1_dropShadow" result="shape"/>
</filter>
<filter id="filter5_d" x="296.627" y="128.97" width="316.669" height="303.605" filterUnits="userSpaceOnUse" color-interpolation-filters="sRGB">
<feFlood flood-opacity="0" result="BackgroundImageFix"/>
<feColorMatrix in="SourceAlpha" type="matrix" values="0 0 0 0 0 0 0 0 0 0 0 0 0 0 0 0 0 0 255 0"/>
<feOffset dy="2"/>
<feGaussianBlur stdDeviation="22"/>
<feColorMatrix type="matrix" values="0 0 0 0 0.0901961 0 0 0 0 0.501961 0 0 0 0 0.878431 0 0 0 0.271031 0"/>
<feBlend mode="normal" in2="BackgroundImageFix" result="effect1_dropShadow"/>
<feBlend mode="normal" in="SourceGraphic" in2="effect1_dropShadow" result="shape"/>
</filter>
<linearGradient id="paint0_linear" x2="1" gradientUnits="userSpaceOnUse" gradientTransform="matrix(93.9339 -29.121 28.507 91.9876 -20.1634 16.6194)">
<stop stop-color="#25AEF1"/>
<stop offset="1" stop-color="#28E6FC"/>
</linearGradient>
</defs>
</svg>
