<svg width="42" height="63" viewBox="0 0 42 63" fill="none" xmlns="http://www.w3.org/2000/svg">
<path d="M20.5697 0C9.23046 0 0 9.23209 0 20.5733C0 23.9721 0.855565 27.3588 2.47029 30.3478L19.437 61.0451C19.666 61.4549 20.0877 61.708 20.5577 61.708C21.0276 61.708 21.4614 61.4549 21.6783 61.0451L38.6571 30.3357C40.2718 27.3468 41.1153 23.9721 41.1153 20.5733C41.1274 9.23209 31.909 0 20.5697 0ZM20.5697 30.854C14.8941 30.854 10.2909 26.2379 10.2909 20.5733C10.2909 14.9087 14.9061 10.2927 20.5697 10.2927C26.2333 10.2927 30.8486 14.9087 30.8486 20.5733C30.8486 26.2379 26.2333 30.854 20.5697 30.854Z" transform="translate(0.462402 0.805664)" fill="#66ABFD"/>
</svg>
