<svg width="33" height="33" viewBox="0 0 33 33" fill="none" xmlns="http://www.w3.org/2000/svg">
<rect width="31.5" height="31.5" fill="black" fill-opacity="0" transform="translate(0.83374 0.833252)"/>
<path fill-rule="evenodd" clip-rule="evenodd" d="M16.5806 3.45801C9.5035 3.45801 3.74487 8.65551 3.74487 15.0408C3.74487 17.6527 4.68936 20.1202 6.47647 22.1743C6.59945 22.3121 6.68895 22.4761 6.73916 22.6533C7.38458 24.8846 7.28853 27.0436 6.4561 29.1108C8.1246 28.5464 9.44965 27.6408 10.4691 26.3743C10.8504 25.8952 11.5351 25.7049 12.1463 25.9083C13.5725 26.3808 15.0649 26.6171 16.5806 26.6171C23.6629 26.6171 29.4237 21.4261 29.4237 15.0408C29.4237 8.65551 23.6629 3.45801 16.5806 3.45801ZM3.74289 32.3332C3.24008 32.3332 2.76711 32.097 2.50079 31.7032C2.20536 31.2701 2.21846 30.7189 2.53499 30.2923C4.12927 28.1464 4.60734 25.9414 3.99102 23.5657C1.92449 21.0917 0.83374 18.1517 0.83374 15.0411C0.83374 7.20544 7.89705 0.833252 16.5801 0.833252C25.2668 0.833252 32.3337 7.20544 32.3337 15.0411C32.3337 22.8701 25.2668 29.2423 16.5801 29.2423C15.076 29.2423 13.5916 29.052 12.1538 28.6714C10.1593 30.732 7.39278 31.9592 3.91243 32.3267C3.85567 32.3333 3.79892 32.3332 3.74289 32.3332V32.3332Z" fill="white"/>
<path fill-rule="evenodd" clip-rule="evenodd" d="M18.4034 14.8179C18.4034 15.7235 17.5891 16.4585 16.5843 16.4585C15.5794 16.4585 14.7651 15.7235 14.7651 14.8179C14.7651 13.9122 15.5794 13.1772 16.5843 13.1772C17.5891 13.1772 18.4034 13.9122 18.4034 14.8179" fill="white"/>
<path fill-rule="evenodd" clip-rule="evenodd" d="M24.2239 14.8179C24.2239 15.7235 23.4097 16.4585 22.4048 16.4585C21.3999 16.4585 20.5857 15.7235 20.5857 14.8179C20.5857 13.9122 21.3999 13.1772 22.4048 13.1772C23.4097 13.1772 24.2239 13.9122 24.2239 14.8179" fill="white"/>
<path fill-rule="evenodd" clip-rule="evenodd" d="M12.5821 14.8179C12.5821 15.7235 11.7679 16.4585 10.763 16.4585C9.75809 16.4585 8.94385 15.7235 8.94385 14.8179C8.94385 13.9122 9.75809 13.1772 10.763 13.1772C11.7679 13.1772 12.5821 13.9122 12.5821 14.8179" fill="white"/>
</svg>
